<?xml version="1.0" encoding="utf-8"?>
<!-- Generator: Adobe Illustrator 16.0.0, SVG Export Plug-In . SVG Version: 6.00 Build 0)  -->
<!DOCTYPE svg PUBLIC "-//W3C//DTD SVG 1.1//EN" "http://www.w3.org/Graphics/SVG/1.1/DTD/svg11.dtd">
<svg version="1.1" id="Capa_1" xmlns="http://www.w3.org/2000/svg" xmlns:xlink="http://www.w3.org/1999/xlink" x="0px" y="0px"
	 width="1154.262px" height="208.561px" viewBox="0 0 1154.262 208.561" enable-background="new 0 0 1154.262 208.561"
	 xml:space="preserve">
<g>
	<path fill="#2C9989" d="M6.279,103.447c-1.564,1.258-3.438,1.988-5.146,2.998c-0.784,0.465-0.591-0.327-0.604-0.678
		c-0.104-2.921,0.047-5.84,0.258-8.749C1.606,85.742,3.97,74.782,8.541,64.434C23.244,31.16,48.344,10.391,83.885,2.368
		c4.762-1.075,9.603-1.645,14.477-1.914c0.261-0.017,0.572,0.087,0.759-0.215c3.68,0,7.36,0,11.04,0
		c1.256,0.457,2.585,0.292,3.876,0.412c42.003,3.942,76.965,31.896,89.985,71.979c1.396,4.295,2.449,8.676,3.3,13.106
		c0.128,0.669,0.066,1.218-0.466,1.736c-1.48,1.447-2.669,3.176-4.319,4.46c-0.684-1.868-0.769-3.862-1.117-5.791
		c-0.654-3.629-1.54-7.193-2.609-10.706c-1.274-4.181-2.82-8.277-4.698-12.23c-2.015-4.242-4.293-8.332-6.846-12.291
		c-2.965-4.6-6.295-8.901-9.977-12.906c-2.816-3.065-5.801-5.997-9.046-8.649c-2.621-2.142-5.279-4.221-8.063-6.143
		c-4.991-3.444-10.308-6.294-15.825-8.793c-4.34-1.966-8.819-3.586-13.401-4.813c-4.572-1.225-9.199-2.275-13.957-2.708
		c-2.654-0.239-5.306-0.659-7.967-0.804c-5.61-0.301-11.188,0.111-16.77,0.806c-4.437,0.554-8.818,1.311-13.117,2.479
		c-7.92,2.157-15.457,5.256-22.646,9.262C49.6,22.491,43.294,27.12,37.524,32.471c-5.119,4.748-9.674,10.014-13.644,15.771
		c-6.213,9.01-10.913,18.731-13.865,29.293c-1.44,5.147-2.51,10.355-3.083,15.675C6.566,96.616,6.24,100.019,6.279,103.447z"/>
	<path fill="#E4E5E4" d="M1154.262,142.034c-0.266-0.019-0.529-0.043-0.787-0.06c0.423-3.772,0.409-7.544,0.008-11.321
		c0.262-0.02,0.522-0.039,0.779-0.058C1154.262,134.407,1154.262,138.222,1154.262,142.034z"/>
	<path fill="#663401" d="M17.697,116.118c5.167-3.099,10.333-6.193,15.801-9.473c-0.584,1.997-1.085,3.707-1.628,5.563
		c2.287-0.822,4.422-1.628,6.582-2.359c8.939-3.023,18.103-4.256,27.513-3.263c8.148,0.858,15.808,3.415,23.207,6.837
		c3.95,1.827,7.791,3.865,11.605,5.958c0.346,0.188,0.851,0.792,1.12-0.031c0.232-0.713,1.201-1.665,0.223-2.208
		c-7.572-4.203-14.612-9.342-22.506-12.964c-6.456-2.963-13.302-3.526-20.295-2.785c-6.949,0.736-13.633,2.573-20.209,4.864
		c-0.418,0.146-0.839,0.465-1.384,0.201c1.703-1.092,3.394-2.147,4.809-3.561c0.437-0.435,1.093-0.904,0.82-1.604
		c-0.283-0.726-1.082-0.546-1.7-0.553c-1.252-0.016-2.446,0.287-3.627,0.697c-11.314,3.922-21.68,9.715-31.75,16.095
		c-1.542,0.977-3.068,1.979-4.722,3.051c-0.563-3.271-0.837-6.433-1.073-9.6c-0.031-0.419,0.125-0.645,0.482-0.85
		c12.019-6.875,24.352-12.983,37.905-16.324c15.042-3.708,28.957-1.273,41.952,7.1c6.246,4.022,12.265,8.392,18.626,12.236
		c1.046,0.636,2.104,1.248,3.275,1.94c0.14-1.365,0.049-2.545-0.039-3.728c0.059-1.964-0.208-3.903-0.444-5.846
		c-0.837-6.893-2.763-13.422-6.491-19.35c-0.438-0.695-0.976-1.24-1.669-1.672c-3.407-2.124-7.162-2.564-11.061-2.298
		c-1.354,0.094-2.705,0.242-4.403,0.397c2.127-1.333,4.116-1.943,6.37-2.232c-0.395-0.353-0.695-0.599-0.968-0.87
		c-1.948-1.944-3.309-4.174-3.37-7.022l-0.021,0.021c0.449,0.258,0.53,0.765,0.763,1.16c0.949,1.624,1.92,3.231,3.25,4.583
		c0.975,0.991,2.095,1.774,3.512,1.901c1.824,0.163,3.694-0.021,5.553,1.074c-1.164-3.532-1.953-6.862-2.42-10.271
		c-0.134-0.979,0.022-2-0.48-2.933c-1.445-2.68-3.529-4.605-6.428-5.62c-1.288-0.451-2.628-0.646-4.238-0.843
		c4.557-0.679,8.025,0.73,10.81,4.426c0-2.647,0.22-4.941,0.531-7.227c0.128,0.004,0.257,0.007,0.385,0.011
		c-0.788,8.742,1.515,17.047,3.484,19.436c0.03-0.067,0.083-0.136,0.087-0.205c0.029-0.598,0.045-1.195,0.075-1.795
		c0.258-5.146,1.263-10.135,3.48-14.802c0.783-1.647,0.884-3.264,0.732-4.992c-0.168-1.91-0.825-3.634-1.851-5.233
		c0.05-0.051,0.1-0.1,0.147-0.147c2.108,1.585,2.48,3.979,2.91,6.521c0.899-1.201,1.492-2.418,2.443-3.363
		c0.072,0.061,0.145,0.122,0.216,0.183c-0.177,0.313-0.353,0.623-0.529,0.936c-3.793,6.659-5.83,13.764-5.368,21.478
		c0.186,3.104,0.979,6.046,2.771,8.652c0.229,0.309,0.458,0.618,0.687,0.928c0.126,0.021,0.252,0.043,0.378,0.064l-0.017-0.021
		c0.774,1.535,1.504,1.781,2.82,0.926c1.43-0.927,2.302-2.302,2.969-3.816c1.74-3.953,1.975-8.105,1.54-12.326
		c-0.271-2.64-1.022-5.16-2.084-7.603c3.325,3.255,4.634,7.366,4.947,12.202c3.182-5.832,3.589-11.53,1.314-17.667
		c1.045,0.734,1.08,1.771,1.657,2.56c1.015-1.963,2.102-3.767,4.063-4.811c0.085,0.073,0.17,0.146,0.256,0.221
		c-0.273,0.29-0.557,0.571-0.822,0.869c-1.614,1.818-2.817,3.938-2.717,6.354c0.102,2.399,0.321,4.791,0.095,7.266
		c5.356-3.688,8.32-4.936,11.339-4.731c-8.685,2.16-12.667,8.633-15.518,16.208c1.87-0.937,3.823-1.451,5.839-1.73
		c4.108-0.566,7.868-1.748,10.207-5.561c-0.894,3.35-3.516,5.194-6.303,6.998c2.394,0.942,4.273,2.348,5.412,4.604
		c-0.068,0.068-0.136,0.136-0.204,0.205c-4.755-5.076-11.577-4.206-15.439-0.895c-2.764,2.369-3.604,5.533-2.143,8.693
		c3.505,7.573,5.924,15.457,7.025,23.736c0.259,2.555,1.49,4.097,4.059,4.986c6.316,2.188,12.664,4.124,19.338,4.875
		c8.004,0.899,15.775-0.129,23.411-2.546c11.92-3.771,22.312-10.203,31.785-18.23c4.737-4.013,9.138-8.373,13.299-12.979
		c0.237-0.264,0.479-0.521,0.963-1.048c0.154,2.157,0.288,4.033,0.423,5.908c0.023,0.319-0.188,0.517-0.372,0.724
		c-7.315,8.267-14.583,16.58-23.127,23.646c-0.271,0.225-0.556,0.438-0.824,0.646c-0.074-0.063-0.113-0.08-0.123-0.108
		c-0.885-2.473-1.195-2.584-3.54-1.244c-9.08,5.188-18.768,8.597-29.158,9.932c-9.647,1.239-18.862-0.302-27.686-4.333
		c-2.503-1.144-5.012-2.273-7.498-3.456c-0.696-0.33-1.01-0.438-1.054,0.555c-0.094,2.143-0.144,2.138,1.823,3.123
		c6.516,3.265,13.218,6.009,20.439,7.295c10.015,1.784,19.64,0.35,28.979-3.482c3.549-1.456,6.952-3.204,10.431-5.221
		c-0.332,1.727-0.634,3.301-0.937,4.879c0.458,0.102,0.727-0.184,1.021-0.348c4.437-2.464,8.768-5.095,12.748-8.262
		c0.082-0.063,0.229-0.049,0.345-0.068c-1.565,7.347-4.087,14.359-7.515,21.033c-5.856,11.398-13.786,21.125-23.876,29.051
		c-14.682,11.532-31.388,17.757-50.002,18.766c-9.438,0.514-18.755-0.511-27.866-3.084c-17.548-4.957-32.23-14.417-43.924-28.395
		C26.503,147.76,20.041,132.831,17.697,116.118z M91.413,157.169l0.072,0.073c-0.009,1.809-0.535,3.546-0.729,5.324
		c-0.072,0.67-0.334,0.939-0.958,1.147c-1.511,0.507-2.354,1.864-2.188,3.323c0.161,1.422,1.276,2.596,2.696,2.836
		c1.29,0.218,2.809-0.607,3.354-1.822c0.593-1.319,0.213-2.999-0.989-3.89c-0.513-0.382-0.695-0.667-0.576-1.35
		c0.564-3.22,1.003-6.461,1.563-9.682c0.19-1.094,0.18-2.247,0.729-3.505c0.536,1.479,1.287,2.695,1.333,4.046
		c0.167,4.993,0.205,9.99,0.303,14.986c0.01,0.483-0.122,0.775-0.595,1.032c-1.469,0.799-2.086,2.179-1.705,3.58
		c0.419,1.547,1.604,2.453,3.153,2.41c1.509-0.041,2.669-1.021,3.043-2.576c0.324-1.342-0.362-2.674-1.763-3.443
		c-0.265-0.146-0.69-0.162-0.7-0.564c-0.025-1.114-0.009-2.229-0.009-3.687c3.348,4.666,6.456,9.021,9.599,13.354
		c0.526,0.725,0.818,1.282,0.31,2.225c-0.647,1.198-0.165,2.721,0.844,3.58c0.998,0.854,2.572,0.976,3.697,0.286
		c1.252-0.765,1.832-2.146,1.462-3.479c-0.428-1.545-1.546-2.399-3.176-2.354c-0.73,0.021-1.314,0.058-1.841-0.701
		c-2.645-3.806-5.169-7.724-8.133-11.27c-2.418-2.895-3.404-5.922-3.054-9.604c0.231-2.429,0.052-4.862-1.029-7.149
		c-0.425-0.898-0.668-1.881-1.042-2.808c-0.244-0.603-0.217-1.106,0.129-1.681c1.015-1.675,2.035-3.351,2.938-5.086
		c1.574-3.032,3.79-5.727,4.662-9.134c0.722-2.82,1.583-5.605,2.423-8.396c0.193-0.642,0.167-1.104-0.513-1.346
		c-0.874-0.31-0.657,0.536-0.758,0.849c-0.653,2.055-1.466,4.097-1.775,6.207c-0.474,3.221-2.149,4.938-5.282,5.604
		c-1.787,0.379-3.514,1.127-4.578,2.801c-0.552,0.868-1.17,1.375-2.248,0.796c-0.242-0.131-0.631-0.054-0.936,0.01
		c-1.918,0.403-2.982,2.078-2.521,3.934c0.43,1.719,2.215,2.765,3.885,2.274c1.883-0.552,2.794-2.353,2.076-4.263
		c-0.208-0.554-0.017-0.833,0.252-1.27c1.595-2.591,4.431-2.833,6.92-3.793c-1.91,3.54-3.906,6.985-5.889,10.441
		c-0.207,0.359-0.492,0.468-0.871,0.523c-1.816,0.27-3.632,0.553-5.478,0.479c-2.436-0.1-4.869-0.221-7.305-0.304
		c-0.701-0.024-1.135-0.215-1.445-0.947c-0.618-1.455-2.125-2.124-3.541-1.744c-1.495,0.4-2.461,1.557-2.5,2.985
		s0.888,2.672,2.33,3.118c1.383,0.428,2.771-0.11,3.604-1.424c0.23-0.363,0.326-0.835,0.923-0.751
		c2.354,0.334,4.753,0.104,7.236,0.566c-0.398,0.423-0.739,0.747-1.036,1.108c-0.597,0.726-1.19,1.146-2.249,0.756
		c-0.729-0.271-1.575-0.087-2.279,0.424c-1.34,0.971-1.816,2.777-1.065,4.146c0.796,1.451,2.663,2.091,4.138,1.415
		c1.488-0.683,2.172-2.388,1.625-4.042c-0.094-0.285-0.389-0.576-0.059-0.873c1.466-1.314,2.437-3.355,4.858-3.274
		c0.513,0.018,1.035-0.08,1.541-0.187c0.787-0.165,0.895,0.214,0.787,0.855c-0.331,2.007-0.652,4.015-0.965,6.022
		c-0.112,0.727-0.435,1.197-1.168,1.489c-1.631,0.65-3.204,1.45-4.835,2.101c-2.327,0.924-4.45,2.533-7.226,1.993
		c-0.802-0.155-1.306-0.231-1.688-1.083c-0.999-2.222-4.073-2.436-5.41-0.456c-1.007,1.489-0.646,3.479,0.81,4.449
		c1.502,1.003,3.364,0.634,4.419-0.857c0.256-0.362,0.335-0.939,1.013-0.836c0.742,0.114,1.492,0.177,2.354,0.273
		c-0.664,1.641-1.333,3.211-1.934,4.808c-0.402,1.07-0.784,1.866-2.188,2.097c-1.953,0.32-2.841,2.392-2.103,4.193
		c0.712,1.739,2.679,2.456,4.388,1.598c1.656-0.831,2.337-2.986,1.144-4.495c-0.935-1.18-0.444-1.964,0.092-2.933
		c0.126,0.069,0.22,0.089,0.26,0.146c1.312,1.862,2.454,3.873,3.964,5.559c1.97,2.193,2.229,4.263,0.545,6.688
		c-0.41,0.59-0.645,1-1.466,1.078c-1.419,0.135-2.452,0.966-2.826,2.397c-0.333,1.275,0.071,2.385,1.07,3.225
		c1.227,1.029,2.869,0.986,4.065-0.044c1.271-1.094,1.485-2.706,0.539-4.206c-0.294-0.465-0.718-0.838-0.37-1.496
		c0.466-0.882,0.874-1.798,1.247-2.723c0.277-0.69,0.624-0.688,1.172-0.309c1.874,1.297,3.758,2.575,5.655,3.839
		c0.441,0.294,0.625,0.531,0.517,1.144c-0.274,1.54,0.571,2.879,1.999,3.435c1.293,0.505,2.862,0.065,3.662-1.021
		c0.919-1.249,0.873-2.771-0.122-3.971c-0.964-1.164-2.485-1.51-3.89-0.729c-0.646,0.358-1.067,0.266-1.61-0.114
		c-1.577-1.093-3.198-2.117-4.768-3.222c-1.004-0.705-2.056-1.327-2.777-2.412c-1.904-2.858-3.896-5.662-5.854-8.483
		c-0.18-0.262-0.396-0.471-0.237-0.854c0.743-1.82,1.214-3.688,3.57-4.373C86.641,159.459,88.909,158.004,91.413,157.169z
		 M102.311,144.404c1.441,2.545,2.717,4.806,4.006,7.058c0.263,0.46,0.285,0.851,0.005,1.335c-1.059,1.834-2.081,3.688-3.098,5.546
		c-0.273,0.5-0.537,0.697-1.203,0.656c-2.125-0.129-3.782,1.891-3.283,3.86c0.336,1.328,1.198,2.165,2.524,2.438
		c1.304,0.268,2.369-0.253,3.151-1.282c0.836-1.102,0.799-2.296,0.172-3.49c-0.195-0.373-0.654-0.675-0.381-1.173
		c0.715-1.302,1.454-2.589,2.185-3.882c0.003,2.707-0.169,5.334-0.309,7.962c-0.031,0.593-0.452,0.657-0.851,0.839
		c-1.275,0.581-2.088,2.029-1.88,3.294c0.251,1.533,1.403,2.675,2.843,2.813c1.415,0.138,2.773-0.736,3.276-2.106
		c0.517-1.408,0.142-2.899-1.203-3.658c-0.981-0.553-0.934-1.146-0.621-2.067c2.085,1.478,4.068,2.956,6.13,4.316
		c1.216,0.805,2.064,1.767,2.508,3.184c0.438,1.406,1.053,2.76,1.641,4.115c0.306,0.704,0.403,1.22-0.206,1.907
		c-0.994,1.128-0.951,2.647-0.138,3.764c0.868,1.187,2.267,1.646,3.599,1.181c1.397-0.488,2.278-1.792,2.18-3.227
		c-0.094-1.354-1.136-2.5-2.509-2.864c-0.498-0.133-1.159,0.06-1.433-0.643c-0.734-1.891-1.49-3.771-2.298-5.813
		c1.512,0.097,2.854,0.181,4.196,0.27c0.277,0.021,0.554,0.07,0.833,0.09c0.521,0.03,0.705,0.371,0.893,0.808
		c0.497,1.153,1.399,1.838,2.656,1.962c1.515,0.148,2.858-0.769,3.323-2.206c0.444-1.376-0.187-2.969-1.476-3.72
		c-1.225-0.715-2.884-0.393-3.938,0.694c-0.354,0.363-0.406,1.123-0.996,1.106c-1.488-0.04-2.971-0.21-4.44-0.327
		c0.003-0.457,0.228-0.59,0.4-0.742c2.641-2.318,5.295-4.626,7.924-6.96c0.42-0.373,0.748-0.254,1.187-0.084
		c1.545,0.602,2.999,0.141,3.896-1.183c0.729-1.073,0.635-2.697-0.211-3.691c-0.978-1.146-2.502-1.52-3.789-0.922
		c-1.334,0.619-2.102,2.073-1.757,3.583c0.141,0.615,0.146,1.018-0.37,1.457c-2.915,2.493-5.812,5.005-8.687,7.544
		c-0.545,0.48-0.948,0.561-1.558,0.115c-2.326-1.692-4.683-3.341-7.029-5.006c-0.294-0.209-0.626-0.401-0.596-0.83
		c0.157-2.207,0.322-4.413,0.498-6.807c2.024,1.828,3.907,3.541,5.806,5.233c0.406,0.361,0.325,0.715,0.216,1.181
		c-0.352,1.479,0.181,2.766,1.379,3.547c1.08,0.703,2.361,0.671,3.483-0.089c1.093-0.74,1.708-2.131,1.21-3.482
		c-0.38-1.031-0.018-1.163,0.816-1.452c1.495-0.518,2.24-2.154,1.874-3.728c-0.333-1.434-1.974-2.822-3.293-2.323
		c-1.634,0.618-2.318-0.309-3.188-1.204c-0.501-0.517-1.02-1.017-1.528-1.525c-0.911-0.906-1.821-1.816-2.853-2.847
		c1.893-0.529,3.542-0.985,5.188-1.453c0.531-0.148,0.799,0.191,1.107,0.519c0.76,0.798,1.683,1.229,2.796,1.021
		c1.659-0.308,2.817-1.727,2.742-3.293c-0.074-1.554-1.329-2.888-2.871-3.054c-1.562-0.167-2.944,0.854-3.391,2.574
		c-0.162,0.625-0.47,0.904-1.107,1.054c-1.514,0.349-3.021,0.752-4.5,1.229c-0.757,0.245-1.18,0.081-1.571-0.585
		c-0.709-1.203-1.442-2.397-2.25-3.537c-0.493-0.695-0.517-1.281-0.221-2.079c1.499-4.043,2.915-8.115,4.384-12.17
		c0.223-0.612,0.276-1.1-0.467-1.302c-0.765-0.21-0.689,0.494-0.828,0.872c-1.407,3.821-2.697,7.688-4.219,11.462
		c-0.667,1.656-0.649,2.958,0.48,4.36c1.37,1.699,2.153,3.813,3.77,5.36c1.819,1.74,3.575,3.55,5.367,5.319
		c0.358,0.354,0.646,0.685,0.428,1.249c-0.328,0.855-0.297,1.719,0.094,2.563c0.093,0.198,0.271,0.392-0.006,0.619
		c-0.602,0.491-1.849,0.441-2.462-0.108c-1.307-1.175-2.646-2.314-3.925-3.521c-1.242-1.174-2.593-2.232-3.414-3.816
		c-1.176-2.271-2.401-4.521-3.752-6.688c-0.613-0.982-0.616-1.769-0.14-2.756c2.365-4.906,3.957-10.102,5.596-15.276
		c0.199-0.628,0.324-1.219-0.47-1.468c-0.896-0.278-0.689,0.599-0.806,0.948c-1.076,3.258-2.057,6.544-3.352,9.731
		c-1.57,3.861-3.485,7.638-3.625,11.937c-0.029,0.889-0.235,1.527-1.244,1.734c-0.593,0.121-1.034,0.589-1.372,1.104
		c-0.982,1.501-0.596,3.417,0.895,4.438c1.294,0.886,3.269,0.591,4.212-0.63c1.082-1.399,0.862-3.398-0.52-4.503
		c-0.399-0.32-0.904-0.514-0.77-1.194C101.968,146.623,102.105,145.646,102.311,144.404z"/>
	<path fill="#E4E5E4" d="M115.769,118.096c-1.102-8.279-3.521-16.164-7.025-23.736c-1.463-3.158-0.621-6.325,2.144-8.693
		c3.862-3.313,10.684-4.183,15.438,0.895c0.106,0.088,0.211,0.177,0.317,0.268c0.11-0.192,0.084-0.354-0.113-0.473
		c-1.139-2.256-3.019-3.659-5.412-4.604c2.787-1.803,5.409-3.648,6.303-6.998c-2.339,3.813-6.099,4.993-10.207,5.561
		c-2.017,0.279-3.969,0.795-5.839,1.73c2.851-7.576,6.833-14.048,15.518-16.208c-3.019-0.203-5.982,1.045-11.338,4.731
		c0.226-2.476,0.006-4.865-0.096-7.266c-0.102-2.416,1.103-4.536,2.717-6.354c0.266-0.3,0.549-0.581,0.822-0.871
		c0.116-0.11,0.233-0.222,0.351-0.33c0.067-0.073,0.205-0.198,0.194-0.211c-0.128-0.169-0.25-0.063-0.367,0.031
		c-0.144,0.099-0.288,0.193-0.434,0.289c-1.962,1.044-3.05,2.848-4.063,4.811c-0.579-0.788-0.613-1.824-1.658-2.56
		c2.273,6.137,1.866,11.835-1.314,17.667c-0.313-4.836-1.622-8.947-4.947-12.2c1.062,2.439,1.813,4.961,2.085,7.601
		c0.434,4.221,0.199,8.373-1.54,12.326c-0.667,1.517-1.54,2.891-2.97,3.816c-1.316,0.855-2.046,0.609-2.82-0.926
		c1.103,0.086,1.684-0.481,1.619-1.526c-0.042-0.687-0.013-1.637-0.982-1.765c-0.819-0.105-1.586,0.891-1.685,1.963
		c-0.011,0.118-0.001,0.238-0.001,0.356c-1.792-2.606-2.585-5.549-2.771-8.652c-0.462-7.713,1.575-14.817,5.368-21.478
		c0.177-0.313,0.354-0.623,0.529-0.937c0.008-0.097,0.015-0.192,0.021-0.292c-0.079,0.036-0.157,0.073-0.236,0.109
		c-0.95,0.945-1.544,2.163-2.443,3.363c-0.43-2.543-0.801-4.938-2.91-6.521c-0.093-0.084-0.178-0.241-0.308-0.057
		c-0.015,0.021,0.104,0.134,0.159,0.204c1.025,1.601,1.682,3.323,1.851,5.233c0.151,1.729,0.051,3.346-0.732,4.992
		c-2.218,4.667-3.223,9.656-3.48,14.802c-0.03,0.6-0.046,1.197-0.075,1.795c-0.004,0.068-0.057,0.137-0.087,0.205
		c-1.97-2.389-4.272-10.692-3.484-19.435c0.092-0.984,0.184-1.97,0.276-2.956c-0.42,0.944-0.637,1.925-0.662,2.944
		c-0.312,2.283-0.531,4.576-0.531,7.227c-2.784-3.694-6.253-5.104-10.81-4.426c1.61,0.198,2.95,0.392,4.238,0.843
		c2.898,1.015,4.982,2.94,6.428,5.62c0.503,0.934,0.347,1.954,0.48,2.933c0.467,3.408,1.257,6.738,2.42,10.271
		c-1.857-1.095-3.729-0.911-5.553-1.074c-1.417-0.127-2.537-0.91-3.512-1.901c-1.329-1.352-2.301-2.959-3.25-4.583
		c-0.232-0.396-0.313-0.902-0.763-1.16c-0.029-0.099-0.06-0.193-0.089-0.29c-0.02,0.026-0.056,0.056-0.057,0.085
		c-0.003,0.107,0.005,0.219,0.167,0.184c0.062,2.85,1.422,5.078,3.37,7.022c0.272,0.271,0.575,0.519,0.968,0.87
		c-2.253,0.289-4.243,0.898-6.37,2.232c1.698-0.155,3.049-0.306,4.403-0.397c3.897-0.268,7.652,0.175,11.061,2.298
		c0.693,0.432,1.231,0.978,1.669,1.672c3.729,5.928,5.653,12.458,6.491,19.35c0.236,1.94,0.503,3.882,0.444,5.846
		c-3.484-1.859-6.724-4.111-9.988-6.318c-4.559-3.081-9.086-6.204-13.896-8.898c-4.479-2.509-9.159-4.479-14.141-5.757
		c-5.112-1.312-10.323-1.653-15.538-1.301c-7.834,0.527-15.363,2.535-22.69,5.324c-2.609,0.991-5.228,1.96-7.758,3.146
		c-0.423,0.199-0.915,0.249-1.375,0.368c0.044-4.741,0.943-9.366,2.03-13.946c1.874-7.894,4.818-15.383,8.798-22.463
		c5.668-10.081,13.045-18.722,22.095-25.889C59.1,28.597,68.977,23.434,79.88,20.249c6.63-1.938,13.383-3.068,20.262-3.436
		c4.49-0.236,8.973-0.039,13.466,0.391c4.944,0.472,9.81,1.294,14.56,2.658c24.295,6.985,42.414,21.707,54.397,43.923
		c4.278,7.931,7.08,16.403,8.584,25.323c0.695,4.125,1.117,8.254,1.333,12.418c-1.737,1.999-3.92,3.485-5.989,5.086
		c-4.959,3.845-10.258,7.168-15.899,9.923c-5.866,2.86-12.021,4.896-18.442,6.042c-4.444,0.793-8.959,1.041-13.456,0.742
		c-7.466-0.491-14.698-2.161-21.66-4.938C116.62,118.22,116.227,118.033,115.769,118.096z M139.379,63.107
		c0.001-2.552-1.19-5.414-2.864-6.876c-2.152-1.881-4.947-1.393-6.206,1.142c-1.127,2.27-1.11,4.604-0.162,6.939
		c0.102,0.25,0.195,0.53,0.503,0.631c0.956,0.318,1.566,1.06,2.188,1.787c0.741,0.868,1.647,1.335,2.831,1.248
		C137.958,67.809,139.378,65.965,139.379,63.107z M96.875,44.819c0.003,1.271,0.217,2.681,1.699,3.363
		c1.54,0.711,2.926,0.151,4.029-0.974c2.171-2.214,3.461-4.867,3.491-8.016c0.019-2.043-1.174-2.878-3.151-2.328
		C99.527,37.813,96.966,41.094,96.875,44.819z M116.527,42.025c0.24,0,0.479,0.013,0.719-0.001c2.121-0.108,2.936-1.271,2.255-3.295
		c-0.826-2.456-2.508-4.045-5.025-4.676c-3.293-0.825-5.726,1.12-5.743,4.513c-0.003,0.641,0.203,1.04,0.756,1.354
		C111.679,41.152,114.011,41.893,116.527,42.025z M95.341,37.53c0.015-0.845-0.079-1.665-0.463-2.438
		c-0.766-1.548-2.097-2.071-3.674-1.427c-2.921,1.189-4.81,5.32-3.799,8.308c0.565,1.667,1.916,2.313,3.598,1.714
		C93.52,42.793,95.294,40.276,95.341,37.53z M116.619,47.569c-0.021-2.704-2.207-5.312-4.424-5.275
		c-2.159,0.034-4.606,2.511-4.57,4.625c0.04,2.365,2.354,4.434,4.943,4.419C115.021,51.324,116.636,49.822,116.619,47.569z
		 M79.529,52.581c-1.623,0.103-3.213,0.42-4.614,1.354c-1.049,0.7-1.824,1.629-1.63,2.972c0.206,1.422,1.23,2.188,2.527,2.582
		c2.295,0.695,6.123-0.523,7.629-2.394c0.948-1.176,0.803-2.52-0.396-3.455C82.023,52.845,80.806,52.658,79.529,52.581z
		 M134.955,50.55c-0.059-2.209-0.742-4.169-2.491-5.604c-1.826-1.499-4.522-0.575-5.003,1.655c-0.479,2.229,0.952,5.854,2.823,7.146
		c1.47,1.015,3.199,0.638,4.121-0.896C134.831,52.143,134.954,51.365,134.955,50.55z M122.396,40.081
		c0.06,1.356,0.56,2.966,1.896,4.212c0.8,0.746,1.732,0.96,2.759,0.467c1.672-0.803,2.935-2.993,2.787-4.823
		c-0.175-2.186-2.324-4.232-4.379-4.171C123.67,35.821,122.397,37.439,122.396,40.081z M130.801,81.896
		c0.062-1.091,0.321-1.952,0.071-2.834c-0.178-0.63-0.599-0.95-1.19-1.01c-0.488-0.05-1.043-0.228-1.428,0.31
		c-0.768,1.072-0.855,2.264-0.355,3.413c0.421,0.972,1.396,0.557,2.118,0.459c0.717-0.095,0.607,0.25,0.543,0.654
		c-0.126,0.788-0.313,1.571-0.197,2.376c0.179,1.241,0.891,1.75,2.099,1.438c1.5-0.391,2.801-1.153,3.845-2.307
		c0.634-0.7,0.979-1.535,0.991-2.502c0.014-1.098-0.271-2.219-1.142-2.77c-0.88-0.559-1.921,0.003-2.804,0.506
		C132.408,80.168,131.782,81.079,130.801,81.896z M86.849,93.886c0.491,0.017,1.281-0.06,2.037-0.35
		c1.936-0.745,2.454-2.615,1.182-4.245c-1.785-2.286-5.37-2.846-7.755-1.208c-1.782,1.223-1.863,3.146-0.148,4.457
		C83.447,93.518,84.945,93.874,86.849,93.886z M87.115,47.342c0.012-2.206-1.591-4.075-3.517-4.104
		c-2.207-0.029-4.05,2.057-4.068,4.605c-0.017,2.254,1.342,3.977,3.12,3.957C84.974,51.775,87.103,49.649,87.115,47.342z
		 M120.387,52.835c1.111,0.004,2.101-0.409,3.045-0.938c1.146-0.64,1.93-1.541,1.912-2.939c-0.019-1.449-0.736-2.493-1.956-3.203
		c-1.251-0.729-2.946-0.633-4.033,0.313c-1.443,1.256-1.916,2.894-1.529,4.749C118.108,52.17,118.999,52.833,120.387,52.835z
		 M124.026,60.795c1.277-0.005,2.659-0.51,3.658-1.801c1.151-1.489,0.893-3.635-0.563-4.97c-1.237-1.133-3.093-0.973-4.502,0.394
		c-0.893,0.863-1.353,1.952-1.583,3.145C120.587,59.886,121.325,60.77,124.026,60.795z M139.942,42.63
		c-0.006-2.082-1.375-4.171-3.388-5.101c-1.011-0.465-2.105-0.729-3.067-0.001c-1,0.76-1.23,1.917-1.121,3.119
		c0.078,0.858,0.461,1.601,1.074,2.213c1.291,1.292,2.881,1.818,4.669,1.733C139.708,44.519,139.947,44.223,139.942,42.63z
		 M103.308,35.801c1.985-0.193,3.896-0.786,5.309-2.442c0.705-0.826,0.853-1.792,0.392-2.796c-0.455-0.997-1.309-1.342-2.346-1.318
		c-2.259,0.048-4.063,1.092-5.545,2.692c-1.772,1.917-1.369,2.715,1.256,3.774C102.622,35.811,102.926,35.768,103.308,35.801z
		 M76.951,35.15c0.014,1.625,0.867,2.25,2.751,1.897c0.972-0.183,1.902-0.576,2.872-0.779c1.448-0.303,2.164-0.927,2.311-2.167
		c0.144-1.21-0.696-2.628-1.829-3.088C80.488,29.969,76.928,32.383,76.951,35.15z M78.697,68.096
		c-0.048-0.226-0.099-0.751-0.274-1.23c-0.372-1.017-0.969-1.893-2.139-2.025c-1.161-0.134-1.849,0.653-2.339,1.558
		c-0.91,1.681-1.378,3.485-1.238,5.406c0.105,1.454,1.037,2.037,2.414,1.572C76.972,72.749,78.668,70.381,78.697,68.096z
		 M94.75,98.912c1.28,0.033,2.432-0.325,3.466-1.085c0.692-0.509,0.852-1.081,0.396-1.843c-1.079-1.803-2.666-2.831-4.735-3.046
		c-1.374-0.143-2.362,0.621-2.747,1.962C90.467,97.211,91.995,98.904,94.75,98.912z M78.271,46.26c0-0.512,0.014-0.712-0.002-0.911
		c-0.095-1.18-0.822-1.7-1.905-1.983c-1.149-0.302-1.195,0.646-1.563,1.231c-0.438,0.699-0.651,1.517-1.399,2.042
		c-1.596,1.122-1.831,2.833-0.734,4.471c0.249,0.371,0.531,0.561,0.964,0.587c1.187,0.078,2.246-0.188,2.967-1.2
		C77.566,49.139,78.108,47.608,78.271,46.26z M144.026,53.078c0.041-0.776-0.138-1.503-0.486-2.192
		c-0.975-1.926-2.786-2.197-4.259-0.617c-0.849,0.91-1.27,2.009-1.288,3.257c-0.022,1.538,0.589,2.615,1.702,2.995
		c1.143,0.393,2.865-0.176,3.65-1.205C143.85,54.655,144.057,53.901,144.026,53.078z M69.431,63.832
		c-3.073,0.024-4.652,2.354-3.399,4.84c0.571,1.132,1.516,1.789,2.729,2.168c0.98,0.307,1.539,0.012,2.045-0.845
		c0.974-1.65,1.045-3.282,0.296-5.034C70.734,64.101,70.25,63.649,69.431,63.832z M121.73,93.984c1.09-0.098,2.115-0.395,2.991-1.07
		c1.3-1.004,1.442-3.053,0.331-4.387c-0.987-1.184-2.465-1.245-3.809-0.13c-0.807,0.67-1.443,1.473-1.774,2.492
		C118.885,92.686,119.85,94.016,121.73,93.984z M115.391,90.133c1.919-0.029,3.591-1.085,3.555-2.243
		c-0.074-2.323-1.407-3.941-3.211-3.896c-1.646,0.039-3.301,1.883-3.303,3.679C112.43,89.127,113.67,90.159,115.391,90.133z
		 M99.128,66.835c-0.021,2.27,1.23,4.145,2.94,4.773c0.661,0.244,1.117,0.131,1.576-0.395c1.415-1.619,1.236-4.262-0.429-5.841
		c-0.814-0.773-1.777-1.146-2.841-0.688C99.37,65.122,99.165,66.09,99.128,66.835z M113.485,96.225
		c2.597,0.019,3.627-1.461,2.705-3.582c-0.571-1.313-1.683-1.771-2.991-1.775c-1.369-0.009-2.629,0.354-3.339,1.678
		c-0.557,1.038-0.237,2.166,0.762,2.809C111.551,95.951,112.599,96.169,113.485,96.225z M117.863,31.008
		c0.081,2.5,1.34,4.142,3.12,4.071c1.54-0.063,2.838-1.626,2.765-3.332c-0.068-1.635-1.34-2.813-2.986-2.771
		C119.003,29.019,117.826,29.845,117.863,31.008z M94.331,27.908c-0.059-2.21-0.588-2.462-2.8-1.686
		c-0.327,0.115-0.624,0.36-0.892,0.594c-1.441,1.262-2.141,2.949-2.701,4.72c-0.175,0.55,0.126,0.604,0.54,0.618
		c1.515,0.05,2.944-0.245,4.217-1.101C93.806,30.311,94.362,29.256,94.331,27.908z M96.444,32.68c2.049-0.25,3.652-1.693,4.77-3.742
		c0.443-0.813,0.734-1.769-0.131-2.515c-0.907-0.781-1.813-0.354-2.597,0.262c-1.574,1.234-2.616,2.874-3.337,4.715
		C94.743,32.433,94.933,32.662,96.444,32.68z M138.382,72.908c-1.976,0.008-3.05,0.848-3.063,2.394
		c-0.013,1.656,1.374,2.863,3.294,2.867c1.621,0.003,2.737-0.98,2.709-2.388C141.288,74,140.164,72.901,138.382,72.908z
		 M129.817,71.901c-0.008,2.104,0.461,2.734,2.043,2.74c1.907,0.007,3.154-1.185,3.129-2.991c-0.022-1.598-1.269-2.983-2.679-2.981
		C130.892,68.67,129.825,70.053,129.817,71.901z M139.698,68.786c-0.006,1.081,0.188,2.126,0.476,2.707
		c0.552,1.114,1.443,1.383,2.436,0.655c1.157-0.848,1.774-2.04,1.828-3.463c0.055-1.505-1.165-2.581-2.916-2.678
		c-1.018-0.056-1.6,0.659-1.792,2.212C139.698,68.457,139.702,68.697,139.698,68.786z M71.562,59.213
		c0.021-1.229-1.072-2.698-2.022-2.715c-1.802-0.034-3.217,1.096-3.276,2.616c-0.058,1.436,1.045,2.56,2.527,2.579
		C70.378,61.715,71.535,60.679,71.562,59.213z M120.27,77.667c1.529,0.006,2.729-1.28,2.768-2.968
		c0.025-1.089-1.32-2.604-2.369-2.672c-0.852-0.055-2.317,1.771-2.322,2.895C118.336,77.079,118.743,77.661,120.27,77.667z
		 M72.504,83.136c0.121,1.912,0.559,3.155,1.893,3.875c1.466,0.791,2.777,0.018,2.785-1.65c0.004-0.964-0.273-1.884-0.724-2.739
		c-0.459-0.874-1.15-1.34-2.15-1.022C73.33,81.908,72.404,82.319,72.504,83.136z M143.22,64.406
		c0.664,0.008,1.108,0.187,1.555-0.206c1.563-1.38,1.342-4.081-0.455-5.146c-1.427-0.845-2.799-0.177-2.959,1.457
		c-0.078,0.798,0.014,1.583,0.227,2.363C141.849,63.834,142.212,64.615,143.22,64.406z M115.779,28.944
		c0.063-1.644-1.034-2.521-2.601-2.056c-1.051,0.313-1.78,1.027-1.817,2.115c-0.043,1.247,0.192,2.503,1.414,3.222
		c0.736,0.436,1.396,0.093,1.938-0.442C115.494,31.007,115.735,30.007,115.779,28.944z M72.563,78.214
		c-0.195-1.751-0.773-3.366-2.134-4.619c-0.516-0.474-1.13-0.611-1.763-0.291c-0.489,0.247-0.863,0.687-0.708,1.257
		c0.458,1.668,1.28,3.166,2.487,4.403c0.472,0.481,1.209,0.392,1.823,0.224C72.716,79.066,72.506,78.587,72.563,78.214z
		 M104.499,79.481c1.494-0.006,2.315-0.824,2.296-2.29c-0.021-1.521-0.778-2.703-1.745-2.713c-1.483-0.015-2.547,1.167-2.569,2.858
		C102.458,78.845,103.064,79.487,104.499,79.481z M131.292,33.706c-0.005-1.08-0.701-2.072-1.749-2.496
		c-1.015-0.41-2.365-0.091-3.104,0.662c-0.375,0.383-0.267,0.69-0.033,1.055c0.641,0.998,1.477,1.791,2.538,2.314
		C130.331,35.926,131.299,35.277,131.292,33.706z M85.661,67.635c0.002-1.119-1.027-2.423-1.896-2.403
		c-1.257,0.028-2.408,1.245-2.391,2.524c0.018,1.223,0.832,2.093,1.967,2.103C84.626,69.868,85.659,68.877,85.661,67.635z
		 M93.082,54.628c-0.021,1.38,0.815,2.873,1.632,2.917c0.933,0.05,2.383-1.449,2.409-2.491c0.025-0.98-1.21-2.297-2.21-2.354
		C94.373,52.668,93.091,54.019,93.082,54.628z M78.8,42.218c1.973-0.007,3.438-1.271,3.549-2.975
		c0.047-0.726-0.245-0.998-0.906-1.082c-1.221-0.156-3.489,1.354-3.821,2.571C77.347,41.737,77.732,42.222,78.8,42.218z
		 M69.747,44.212c0.152,0.447-0.112,1.265,0.569,1.561c0.583,0.254,1.25,0.015,1.803-0.358c1.016-0.687,1.623-3.137,1.039-4.135
		c-0.176-0.3-0.452-0.279-0.721-0.301C70.878,40.859,69.738,42.172,69.747,44.212z M86.346,76.34
		c1.327-0.034,1.786-0.563,1.729-2.146c-0.031-0.851-0.09-1.958-1.067-2.116c-1.446-0.236-2.438,0.859-2.438,2.335
		C84.568,75.667,85.216,76.369,86.346,76.34z M90.317,51.465c0.145-0.65-0.18-0.835-0.844-0.847
		c-1.798-0.031-3.254,0.782-3.278,1.901c-0.02,0.924,0.867,1.896,1.763,1.936C89.203,54.506,90.249,53.203,90.317,51.465z
		 M68.392,52.291c0.21-0.044,0.603-0.104,0.981-0.211c0.974-0.279,1.281-1.366,0.517-2.002c-0.877-0.729-1.927-1.104-3.093-0.975
		c-0.337,0.038-0.709,0.071-0.792,0.563C65.804,50.875,66.955,52.265,68.392,52.291z M106.806,59.149
		c0.771,0.048,1.465,0.079,1.805-0.894c0.351-1.006,0.174-1.856-0.341-2.707c-0.209-0.346-0.533-0.263-0.85-0.215
		c-1.143,0.176-1.583,0.861-1.756,2.586C105.575,58.817,105.65,59.467,106.806,59.149z M92.069,47.294
		c1.178-0.019,1.72-0.745,2.034-1.725c0.152-0.477,0.527-1.227,0.097-1.413c-0.783-0.34-1.604,0.135-2.327,0.563
		c-0.235,0.14-0.455,0.327-0.643,0.528c-0.384,0.412-0.812,0.917-0.592,1.466C90.866,47.288,91.552,47.227,92.069,47.294z
		 M139.084,47.583c0.012-1.049-0.729-1.829-1.699-1.784c-0.855,0.041-1.565,0.284-1.553,1.365c0.015,1.157,0.601,1.785,1.726,1.798
		C138.532,48.974,139.002,48.46,139.084,47.583z M107.668,28.041c1.001,0.01,1.962-0.722,1.936-1.552
		c-0.032-0.945-0.954-0.847-1.575-1.063c-0.144-0.05-0.315-0.027-0.473-0.021c-1.015,0.048-1.548,0.739-1.646,1.592
		c-0.088,0.761,0.782,0.716,1.289,0.936C107.375,28.008,107.581,28.021,107.668,28.041z M95.447,62.377
		c-0.008-0.787-0.402-1.315-1.164-1.436c-0.52-0.081-1.437,1.355-1.403,2.162c0.032,0.747,0.14,1.474,1.183,1.41
		C94.971,64.461,95.456,63.728,95.447,62.377z M125.812,68.853c-0.129-0.511,0.141-1.341-0.795-1.129
		c-0.613,0.139-1.659-0.373-1.729,0.832c-0.063,1.11,0.519,1.771,1.468,1.791C125.871,70.37,125.657,69.474,125.812,68.853z
		 M76.191,75.592c-0.471,0.201-1.221-0.012-1.132,0.891c0.074,0.763,0.376,1.337,1.229,1.276c0.525-0.037,1.219-0.125,1.188-0.86
		C77.445,76.158,76.958,75.696,76.191,75.592z M119.837,55.259c-0.014,0.021-0.044,0.051-0.039,0.063
		c0.014,0.029,0.043,0.052,0.067,0.075c0.016-0.044,0.031-0.089,0.046-0.134C119.887,55.262,119.862,55.26,119.837,55.259z"/>
	<path fill="#E4E5E4" d="M6.279,103.447c-0.039-3.429,0.287-6.831,0.654-10.235c0.572-5.318,1.642-10.526,3.083-15.675
		c2.954-10.563,7.652-20.283,13.865-29.293c3.97-5.758,8.523-11.022,13.644-15.771c5.771-5.352,12.076-9.979,18.975-13.825
		c7.188-4.005,14.726-7.104,22.646-9.262c4.299-1.171,8.681-1.927,13.118-2.479C97.845,6.213,103.422,5.8,109.033,6.1
		c2.661,0.145,5.313,0.563,7.967,0.804c4.757,0.434,9.385,1.484,13.957,2.708c4.582,1.229,9.062,2.849,13.401,4.813
		c5.518,2.499,10.834,5.349,15.825,8.793c2.784,1.921,5.442,4,8.063,6.143c3.246,2.652,6.229,5.583,9.046,8.649
		c3.682,4.005,7.012,8.308,9.977,12.906c2.553,3.959,4.831,8.049,6.846,12.291c1.878,3.954,3.424,8.052,4.698,12.23
		c1.069,3.513,1.955,7.076,2.609,10.706c0.349,1.931,0.434,3.923,1.117,5.791c-1.906,2.202-4.082,4.142-6.099,6.233
		c-0.33-5.333-1.167-10.588-2.442-15.774c-2.042-8.303-5.214-16.154-9.452-23.578c-5.315-9.312-12.113-17.403-20.245-24.369
		c-6.392-5.474-13.441-9.938-21.085-13.477c-10.255-4.746-21.037-7.45-32.29-8.215c-7.313-0.498-14.599-0.105-21.842,1.141
		c-12.364,2.127-23.817,6.556-34.37,13.338c-4.435,2.853-8.545,6.125-12.452,9.643c-3.051,2.744-5.871,5.738-8.443,8.937
		c-3.809,4.734-7.261,9.712-10.099,15.107c-3.054,5.805-5.635,11.788-7.378,18.125c-1.014,3.686-1.851,7.397-2.46,11.178
		c-0.518,3.213-0.715,6.446-1.027,9.673c-0.022,0.23,0.226,0.158,0.354,0.216C10.897,101.224,8.588,102.335,6.279,103.447z"/>
	<path fill="#653401" d="M7.86,121.947c2.01-1.19,4.019-2.386,6.028-3.576c0.35,1.963,0.613,3.943,1.061,5.887
		c4.925,21.429,15.947,39.055,33.229,52.652c14.936,11.751,32.006,18.129,50.947,19.34c10.151,0.646,20.191-0.346,30.016-3.099
		c18.683-5.232,34.231-15.349,46.611-30.264c8.118-9.78,13.905-20.838,17.398-33.067c0.962-3.37,1.882-6.764,2.208-10.275
		c2.474-2.104,4.947-4.206,7.421-6.312c-0.252,4.438-0.991,8.807-2,13.119c-5.041,21.533-15.952,39.538-32.95,53.68
		c-19.219,15.986-41.442,23.521-66.455,22.82c-6.049-0.17-12.019-0.91-17.916-2.227c-18.746-4.185-34.9-13.133-48.479-26.676
		c-8.518-8.495-15.223-18.283-20.132-29.284C11.596,137.376,9.235,129.814,7.86,121.947z"/>
	<path fill="#2C9888" d="M7.86,121.947c1.375,7.867,3.735,15.431,6.989,22.721c4.909,11.001,11.614,20.789,20.132,29.284
		c13.578,13.543,29.732,22.491,48.479,26.676c5.897,1.314,11.867,2.057,17.916,2.227c25.012,0.7,47.235-6.834,66.455-22.82
		c16.998-14.142,27.909-32.146,32.95-53.68c1.009-4.313,1.748-8.684,2-13.119c1.999-1.936,3.998-3.871,6.24-6.043
		c-0.094,1.997-0.12,3.687-0.265,5.362c-0.699,8.195-2.244,16.225-4.759,24.066c-10.917,34.048-39.519,60.659-74.205,69.096
		c-8.927,2.171-17.97,3.283-27.139,3.031c-23.646-0.65-44.835-8.223-63.279-23.09C22.453,172.015,10.927,154.685,4.71,133.85
		c-0.771-2.587-1.349-5.229-2.011-7.851c-0.159-0.627-0.103-1.104,0.598-1.466C4.847,123.729,6.343,122.816,7.86,121.947z"/>
	<path fill="#126210" d="M1153.482,130.651c0.407,3.778,0.415,7.549-0.008,11.321c-1.458-0.008-2.907-0.024-4.37-0.024
		c-309.438,0-618.877,0-928.316,0c-4.574,0-4.574,0-4.574-4.633c0-6.643,0-6.643,6.597-6.643c308.877,0,617.757,0,926.635-0.003
		C1150.794,130.669,1152.139,130.656,1153.482,130.651z"/>
	<path fill="#2D9A8A" d="M13.206,100.112c-0.129-0.058-0.377,0.016-0.354-0.216c0.313-3.227,0.51-6.46,1.027-9.673
		c0.61-3.779,1.447-7.492,2.46-11.178c1.743-6.337,4.325-12.32,7.377-18.125c2.838-5.396,6.291-10.374,10.1-15.107
		c2.572-3.197,5.394-6.191,8.442-8.937c3.908-3.518,8.02-6.79,12.453-9.643c10.553-6.782,22.005-11.211,34.37-13.338
		c7.243-1.246,14.528-1.638,21.842-1.141c11.251,0.765,22.035,3.469,32.29,8.215c7.644,3.537,14.693,8.003,21.085,13.477
		c8.132,6.966,14.93,15.059,20.245,24.369c4.237,7.422,7.409,15.274,9.452,23.578c1.275,5.188,2.112,10.441,2.442,15.774
		c-1.308,1.134-2.418,2.499-3.957,3.358c-0.216-4.164-0.639-8.293-1.333-12.418c-1.504-8.919-4.307-17.394-8.584-25.323
		C170.58,41.57,152.46,26.848,128.166,19.863c-4.75-1.364-9.616-2.188-14.56-2.658c-4.493-0.43-8.976-0.627-13.466-0.391
		c-6.878,0.366-13.633,1.497-20.262,3.436c-10.903,3.186-20.779,8.349-29.657,15.379c-9.05,7.167-16.427,15.808-22.095,25.889
		c-3.979,7.08-6.924,14.569-8.798,22.463c-1.087,4.58-1.987,9.205-2.03,13.946c-0.753,0.884-1.96,0.906-2.863,1.508
		C14.047,99.693,13.617,99.889,13.206,100.112z"/>
	<path fill="#2B9787" d="M195.359,119.543c-0.326,3.514-1.246,6.906-2.208,10.275c-3.493,12.229-9.28,23.287-17.398,33.067
		c-12.38,14.915-27.929,25.029-46.611,30.264c-9.823,2.753-19.863,3.745-30.016,3.099c-18.94-1.211-36.012-7.589-50.947-19.34
		c-17.282-13.6-28.306-31.226-33.229-52.652c-0.446-1.941-0.711-3.924-1.061-5.887c1.196-0.874,2.464-1.628,3.808-2.252
		c2.344,16.714,8.807,31.643,19.637,44.59c11.693,13.978,26.376,23.438,43.924,28.395c9.111,2.573,18.429,3.599,27.866,3.084
		c18.614-1.009,35.32-7.231,50.002-18.766c10.09-7.926,18.021-17.65,23.876-29.051c3.429-6.674,5.949-13.688,7.515-21.033
		C192.037,121.952,193.705,120.757,195.359,119.543z"/>
	<path fill="#673502" d="M680.896,76.919c2.991-14.309,5.999-28.615,8.986-42.924c2.042-9.75,4.103-19.489,6.046-29.258
		c0.352-1.758,0.993-2.434,2.839-2.398c5.598,0.109,11.196,0.134,16.793-0.008c2.22-0.061,2.512,0.482,2.055,2.628
		c-6.274,29.663-12.447,59.346-18.64,89.029c-1.303,6.248-2.672,12.474-3.834,18.748c-0.429,2.33-1.235,3.324-3.837,3.195
		c-5.138-0.249-10.303-0.197-15.445-0.014c-2.357,0.085-3.439-0.646-4.334-2.895c-9.114-22.956-18.364-45.859-27.585-68.777
		c-0.448-1.122-0.965-2.217-1.864-4.279c-1.431,6.733-2.677,12.548-3.897,18.373c-3.842,18.402-7.669,36.801-11.501,55.204
		c-0.253,1.204-0.344,2.371-2.154,2.349c-6.589-0.084-13.178-0.032-20.021-0.032c2.852-13.658,5.633-27,8.422-40.34
		c4.834-23.104,9.726-46.201,14.427-69.332c0.596-2.927,1.512-4.093,4.676-3.893c5.018,0.317,10.078,0.197,15.109,0.033
		c2.164-0.072,3.087,0.733,3.87,2.686c9.242,23.027,18.58,46.015,27.896,69.009c0.41,1.013,0.853,2.018,1.279,3.017
		C680.422,77.001,680.659,76.963,680.896,76.919z"/>
	<path fill="#673503" d="M815.059,115.86c3.348-15.999,6.629-31.652,9.91-47.306c4.431-21.137,8.917-42.267,13.229-63.429
		c0.472-2.311,1.355-2.847,3.51-2.795c5.818,0.128,11.644,0.153,17.464-0.006c2.552-0.072,2.854,0.591,2.313,3.031
		c-2.77,12.562-5.239,25.195-7.989,37.771c-0.547,2.497-0.009,3.067,2.45,3.047c12.653-0.098,25.31-0.117,37.964,0.017
		c2.406,0.027,3.237-0.737,3.702-3.042c2.556-12.727,5.351-25.403,7.887-38.132c0.425-2.141,1.224-2.721,3.276-2.683
		c6.045,0.118,12.096,0.112,18.144,0.003c2.081-0.036,2.391,0.621,1.987,2.555c-7.601,36.139-15.15,72.289-22.648,108.445
		c-0.426,2.066-1.333,2.617-3.352,2.57c-5.821-0.139-11.654-0.237-17.465,0.03c-2.962,0.141-2.975-0.991-2.494-3.263
		c3.191-14.995,6.254-30.018,9.497-45c0.427-1.982,0.179-2.489-1.882-2.478c-13.101,0.074-26.201,0.068-39.304,0
		c-1.807-0.008-2.458,0.553-2.824,2.362c-3.05,15.027-6.295,30.012-9.295,45.043c-0.519,2.588-1.419,3.418-4.079,3.327
		C828.475,115.709,821.879,115.86,815.059,115.86z"/>
	<path fill="#673502" d="M965.508,2.377c2.909,0,5.83,0.156,8.727-0.044c2.522-0.176,3.017,0.692,2.494,3.053
		c-3.722,16.704-7.372,33.423-11.011,50.144c-1.927,8.852-4.02,17.682-5.603,26.592c-1.156,6.486,1.673,11.576,7.828,13.961
		c9.494,3.686,19.076,3.469,28.257-1.193c5.243-2.662,8.28-7.338,10.323-12.746c3.85-10.205,5.66-20.924,7.916-31.526
		c3.234-15.209,6.36-30.436,9.514-45.667c0.306-1.487,0.554-2.672,2.641-2.626c6.261,0.143,12.539,0.107,18.808,0.017
		c1.853-0.024,2.363,0.586,1.963,2.349c-5.759,25.296-9.704,50.999-16.779,75.994c-2.838,10.013-7.076,19.327-15.494,26.129
		c-6.878,5.556-14.683,8.951-23.37,10.225c-8.682,1.275-17.385,1.394-26.036-0.458c-21.007-4.496-31.811-20.697-27.413-41.802
		c4.864-23.322,10.127-46.56,15.16-69.844c0.428-1.977,1.253-2.752,3.342-2.615C959.676,2.524,962.596,2.377,965.508,2.377z"/>
	<path fill="#673502" d="M1132.622,35.145c-0.673,0.033-1.341,0.063-2.019,0.104c-2.569,0.137-5.321,0.909-7.664,0.246
		c-2.844-0.807-1.488-4.436-2.833-6.547c-1.136-1.801-2.093-3.688-3.648-5.186c-5.922-5.679-22.243-6.678-28.795-1.755
		c-6.057,4.553-6.122,12.945-0.021,17.521c4.319,3.242,9.287,5.344,14.18,7.543c6.521,2.932,13.09,5.761,19.294,9.353
		c15.424,8.928,20.008,26.046,11.074,41.583c-4.153,7.236-10.058,12.734-17.798,15.7c-16.768,6.421-33.591,6.095-49.861-1.579
		c-13.558-6.396-17.152-18.297-17.548-30.902c-0.033-1.188,0.242-1.865,1.625-1.928c6.26-0.314,12.527-0.69,18.78-1.098
		c1.235-0.074,1.911,0.277,1.954,1.588c0.042,1.005,0.151,2.012,0.247,3.017c0.872,8.98,4.747,13.282,13.619,14.871
		c6.565,1.171,13.129,1.166,19.625-0.63c2.764-0.767,5.124-2.177,7.091-4.269c5.261-5.601,4.501-13.408-1.867-17.72
		c-4.739-3.206-10.076-5.306-15.28-7.614c-5.313-2.357-10.577-4.802-15.712-7.535c-11.591-6.166-17.125-15.788-16.145-28.878
		c0.952-12.633,7.39-21.978,18.99-26.709c14.815-6.042,30.092-5.84,44.725,0.715c11.623,5.21,17.664,15.018,19.315,27.6
		c0.228,1.73-0.411,2.212-1.937,2.201c-3.134-0.022-6.265-0.005-9.397-0.005C1132.622,34.931,1132.622,35.038,1132.622,35.145z"/>
	<path fill="#673502" d="M226.137,115.86c0.697-1.322,1.182-2.283,1.708-3.223c20.144-35.748,40.315-71.479,60.388-107.265
		c1.258-2.24,2.562-3.152,5.191-3.067c6.707,0.213,13.428,0.153,20.14,0.025c2.053-0.044,2.954,0.525,3.287,2.628
		c4.934,31.054,9.931,62.098,14.925,93.145c0.796,4.966,1.598,9.941,2.496,14.896c0.368,1.998,0.232,3.014-2.304,2.923
		c-5.701-0.196-11.416-0.126-17.119-0.024c-1.831,0.033-2.454-0.515-2.688-2.393c-0.831-6.665-1.94-13.289-2.855-19.939
		c-0.261-1.906-0.801-2.779-3.049-2.757c-13.317,0.134-26.636,0.109-39.953,0.016c-1.845-0.011-2.789,0.586-3.631,2.168
		c-3.676,6.908-7.54,13.714-11.195,20.637c-0.91,1.72-1.971,2.3-3.892,2.274C240.582,115.788,233.565,115.86,226.137,115.86z
		 M274.302,71.886c8.157,0,15.538,0.06,22.917-0.027c2.858-0.033,6.587,1.246,8.304-0.649c1.17-1.292-0.304-5.048-0.688-7.685
		c-1.773-12.135-3.579-24.268-5.505-37.306C290.797,41.784,282.683,56.589,274.302,71.886z"/>
	<path fill="#673502" d="M481.162,115.86c0.807-1.525,1.293-2.505,1.824-3.446c20.114-35.667,40.247-71.316,60.288-107.022
		c1.248-2.232,2.537-3.171,5.179-3.086c6.709,0.213,13.434,0.118,20.148,0.044c1.931-0.022,2.855,0.279,3.219,2.604
		c5.242,33.176,10.635,66.332,15.99,99.491c0.484,2.979,0.744,6.019,1.496,8.938c0.62,2.398-0.365,2.535-2.262,2.51
		c-5.597-0.082-11.202-0.147-16.795,0.03c-2.164,0.072-2.881-0.712-3.152-2.702c-0.885-6.66-1.971-13.294-2.813-19.961
		c-0.229-1.823-0.814-2.431-2.685-2.422c-13.549,0.074-27.101,0.082-40.649-0.008c-1.803-0.011-2.494,0.807-3.235,2.196
		c-3.656,6.798-7.469,13.508-11.079,20.331c-0.948,1.799-1.944,2.614-4.08,2.563C495.63,115.764,488.69,115.86,481.162,115.86z
		 M554.501,27.309c-0.24-0.03-0.48-0.058-0.72-0.077c-7.778,14.216-15.548,28.439-23.364,42.636
		c-1.323,2.407,0.377,2.01,1.689,2.013c8.733,0.008,17.47-0.082,26.204,0.063c2.42,0.038,2.788-0.792,2.438-2.917
		c-0.948-5.744-1.736-11.516-2.602-17.273C556.938,43.606,555.718,35.454,554.501,27.309z"/>
	<path fill="#673503" d="M779.084,2.377c13.658,0,27.319,0.063,40.98-0.052c2.794-0.021,4.081,0.172,3.089,3.568
		c-1.253,4.279-1.988,8.731-2.66,13.15c-0.311,2.042-1.141,2.489-3.044,2.47c-9.066-0.09-18.141,0.06-27.207-0.104
		c-2.42-0.041-3.172,0.753-3.647,3.05c-6.087,29.48-12.316,58.924-18.404,88.394c-0.469,2.26-1.108,3.16-3.588,3.069
		c-5.926-0.213-11.867-0.147-17.797-0.027c-2.138,0.044-2.563-0.366-2.091-2.604c6.281-29.667,12.384-59.372,18.706-89.022
		c0.599-2.817-0.345-2.855-2.505-2.836c-9.07,0.082-18.14-0.027-27.209,0.076c-2.339,0.027-3.178-0.345-2.506-2.965
		c1.112-4.326,1.991-8.74,2.604-13.167c0.367-2.659,1.613-3.078,3.971-3.061C751.541,2.426,765.313,2.377,779.084,2.377z"/>
	<path fill="#673502" d="M393.564,115.454c3.667-17.582,7.333-35.209,11.014-52.828c3.953-18.939,7.97-37.867,11.82-56.833
		c0.544-2.669,1.479-3.639,4.315-3.493c5.47,0.273,10.973,0.251,16.446,0.011c2.979-0.129,3.222,0.947,2.691,3.444
		c-5.315,25.058-10.561,50.122-15.827,75.191c-0.896,4.264-1.705,8.557-2.715,12.798c-0.544,2.314-0.377,3.267,2.516,3.239
		c17.12-0.156,34.245-0.019,51.373-0.132c2.757-0.019,3.396,0.521,2.631,3.322c-1.23,4.523-2.034,9.173-2.885,13.789
		c-0.249,1.344-0.684,1.925-2.118,1.922c-26.193-0.047-52.381-0.049-78.573-0.065C394.062,115.813,393.872,115.621,393.564,115.454z
		"/>
	<path fill="#673502" d="M347.895,115.854c5.525-26.4,10.971-52.453,16.421-78.51c2.246-10.733,4.553-21.45,6.69-32.202
		c0.431-2.174,1.241-2.886,3.482-2.82c5.929,0.172,11.868,0.134,17.797,0.016c2.089-0.041,2.603,0.293,2.116,2.577
		c-6.273,29.661-12.426,59.346-18.617,89.024c-1.367,6.571-2.75,13.137-4.155,19.703c-0.219,1-0.039,2.253-1.788,2.239
		C362.587,115.813,355.327,115.854,347.895,115.854z"/>
	<path fill="#070B0B" d="M619.112,152.063c6.264,0,12.536-0.041,18.802,0.011c4.719,0.033,6.607,2.145,6.648,7.236
		c0.044,5.173-2.031,7.631-6.688,7.649c-10.744,0.061-21.487,0.061-32.231-0.019c-2.063-0.014-3.187,0.109-3.203,2.758
		c-0.017,2.732,1.014,3.053,3.327,3.025c10.855-0.104,21.712-0.058,32.567-0.038c5.173,0.011,6.23,1.272,6.225,7.198
		c-0.005,5.672-1.266,7.127-6.34,7.135c-10.744,0.02-21.487,0.014-32.23,0c-1.901-0.003-3.57-0.408-3.568,2.721
		c0,2.941,1.337,2.867,3.415,2.856c10.302-0.061,20.592,0.145,30.888-0.077c8.334-0.178,8.82,5.173,7.211,11.699
		c-0.533,2.173-2.625,3.319-4.979,3.319c-13.429-0.002-26.863,0.187-40.28-0.158c-7.227-0.188-12.873-6.452-13.002-13.762
		c-0.164-9.181-0.17-18.381-0.003-27.567c0.138-7.693,6.281-13.773,13.957-13.941c6.486-0.142,12.982-0.029,19.474-0.029
		C619.112,152.076,619.112,152.068,619.112,152.063z M618.712,205.339c6.377,0,12.761-0.052,19.139,0.022
		c3.113,0.032,4.429-1.379,4.458-4.483c0.044-5.421-0.39-5.972-5.846-5.982c-10.518-0.017-21.04,0-31.557-0.012
		c-1.553-0.002-3.236,0.183-4.167-1.491c-2.324-4.181,0.233-8.676,4.962-8.688c10.855-0.027,21.711,0.006,32.567-0.019
		c3.84-0.011,4.019-0.291,4.014-5.085c-0.007-4.485-0.13-4.652-4.066-4.658c-11.079-0.016-22.155,0.006-33.235-0.011
		c-4.272-0.005-4.582-0.396-4.574-5.374c0.01-4.358,0.338-4.727,4.492-4.732c10.855-0.014,21.713,0.027,32.571-0.021
		c3.653-0.021,4.802-1.368,4.81-5.251c0.011-4.127-0.959-5.326-4.609-5.336c-12.426-0.039-24.848-0.104-37.27,0.023
		c-7.41,0.074-12.543,5.436-12.601,12.898c-0.058,8.404-0.058,16.805-0.002,25.21c0.054,7.855,5.203,12.921,13.127,12.973
		C606.845,205.372,612.778,205.339,618.712,205.339z"/>
	<path fill="#070B0B" d="M731.813,183.555c0.004,5.832,0.058,11.662-0.016,17.493c-0.061,4.674-2.087,6.323-7.468,6.32
		c-4.982-0.003-7.439-2.046-7.471-6.49c-0.068-9.867-0.092-19.732,0.031-29.601c0.032-2.278-0.457-3.168-2.901-3.006
		c-3.343,0.222-6.722,0.187-10.074,0.009c-2.116-0.113-2.628,0.599-2.608,2.644c0.101,10.205,0.061,20.407,0.043,30.611
		c-0.01,4.395-1.419,5.786-5.805,5.833c-1.118,0.011-2.238,0.03-3.355-0.006c-3.557-0.116-5.039-1.58-5.053-5.203
		c-0.04-10.092-0.153-20.182,0.065-30.273c0.063-3.095-0.916-3.892-3.784-3.608c-2.441,0.24-4.949,0.268-7.379-0.006
		c-2.965-0.318-3.46,0.93-3.42,3.589c0.159,9.192-0.16,18.397,0.125,27.581c0.265,8.481-4.447,8.815-11.463,7.422
		c-2.371-0.468-3.553-2.684-3.558-5.158c-0.035-12.107-0.184-24.226,0.063-36.325c0.153-7.156,6.147-12.76,13.711-13.117
		c5.585-0.266,11.257-0.557,16.771,0.117c3.772,0.466,7.213,0.562,11.031,0.052c6.159-0.825,12.524-0.442,18.78-0.164
		c8.1,0.366,13.604,6.344,13.71,14.462C731.875,172.344,731.813,177.948,731.813,183.555z M729.591,183.35
		c0-5.156,0.005-10.312,0-15.468c-0.011-8.566-4.558-13.276-13.173-13.459c-5.26-0.113-10.52-0.041-15.784-0.014
		c-2.171,0.008-4.31,0.26-5.654,2.277c-0.63,0.947-1.02,0.876-1.656,0.052c-1.447-1.883-3.597-2.245-5.728-2.28
		c-5.145-0.096-10.307-0.235-15.443,0.021c-7.773,0.398-12.194,5.24-12.228,13.094c-0.041,10.76-0.024,21.521-0.005,32.283
		c0.011,4.505,0.968,5.391,5.638,5.369c4.246-0.024,4.884-0.673,4.892-5.224c0.016-9.755-0.003-19.501,0.011-29.256
		c0.003-4.041,0.477-4.527,4.367-4.558c3.354-0.024,6.713-0.024,10.076,0c3.946,0.035,4.354,0.435,4.361,4.536
		c0.021,9.98,0.002,19.948,0.014,29.924c0.002,4.355,0.255,4.577,4.924,4.58c4.701,0,4.996-0.26,5.001-4.528
		c0.011-10.199,0.076-20.398-0.045-30.595c-0.039-2.946,1.085-4.042,3.94-3.944c3.686,0.123,7.385,0.021,11.076,0.027
		c4.638,0.017,4.864,0.24,4.87,5.004c0.008,9.756-0.044,19.503,0.03,29.256c0.023,3.734,1.452,4.842,5.652,4.785
		c3.762-0.055,4.839-1.07,4.858-4.73C729.613,194.783,729.591,189.065,729.591,183.35z"/>
	<path fill="#070B0B" d="M334.67,207.592c-6.042,0-12.085,0.017-18.131-0.002c-5.73-0.02-7.642-1.838-7.669-7.231
		c-0.031-5.688,2.462-8.408,7.946-8.441c9.735-0.062,19.472,0.009,29.208-0.056c0.998-0.006,2.589,0.811,2.687-1.382
		c0.082-1.77-0.299-2.579-2.341-2.535c-6.707,0.123-13.425,0.038-20.136,0.047c-2.695,0.002-5.365-0.148-7.97-0.923
		c-6.356-1.893-9.356-5.898-9.389-12.563c-0.011-2.691-0.06-5.381,0.016-8.068c0.217-8.013,6.343-14.252,14.346-14.329
		c12.532-0.117,25.066-0.057,37.599-0.035c4.637,0.006,6.852,1.961,7.091,6.155c0.348,5.999-1.554,8.934-6.526,9.353
		c-3.666,0.314-7.377,0.146-11.069,0.153c-6.379,0.017-12.759,0.047-19.136-0.024c-1.623-0.021-2.416,0.279-2.436,2.166
		c-0.02,1.946,1.052,1.802,2.334,1.799c7.723-0.02,15.448-0.02,23.164-0.006c6.915,0.014,12.646,4.676,13.461,11.514
		c0.462,3.858,0.437,7.869-0.056,11.727c-0.946,7.465-6.621,12.409-14.2,12.623c-6.261,0.178-12.533,0.041-18.795,0.041
		C334.67,207.576,334.67,207.584,334.67,207.592z M334.409,205.339c0-0.003,0-0.005,0-0.017c6.378,0,12.766,0.085,19.144-0.021
		c6.466-0.11,11.491-4.891,11.94-11.324c0.206-3.007,0.177-6.049,0.081-9.068c-0.202-6.554-4.846-11.019-11.443-11.043
		c-7.727-0.033-15.454-0.096-23.17,0.038c-3.054,0.055-4.551-0.833-4.54-4.164c0.012-3.28,1.4-4.261,4.503-4.211
		c9.175,0.131,18.359,0.032,27.537,0.057c1.697,0.006,3.369-0.065,4.912-0.841c3.399-1.695,2.179-4.821,2.069-7.45
		c-0.099-2.343-1.93-3.076-4.056-3.08c-12.653-0.002-25.299-0.109-37.947,0.05c-7.06,0.087-12.076,5.322-12.374,12.475
		c-0.109,2.574-0.045,5.155-0.022,7.732c0.05,5.643,2.332,8.756,7.692,10.385c2.259,0.684,4.58,0.964,6.955,0.948
		c7.164-0.044,14.33,0.049,21.492-0.044c2.735-0.033,3.843,1.152,3.875,3.811c0.054,3.719-0.666,4.619-4.387,4.636
		c-9.401,0.041-18.807,0.011-28.211,0.017c-1.005,0-2.023-0.047-3.018,0.085c-3.399,0.448-4.611,2.311-4.399,6.611
		c0.168,3.33,1.313,4.388,4.9,4.403C322.095,205.359,328.251,205.339,334.409,205.339z"/>
	<path fill="#070B0B" d="M476.214,152.063c6.045,0,12.087-0.017,18.14,0.003c5.058,0.008,7.188,1.826,7.447,6.081
		c0.372,6.133-0.582,8.818-7.063,9.416c-5.998,0.552-12.078,0.158-18.129,0.169c-3.915,0.009-7.84,0.058-11.755-0.032
		c-1.553-0.036-2.135,0.374-2.168,2.045c-0.038,1.783,0.738,1.952,2.188,1.944c7.948-0.061,15.896-0.058,23.849-0.021
		c6.954,0.032,12.832,5.743,13.043,12.692c0.09,3.025,0.082,6.057-0.006,9.08c-0.209,7.419-5.842,13.769-13.234,13.953
		c-13.313,0.331-26.646,0.216-39.96,0.115c-4.109-0.033-5.858-2.635-5.813-7.747c0.047-4.813,2.602-7.729,7.263-7.827
		c6.714-0.144,13.437-0.041,20.149-0.041c3.474-0.005,6.94-0.048,10.416,0.022c1.438,0.024,2.259-0.188,2.207-1.967
		c-0.05-1.758-0.893-1.99-2.321-1.982c-6.492,0.039-12.991,0.03-19.483,0.006c-1.791-0.006-3.604,0.041-5.361-0.226
		c-7.255-1.09-13.454-4.556-12.88-14.476c0.17-2.901-0.092-5.855,0.323-8.709c1.089-7.426,6.85-12.321,14.342-12.494
		c0.221-0.005,0.445-0.01,0.67-0.01C464.125,152.063,470.167,152.063,476.214,152.063z M468.511,205.339c5.93,0,11.863,0,17.792,0
		c0.225,0,0.448,0.003,0.673-0.003c7.243-0.146,12.401-5.207,12.642-12.494c0.081-2.467,0.06-4.936,0.012-7.403
		c-0.127-6.814-4.891-11.552-11.68-11.579c-7.726-0.027-15.449-0.117-23.165,0.052c-3.23,0.063-4.343-1.111-4.308-4.312
		c0.038-3.097,1.214-4.118,4.228-4.071c9.286,0.125,18.58,0.029,27.868,0.057c1.704,0.006,3.355-0.142,4.889-0.931
		c3.191-1.641,2.226-4.624,2.047-7.165c-0.17-2.391-1.985-3.291-4.299-3.285c-12.649,0.016-25.296-0.107-37.94,0.057
		c-6.979,0.094-11.899,5.254-12.135,12.245c-0.099,3.022,0.014,6.054-0.035,9.079c-0.063,4.08,1.979,6.768,5.516,8.436
		c2.669,1.259,5.519,1.767,8.466,1.761c7.163-0.014,14.324,0.093,21.489-0.044c3.14-0.062,4.413,1.03,4.438,4.274
		c0.03,3.37-1.534,4.266-4.518,4.229c-7.167-0.084-14.328-0.032-21.491-0.029c-3.022,0-6.053-0.115-9.063,0.049
		c-3.836,0.194-5.041,2.01-4.831,6.803c0.153,3.451,1.044,4.248,4.938,4.268C456.198,205.356,462.357,205.339,468.511,205.339z"/>
	<path fill="#070B0B" d="M779.737,152.066c6.046-0.003,12.089-0.017,18.137-0.003c5.405,0.009,7.525,1.849,7.632,6.59
		c0.139,6.297-1.922,8.91-7.562,9.024c-7.499,0.156-14.998,0.055-22.497,0.061c-2.243,0.003-4.487,0.099-6.714-0.035
		c-1.72-0.096-2.306,0.415-2.338,2.223c-0.041,2.043,1.151,1.742,2.371,1.739c7.837-0.003,15.674-0.022,23.507,0.005
		c7.135,0.03,13.007,5.738,13.224,12.891c0.082,2.91,0.08,5.829-0.006,8.737c-0.232,7.745-6.007,14.001-13.774,14.17
		c-13.093,0.271-26.191,0.169-39.285,0.06c-4.307-0.035-6.037-2.582-5.975-7.913c0.061-4.737,2.682-7.625,7.406-7.674
		c9.398-0.108,18.808-0.033,28.206-0.036c0.784,0,1.572-0.053,2.352,0.012c1.32,0.09,2.072-0.185,2.028-1.803
		c-0.046-1.561-0.536-2.16-2.154-2.148c-6.94,0.057-13.879,0.005-20.822,0.027c-3.738,0.011-7.361-0.475-10.72-2.231
		c-3.384-1.772-5.705-4.483-6.077-8.316c-0.427-4.452-0.659-8.972,0.153-13.4c1.302-7.104,6.942-11.847,14.12-11.956
		C767.202,151.994,773.47,152.072,779.737,152.066z M772.033,205.339c5.935,0,11.865,0,17.794,0c0.223,0,0.447,0.003,0.672-0.003
		c6.937-0.107,12.016-4.502,12.688-11.346c0.328-3.331,0.341-6.736,0.027-10.071c-0.555-5.89-5.429-10.037-11.424-10.06
		c-7.722-0.027-15.449-0.101-23.163,0.044c-3.068,0.058-4.504-0.794-4.487-4.15c0.024-3.264,1.282-4.282,4.433-4.23
		c9.171,0.145,18.356,0.035,27.532,0.058c1.694,0.005,3.357-0.093,4.903-0.86c3.374-1.679,2.381-4.765,2.146-7.42
		c-0.201-2.226-1.939-3.094-4.109-3.094c-12.762,0.008-25.521-0.129-38.278,0.063c-6.79,0.107-11.639,5.235-11.952,12.089
		c-0.137,3.021-0.004,6.052-0.053,9.077c-0.07,4.369,2.149,7.177,5.996,8.815c2.602,1.111,5.347,1.551,8.188,1.54
		c7.049-0.03,14.099,0.073,21.152-0.044c2.983-0.059,4.706,0.716,4.581,4.112c-0.144,3.671-0.668,4.337-4.676,4.351
		c-8.619,0.035-17.237,0.005-25.856,0.014c-1.676,0-3.371-0.093-5.031,0.087c-3.471,0.392-4.556,2.316-4.37,6.937
		c0.134,3.23,1.868,4.164,4.824,4.123C759.721,205.271,765.879,205.339,772.033,205.339z"/>
	<path fill="#070B0B" d="M896.784,152.063c6.267,0,12.54-0.032,18.818,0.009c4.902,0.027,6.813,2.143,6.815,7.408
		c0,5.082-2.124,7.469-6.851,7.488c-10.752,0.044-21.506,0.087-32.258-0.044c-2.41-0.035-3.005,0.739-2.962,3.036
		c0.143,6.608,0.141,13.233,0,19.848c-0.046,2.164,0.514,2.848,2.762,2.82c10.416-0.123,20.831,0.061,31.244-0.093
		c8.194-0.123,8.959,4.138,7.64,11.155c-0.482,2.56-2.664,3.853-5.281,3.855c-13.329,0.021-26.66,0.191-39.976-0.143
		c-7.507-0.182-13.18-6.504-13.333-14.246c-0.175-8.853-0.175-17.715-0.006-26.575c0.159-8.397,6.448-14.419,14.905-14.506
		C884.466,152.011,890.624,152.066,896.784,152.063z M896.396,205.342c6.385,0,12.77,0.024,19.151-0.008
		c3.465-0.025,4.572-1.154,4.7-4.617c0.184-4.976-0.629-5.876-5.727-5.898c-10.636-0.049-21.278,0.003-31.911-0.03
		c-3.851-0.008-4.453-0.637-4.467-4.536c-0.021-6.723-0.01-13.457-0.005-20.18c0.003-4.895,0.328-5.232,5.086-5.234
		c10.64-0.006,21.278,0.021,31.916-0.017c3.824-0.014,5.119-1.459,5.102-5.41c-0.016-3.913-1.143-5.186-4.856-5.197
		c-12.315-0.032-24.64-0.064-36.954,0.012c-6.987,0.043-12.302,4.527-12.598,11.382c-0.407,9.399-0.421,18.84-0.041,28.23
		c0.279,6.952,5.523,11.407,12.46,11.482C884.301,205.391,890.35,205.339,896.396,205.342z"/>
	<path fill="#070B0B" d="M405.315,152.06c6.494,0.006,12.994-0.027,19.485,0.014c4.195,0.025,5.811,1.686,5.909,5.904
		c0.217,9.179-0.341,9.754-9.45,9.754c-7.59,0-7.59,0-7.59,7.628c0,4.71,0.09,9.423-0.046,14.126
		c-0.058,1.928,0.54,2.481,2.422,2.394c3.128-0.148,6.27-0.11,9.401-0.018c3.357,0.1,5.061,1.876,5.249,5.25
		c0.536,9.528-0.35,10.48-9.77,10.48c-11.31,0-22.621,0.014-33.931-0.008c-5.231-0.011-6.757-1.58-6.784-6.837
		c-0.006-1.229-0.063-2.473,0.023-3.693c0.239-3.322,2.046-5.101,5.388-5.195c3.24-0.087,6.491-0.09,9.739,0.009
		c1.557,0.05,2.154-0.367,2.131-2.042c-0.086-6.728-0.068-13.455-0.011-20.182c0.011-1.477-0.506-1.964-1.95-1.928
		c-3.242,0.073-6.49,0.07-9.739,0.008c-3.606-0.074-5.327-1.771-5.567-5.314c-0.017-0.221-0.003-0.449-0.009-0.674
		c-0.233-8.791,0.61-9.668,9.308-9.668C394.789,152.06,400.053,152.06,405.315,152.06z M405.338,205.342c5.371,0,10.746,0,16.116,0
		c7.214,0,7.104,0,7.109-7.231c0-3.146-1.405-4.179-4.287-4.106c-3.357,0.076-6.719-0.063-10.074,0.049
		c-1.897,0.063-2.821-0.299-2.782-2.525c0.126-7.841,0.104-15.688,0.011-23.533c-0.028-1.905,0.558-2.532,2.46-2.458
		c3.463,0.134,6.94-0.063,10.407,0.063c2.965,0.109,4.485-0.991,4.227-4.099c-0.06-0.772-0.008-1.567-0.01-2.352
		c-0.014-4.499-0.445-4.939-5.039-4.942c-11.192-0.006-22.387-0.002-33.579-0.002c-7.571,0-7.654,0.158-7.368,7.701
		c0.105,2.746,1.339,3.762,3.984,3.683c3.579-0.099,7.172,0.082,10.742-0.063c1.963-0.085,2.445,0.609,2.401,2.478
		c-0.109,5.265,0.049,10.536-0.065,15.802c-0.071,3.326,1.465,7.748-0.651,9.646c-1.832,1.644-6.163,0.534-9.393,0.557
		c-7.132,0.035-7.14,0.104-7.024,7.411c0.044,2.851,1.111,4.017,4.021,3.957C392.798,205.247,399.065,205.339,405.338,205.342z"/>
	<path fill="#070B0B" d="M973.398,182.844c-0.002-5.827-0.065-11.657,0.017-17.485c0.108-7.648,5.833-13.762,13.467-13.951
		c9.507-0.229,19.036-0.238,28.542,0.006c7.508,0.193,13.24,6.154,13.336,13.71c0.153,12.102,0.092,24.215,0.029,36.314
		c-0.027,4.322-2.157,6.089-6.984,6.154c-5.099,0.066-7.732-1.881-7.91-6.072c-0.133-3.023-0.119-6.057,0.004-9.08
		c0.059-1.63-0.474-2.078-2.073-2.056c-7.167,0.076-14.328,0.076-21.493,0c-1.612-0.022-2.127,0.445-2.061,2.064
		c0.117,3.022,0.09,6.054,0.008,9.079c-0.115,4.148-1.873,5.893-5.961,6.054c-1.115,0.044-2.242,0.055-3.353-0.044
		c-3.57-0.291-5.49-2.247-5.537-5.867C973.347,195.4,973.398,189.121,973.398,182.844z M1026.602,182.986c0-5.603,0-11.204,0-16.803
		c0-0.113,0-0.223,0-0.332c-0.085-6.979-4.995-12.212-11.929-12.326c-9.055-0.146-18.125-0.146-27.181,0
		c-6.793,0.109-11.87,5.27-11.92,12.015c-0.09,11.762-0.049,23.525-0.016,35.284c0.008,3.47,1.104,4.447,4.713,4.513
		c4.824,0.085,5.74-0.528,5.847-4.274c0.099-3.469,0.112-6.948-0.009-10.416c-0.062-1.873,0.517-2.529,2.448-2.513
		c8.276,0.091,16.557,0.091,24.834,0c1.986-0.021,2.808,0.506,2.708,2.625c-0.148,3.353-0.113,6.717-0.012,10.079
		c0.108,3.574,1.502,4.581,5.87,4.499c3.622-0.065,4.615-0.999,4.634-4.543C1026.626,194.86,1026.602,188.925,1026.602,182.986z"/>
	<path fill="#070B0B" d="M544.113,152.06c7.614,0,15.225-0.021,22.837,0.012c4.441,0.016,6.055,1.641,6.126,6.021
		c0.141,9.156-0.342,9.64-9.56,9.64c-2.688,0-5.391,0.156-8.059-0.049c-2.509-0.184-3.429,0.416-3.374,3.212
		c0.188,10.199,0.084,20.396,0.068,30.603c-0.005,4.58-1.43,6.011-5.967,6.095c-9.996,0.176-10.213-0.032-10.213-9.903
		c0-9.08-0.076-18.16,0.058-27.237c0.029-2.245-0.64-2.851-2.813-2.769c-4.247,0.17-8.507,0.104-12.761,0.033
		c-3.612-0.061-5.338-1.764-5.399-5.361c-0.125-8.115-0.877-10.742,9.913-10.342C531.344,152.257,537.737,152.06,544.113,152.06z
		 M544.089,154.209c-6.599,0-13.202,0-19.801,0c-7.227,0-7.131,0-7.117,7.288c0.006,3.092,1.293,4.187,4.258,4.107
		c4.586-0.123,9.177,0.099,13.754-0.079c2.33-0.093,3.029,0.533,2.991,2.94c-0.14,9.854-0.06,19.711-0.06,29.567
		c0,7.342,0,7.342,7.237,7.314c4.337-0.025,4.638-0.3,4.644-4.541c0.013-10.751,0.065-21.507-0.05-32.256
		c-0.024-2.277,0.473-3.138,2.909-3.028c4.471,0.194,8.944,0.063,13.424,0.052c4.076-0.014,4.606-0.562,4.636-4.677
		c0.006-0.782-0.059-1.571,0.012-2.352c0.271-3.203-1.228-4.408-4.366-4.364C559.081,154.282,551.584,154.209,544.089,154.209z"/>
	<path fill="#070B0B" d="M938.544,200.073c0.049-4.205,3.578-7.644,7.759-7.54c4.024,0.096,7.414,3.536,7.466,7.563
		c0.052,4.136-3.514,7.743-7.64,7.735C941.967,207.817,938.494,204.269,938.544,200.073z M946.211,194.729
		c-2.823-0.05-5.384,2.402-5.502,5.262c-0.123,3.013,2.394,5.526,5.498,5.494c3.015-0.03,5.248-2.307,5.242-5.331
		C951.443,197.183,949.117,194.773,946.211,194.729z"/>
	<path fill="#070B0B" d="M1062.276,200.195c-0.01,4.241-3.488,7.704-7.659,7.63c-4.193-0.073-7.538-3.601-7.442-7.85
		c0.09-4.102,3.429-7.417,7.498-7.442C1058.889,192.503,1062.288,195.928,1062.276,200.195z M1060.133,200.31
		c0.079-2.837-2.334-5.437-5.171-5.57c-2.883-0.14-5.414,2.177-5.569,5.104c-0.173,3.157,2.124,5.608,5.274,5.639
		C1057.64,205.512,1060.054,203.234,1060.133,200.31z"/>
	<path fill="#C79431" d="M91.413,157.169c-2.503,0.835-4.771,2.29-7.283,3.021c-2.356,0.688-2.827,2.555-3.57,4.373
		c-0.158,0.388,0.058,0.597,0.237,0.854c1.959,2.822,3.951,5.625,5.854,8.483c0.722,1.085,1.773,1.707,2.777,2.412
		c1.569,1.104,3.19,2.129,4.768,3.224c0.543,0.378,0.965,0.473,1.61,0.112c1.404-0.777,2.926-0.436,3.89,0.729
		c0.995,1.2,1.041,2.722,0.122,3.971c-0.799,1.086-2.369,1.523-3.662,1.021c-1.428-0.558-2.273-1.896-1.999-3.437
		c0.109-0.608-0.074-0.85-0.517-1.144c-1.897-1.264-3.781-2.542-5.655-3.837c-0.548-0.38-0.895-0.386-1.172,0.307
		c-0.373,0.925-0.781,1.841-1.247,2.723c-0.349,0.658,0.076,1.031,0.37,1.496c0.946,1.5,0.731,3.112-0.539,4.206
		c-1.196,1.03-2.839,1.073-4.065,0.044c-0.999-0.84-1.404-1.945-1.07-3.225c0.373-1.432,1.407-2.263,2.826-2.397
		c0.821-0.078,1.056-0.486,1.466-1.078c1.685-2.426,1.425-4.491-0.545-6.688c-1.51-1.684-2.652-3.694-3.964-5.557
		c-0.041-0.06-0.134-0.077-0.26-0.146c-0.536,0.969-1.025,1.753-0.092,2.933c1.193,1.51,0.513,3.664-1.144,4.495
		c-1.709,0.858-3.675,0.144-4.388-1.598c-0.738-1.804,0.149-3.873,2.103-4.193c1.404-0.229,1.786-1.024,2.188-2.097
		c0.601-1.597,1.27-3.167,1.934-4.807c-0.861-0.1-1.611-0.16-2.354-0.274c-0.678-0.104-0.757,0.474-1.013,0.836
		c-1.055,1.491-2.917,1.86-4.419,0.857c-1.455-0.972-1.816-2.959-0.81-4.449c1.337-1.979,4.411-1.764,5.41,0.456
		c0.383,0.852,0.888,0.928,1.688,1.083c2.775,0.54,4.898-1.069,7.226-1.993c1.632-0.648,3.204-1.448,4.835-2.099
		c0.734-0.292,1.056-0.767,1.168-1.491c0.313-2.009,0.634-4.018,0.965-6.022c0.106-0.644,0-1.021-0.787-0.855
		c-0.505,0.104-1.028,0.203-1.541,0.187c-2.422-0.081-3.393,1.96-4.858,3.274c-0.331,0.297-0.036,0.588,0.059,0.873
		c0.547,1.656-0.137,3.359-1.625,4.042c-1.475,0.676-3.341,0.037-4.138-1.415c-0.751-1.369-0.274-3.176,1.065-4.146
		c0.704-0.511,1.551-0.692,2.279-0.424c1.058,0.395,1.652-0.03,2.249-0.756c0.297-0.361,0.638-0.686,1.036-1.108
		c-2.483-0.464-4.883-0.232-7.236-0.566c-0.597-0.084-0.692,0.388-0.923,0.751c-0.833,1.313-2.222,1.852-3.604,1.424
		c-1.442-0.446-2.37-1.688-2.33-3.118c0.04-1.43,1.005-2.585,2.5-2.983c1.415-0.382,2.923,0.288,3.541,1.742
		c0.312,0.732,0.744,0.925,1.445,0.947c2.436,0.083,4.869,0.204,7.305,0.304c1.846,0.074,3.661-0.209,5.478-0.479
		c0.379-0.056,0.665-0.164,0.871-0.523c1.982-3.456,3.979-6.901,5.889-10.441c-2.489,0.96-5.325,1.204-6.92,3.793
		c-0.269,0.437-0.46,0.716-0.252,1.27c0.718,1.91-0.193,3.711-2.076,4.265c-1.67,0.486-3.455-0.56-3.885-2.276
		c-0.462-1.854,0.603-3.528,2.521-3.932c0.304-0.063,0.692-0.143,0.936-0.012c1.078,0.579,1.696,0.072,2.248-0.796
		c1.063-1.674,2.791-2.422,4.578-2.801c3.133-0.666,4.809-2.384,5.282-5.603c0.311-2.112,1.122-4.154,1.775-6.207
		c0.101-0.313-0.116-1.158,0.758-0.851c0.68,0.241,0.707,0.704,0.513,1.348c-0.84,2.787-1.701,5.572-2.423,8.395
		c-0.873,3.407-3.088,6.102-4.662,9.134c-0.901,1.735-1.922,3.411-2.938,5.086c-0.347,0.572-0.374,1.078-0.129,1.683
		c0.374,0.925,0.618,1.905,1.042,2.806c1.081,2.287,1.262,4.723,1.029,7.151c-0.351,3.681,0.636,6.71,3.054,9.603
		c2.964,3.546,5.489,7.464,8.133,11.271c0.526,0.757,1.11,0.721,1.841,0.699c1.63-0.045,2.748,0.812,3.176,2.354
		c0.37,1.336-0.21,2.717-1.462,3.479c-1.125,0.688-2.699,0.565-3.697-0.284c-1.009-0.861-1.492-2.384-0.844-3.58
		c0.509-0.942,0.217-1.5-0.31-2.227c-3.143-4.331-6.25-8.688-9.599-13.354c0,1.457-0.017,2.57,0.009,3.687
		c0.009,0.402,0.436,0.419,0.7,0.564c1.4,0.771,2.086,2.104,1.763,3.443c-0.374,1.555-1.534,2.535-3.043,2.576
		c-1.548,0.043-2.734-0.861-3.153-2.41c-0.381-1.401,0.236-2.78,1.704-3.58c0.474-0.257,0.605-0.549,0.596-1.032
		c-0.099-4.996-0.136-9.993-0.303-14.986c-0.046-1.349-0.798-2.567-1.333-4.046c-0.549,1.258-0.537,2.411-0.729,3.505
		c-0.56,3.221-0.999,6.462-1.563,9.682c-0.119,0.683,0.063,0.97,0.576,1.35c1.202,0.891,1.582,2.568,0.989,3.89
		c-0.547,1.215-2.064,2.04-3.354,1.822c-1.419-0.24-2.535-1.414-2.696-2.836c-0.165-1.459,0.679-2.816,2.188-3.323
		c0.624-0.208,0.886-0.478,0.958-1.146c0.193-1.78,0.72-3.52,0.729-5.327c0.024-0.054,0.05-0.104,0.076-0.153
		C91.511,157.115,91.462,157.143,91.413,157.169z M89.735,142.806c0.915-0.017,1.526-0.688,1.48-1.64
		c-0.047-0.979-0.642-1.421-1.542-1.473c-0.883-0.049-1.599,0.706-1.579,1.583C88.114,142.168,88.817,142.823,89.735,142.806z
		 M84.517,152.976c0.02-0.946-0.616-1.662-1.489-1.676c-0.833-0.015-1.673,0.767-1.619,1.586c0.061,0.904,0.592,1.481,1.488,1.6
		C83.78,154.602,84.498,153.888,84.517,152.976z M75.951,148.083c0.889-0.013,1.616-0.737,1.544-1.614
		c-0.074-0.917-0.6-1.455-1.533-1.502c-0.91-0.045-1.582,0.638-1.585,1.55C74.375,147.433,75.039,148.094,75.951,148.083z
		 M90.761,168.254c0.908-0.004,1.645-0.71,1.612-1.55c-0.031-0.818-0.85-1.646-1.632-1.566c-0.887,0.088-1.475,0.538-1.493,1.516
		C89.23,167.601,89.85,168.258,90.761,168.254z M83.301,184.816c0.928,0.012,1.649-0.662,1.633-1.519
		c-0.018-0.83-0.811-1.658-1.604-1.59c-0.883,0.076-1.489,0.503-1.515,1.488C81.791,184.161,82.379,184.808,83.301,184.816z
		 M98.394,172.363c-0.081-0.79-0.66-1.3-1.527-1.42c-0.819-0.11-1.615,0.716-1.598,1.582c0.019,0.959,0.542,1.47,1.492,1.514
		C97.683,174.081,98.38,173.416,98.394,172.363z M109.992,183.638c1.16,0.02,1.807-0.549,1.849-1.404
		c0.041-0.836-0.708-1.675-1.517-1.697c-0.804-0.024-1.623,0.782-1.596,1.612C108.758,183.108,109.299,183.585,109.992,183.638z
		 M76.823,172.797c1.022,0.032,1.912-0.739,1.841-1.538c-0.079-0.873-0.557-1.5-1.506-1.565c-0.909-0.063-1.59,0.624-1.588,1.55
		C75.572,172.201,76.086,172.694,76.823,172.797z M97.32,180.918c-0.914-0.009-1.534,0.557-1.569,1.435
		c-0.037,0.901,0.633,1.642,1.518,1.671c0.794,0.028,1.646-0.8,1.585-1.627C98.786,181.484,98.292,180.931,97.32,180.918z
		 M75.885,160.243c0.021-0.917-0.54-1.565-1.392-1.612c-0.843-0.046-1.743,0.687-1.697,1.494c0.051,0.874,0.508,1.521,1.452,1.618
		C75.146,161.835,75.865,161.146,75.885,160.243z"/>
	<path fill="#C79431" d="M102.311,144.404c-0.205,1.241-0.344,2.221-0.535,3.188c-0.135,0.683,0.37,0.874,0.77,1.194
		c1.381,1.104,1.602,3.104,0.52,4.503c-0.943,1.221-2.917,1.516-4.212,0.63c-1.49-1.021-1.877-2.938-0.895-4.438
		c0.338-0.517,0.779-0.982,1.372-1.104c1.008-0.207,1.215-0.849,1.244-1.734c0.14-4.299,2.055-8.073,3.625-11.937
		c1.295-3.188,2.275-6.476,3.351-9.731c0.116-0.352-0.09-1.229,0.807-0.948c0.793,0.249,0.668,0.841,0.47,1.468
		c-1.64,5.177-3.23,10.37-5.596,15.276c-0.477,0.987-0.474,1.771,0.14,2.756c1.351,2.168,2.576,4.418,3.752,6.688
		c0.821,1.584,2.172,2.645,3.414,3.816c1.278,1.205,2.618,2.347,3.925,3.521c0.613,0.552,1.861,0.602,2.462,0.108
		c0.278-0.229,0.099-0.42,0.006-0.619c-0.391-0.845-0.422-1.705-0.094-2.563c0.216-0.564-0.069-0.896-0.428-1.249
		c-1.792-1.771-3.548-3.579-5.367-5.319c-1.616-1.55-2.399-3.661-3.77-5.36c-1.13-1.402-1.147-2.704-0.48-4.36
		c1.521-3.771,2.813-7.641,4.218-11.462c0.14-0.378,0.063-1.082,0.829-0.872c0.744,0.202,0.689,0.688,0.467,1.303
		c-1.47,4.054-2.886,8.126-4.384,12.169c-0.296,0.798-0.271,1.384,0.221,2.079c0.808,1.14,1.542,2.335,2.25,3.537
		c0.392,0.666,0.813,0.83,1.571,0.585c1.479-0.479,2.986-0.882,4.5-1.229c0.639-0.147,0.946-0.429,1.107-1.054
		c0.445-1.723,1.829-2.741,3.391-2.574c1.542,0.166,2.796,1.5,2.871,3.054c0.075,1.566-1.083,2.985-2.742,3.293
		c-1.113,0.207-2.036-0.226-2.796-1.021c-0.31-0.325-0.577-0.667-1.107-0.519c-1.646,0.468-3.296,0.924-5.188,1.453
		c1.03,1.028,1.94,1.938,2.853,2.847c0.51,0.511,1.027,1.011,1.528,1.525c0.871,0.896,1.555,1.822,3.188,1.204
		c1.32-0.499,2.96,0.892,3.293,2.323c0.367,1.571-0.378,3.21-1.874,3.728c-0.834,0.289-1.196,0.421-0.816,1.452
		c0.498,1.354-0.117,2.742-1.21,3.482c-1.122,0.76-2.403,0.792-3.483,0.089c-1.198-0.781-1.729-2.068-1.379-3.547
		c0.109-0.466,0.189-0.817-0.216-1.181c-1.898-1.692-3.781-3.404-5.806-5.233c-0.176,2.394-0.341,4.6-0.498,6.807
		c-0.03,0.429,0.302,0.621,0.596,0.83c2.347,1.665,4.703,3.313,7.029,5.006c0.608,0.443,1.012,0.365,1.557-0.115
		c2.875-2.539,5.772-5.051,8.688-7.544c0.516-0.439,0.51-0.842,0.37-1.457c-0.345-1.51,0.423-2.964,1.757-3.583
		c1.287-0.598,2.812-0.227,3.789,0.922c0.846,0.994,0.939,2.618,0.211,3.691c-0.896,1.321-2.35,1.782-3.896,1.183
		c-0.438-0.17-0.767-0.289-1.187,0.084c-2.629,2.334-5.283,4.642-7.924,6.96c-0.173,0.152-0.397,0.285-0.4,0.742
		c1.47,0.117,2.952,0.287,4.44,0.327c0.59,0.017,0.643-0.743,0.996-1.105c1.055-1.088,2.714-1.41,3.938-0.695
		c1.289,0.751,1.92,2.344,1.476,3.72c-0.465,1.438-1.81,2.354-3.323,2.206c-1.256-0.124-2.159-0.809-2.656-1.962
		c-0.188-0.437-0.372-0.775-0.893-0.808c-0.278-0.02-0.555-0.069-0.833-0.09c-1.342-0.089-2.685-0.173-4.196-0.27
		c0.809,2.041,1.563,3.924,2.298,5.813c0.273,0.7,0.936,0.51,1.433,0.643c1.374,0.364,2.415,1.511,2.509,2.864
		c0.1,1.435-0.781,2.736-2.181,3.227c-1.331,0.465-2.729,0.006-3.598-1.181c-0.813-1.114-0.856-2.635,0.138-3.764
		c0.608-0.688,0.511-1.203,0.206-1.907c-0.587-1.355-1.201-2.709-1.641-4.115c-0.442-1.417-1.292-2.379-2.508-3.185
		c-2.062-1.359-4.045-2.84-6.13-4.315c-0.313,0.924-0.36,1.517,0.621,2.068c1.345,0.758,1.72,2.25,1.202,3.657
		c-0.502,1.37-1.86,2.244-3.275,2.106c-1.439-0.14-2.591-1.28-2.843-2.813c-0.208-1.265,0.604-2.713,1.88-3.294
		c0.398-0.182,0.819-0.246,0.851-0.839c0.138-2.628,0.312-5.255,0.309-7.962c-0.729,1.293-1.47,2.58-2.185,3.882
		c-0.272,0.498,0.187,0.8,0.381,1.173c0.627,1.194,0.664,2.391-0.172,3.49c-0.782,1.029-1.848,1.55-3.152,1.282
		c-1.325-0.273-2.188-1.11-2.523-2.438c-0.499-1.972,1.159-3.989,3.283-3.86c0.667,0.041,0.93-0.156,1.203-0.656
		c1.017-1.857,2.039-3.712,3.098-5.546c0.28-0.484,0.258-0.875-0.005-1.335C105.027,149.208,103.753,146.948,102.311,144.404z
		 M120.636,145.435c0.907-0.004,1.57-0.68,1.543-1.602c-0.029-0.948-0.535-1.475-1.481-1.519c-0.917-0.042-1.623,0.636-1.643,1.522
		C119.036,144.715,119.752,145.438,120.636,145.435z M127.398,156.376c-0.021,1.006,0.517,1.562,1.501,1.585
		c0.975,0.021,1.48-0.519,1.602-1.406c0.115-0.843-0.766-1.77-1.619-1.696C127.998,154.934,127.401,155.39,127.398,156.376z
		 M101.844,163.702c0.926,0.005,1.631-0.652,1.574-1.556c-0.058-0.909-0.604-1.461-1.502-1.556
		c-0.875-0.092-1.578,0.621-1.609,1.536C100.275,163.062,100.896,163.698,101.844,163.702z M108.026,167.148
		c-0.018-0.91-0.716-1.62-1.601-1.526c-0.896,0.093-1.448,0.643-1.515,1.548c-0.063,0.87,0.677,1.559,1.587,1.564
		C107.42,168.743,108.043,168.096,108.026,167.148z M125.941,169.957c0.909,0.021,1.696-0.673,1.631-1.523
		c-0.068-0.894-0.583-1.477-1.491-1.591c-0.785-0.099-1.673,0.724-1.707,1.513C124.336,169.234,125.021,169.936,125.941,169.957z
		 M117.328,162.474c0.786-0.09,1.313-0.646,1.412-1.531c0.095-0.841-0.713-1.61-1.59-1.588c-0.954,0.025-1.471,0.536-1.501,1.497
		C115.619,161.787,116.274,162.47,117.328,162.474z M121.717,178.054c-0.062-0.983-0.557-1.538-1.484-1.615
		c-0.813-0.066-1.626,0.756-1.647,1.584c-0.021,0.863,0.711,1.555,1.649,1.521C121.207,179.507,121.648,178.937,121.717,178.054z
		 M99.076,151.095c0.015,1.09,0.66,1.761,1.489,1.765c0.817,0.006,1.654-0.82,1.625-1.605c-0.032-0.869-0.79-1.568-1.681-1.508
		C99.548,149.81,99.108,150.383,99.076,151.095z M119.843,157.195c0.758-0.007,1.542-0.783,1.555-1.541
		c0.013-0.798-0.81-1.606-1.639-1.569c-0.955,0.042-1.446,0.579-1.473,1.525C118.261,156.547,118.917,157.203,119.843,157.195z"/>
	<path fill="#049A36" d="M100.465,85.423c0-0.119-0.01-0.239,0.001-0.356c0.098-1.073,0.864-2.069,1.685-1.963
		c0.97,0.127,0.94,1.078,0.982,1.765c0.064,1.044-0.517,1.612-1.619,1.526l0.017,0.021c-0.081-0.284-0.219-0.236-0.378-0.064
		C100.923,86.041,100.694,85.732,100.465,85.423z"/>
	<path fill="#C79431" d="M91.479,58.747c0.025-1.021,0.241-2,0.662-2.944c-0.093,0.985-0.186,1.971-0.276,2.956
		C91.736,58.754,91.608,58.751,91.479,58.747z"/>
	<path fill="#E4E5E4" d="M101.151,86.351c0.159-0.172,0.297-0.219,0.378,0.064C101.404,86.394,101.278,86.372,101.151,86.351z"/>
	<path fill="#049A36" d="M139.379,63.107c-0.001,2.857-1.421,4.701-3.709,4.871c-1.184,0.088-2.089-0.38-2.831-1.248
		c-0.623-0.729-1.232-1.469-2.188-1.787c-0.308-0.102-0.402-0.381-0.503-0.631c-0.948-2.335-0.965-4.671,0.162-6.939
		c1.258-2.532,4.053-3.021,6.206-1.142C138.188,57.694,139.38,60.556,139.379,63.107z"/>
	<path fill="#049A36" d="M96.875,44.819c0.09-3.725,2.651-7.006,6.067-7.953c1.979-0.55,3.17,0.285,3.15,2.328
		c-0.029,3.147-1.319,5.802-3.49,8.016c-1.104,1.125-2.489,1.686-4.029,0.974C97.092,47.498,96.878,46.088,96.875,44.819z"/>
	<path fill="#049A36" d="M116.527,42.025c-2.516-0.133-4.848-0.874-7.039-2.107c-0.554-0.313-0.76-0.713-0.756-1.354
		c0.018-3.393,2.449-5.338,5.743-4.513c2.519,0.631,4.199,2.22,5.025,4.676c0.681,2.022-0.134,3.188-2.255,3.295
		C117.007,42.036,116.767,42.025,116.527,42.025z"/>
	<path fill="#049A36" d="M95.342,37.53c-0.048,2.747-1.821,5.266-4.339,6.157c-1.683,0.599-3.032-0.047-3.598-1.714
		c-1.011-2.986,0.878-7.117,3.799-8.308c1.577-0.646,2.908-0.121,3.674,1.427C95.261,35.865,95.355,36.685,95.342,37.53z"/>
	<path fill="#049A36" d="M116.619,47.569c0.019,2.252-1.597,3.755-4.051,3.77c-2.589,0.015-4.904-2.054-4.943-4.419
		c-0.036-2.115,2.411-4.591,4.57-4.625C114.412,42.258,116.597,44.865,116.619,47.569z"/>
	<path fill="#049A36" d="M79.529,52.581c1.277,0.078,2.494,0.264,3.516,1.061c1.2,0.937,1.345,2.279,0.396,3.455
		c-1.506,1.869-5.334,3.089-7.629,2.394c-1.297-0.395-2.321-1.159-2.527-2.582c-0.194-1.343,0.581-2.271,1.63-2.972
		C76.316,53,77.907,52.683,79.529,52.581z"/>
	<path fill="#049A36" d="M134.955,50.55c0,0.813-0.124,1.592-0.55,2.302c-0.921,1.532-2.651,1.909-4.121,0.896
		c-1.871-1.292-3.303-4.916-2.823-7.146s3.178-3.152,5.003-1.655C134.213,46.381,134.896,48.341,134.955,50.55z"/>
	<path fill="#049A36" d="M122.396,40.081c0.002-2.644,1.273-4.262,3.063-4.315c2.055-0.063,4.204,1.985,4.379,4.171
		c0.146,1.83-1.115,4.021-2.787,4.823c-1.026,0.493-1.958,0.278-2.759-0.467C122.955,43.047,122.455,41.439,122.396,40.081z"/>
	<path fill="#049A36" d="M130.801,81.896c0.981-0.814,1.607-1.728,2.552-2.265c0.882-0.502,1.924-1.063,2.804-0.506
		c0.87,0.55,1.154,1.672,1.142,2.77c-0.012,0.967-0.356,1.803-0.991,2.502c-1.044,1.152-2.346,1.916-3.845,2.307
		c-1.208,0.313-1.92-0.196-2.099-1.438c-0.116-0.805,0.071-1.588,0.197-2.376c0.063-0.404,0.173-0.75-0.543-0.654
		c-0.722,0.097-1.697,0.513-2.118-0.459c-0.5-1.149-0.412-2.341,0.355-3.413c0.385-0.536,0.939-0.358,1.428-0.31
		c0.592,0.062,1.013,0.38,1.19,1.01C131.122,79.943,130.862,80.805,130.801,81.896z"/>
	<path fill="#049A36" d="M86.849,93.886c-1.904-0.012-3.402-0.368-4.685-1.346c-1.715-1.311-1.634-3.234,0.148-4.457
		c2.385-1.638,5.97-1.078,7.755,1.208c1.271,1.63,0.754,3.5-1.182,4.245C88.131,93.826,87.341,93.902,86.849,93.886z"/>
	<path fill="#049A36" d="M87.115,47.342c-0.013,2.307-2.142,4.433-4.465,4.459c-1.777,0.02-3.136-1.703-3.12-3.957
		c0.019-2.55,1.861-4.636,4.068-4.604C85.524,43.267,87.127,45.136,87.115,47.342z"/>
	<path fill="#049A36" d="M120.386,52.834c-1.389,0-2.278-0.664-2.561-2.02c-0.387-1.854,0.086-3.493,1.529-4.749
		c1.087-0.943,2.782-1.041,4.033-0.313c1.219,0.71,1.938,1.754,1.956,3.203c0.018,1.398-0.767,2.301-1.912,2.939
		C122.488,52.427,121.499,52.839,120.386,52.834z"/>
	<path fill="#049A36" d="M124.026,60.795c-2.701-0.025-3.439-0.91-2.99-3.232c0.23-1.191,0.69-2.279,1.583-3.145
		c1.409-1.365,3.266-1.525,4.502-0.394c1.456,1.334,1.715,3.479,0.563,4.97C126.685,60.286,125.303,60.791,124.026,60.795z"/>
	<path fill="#049A36" d="M139.942,42.63c0.005,1.592-0.234,1.888-1.833,1.965c-1.788,0.085-3.378-0.44-4.669-1.733
		c-0.613-0.612-0.997-1.354-1.074-2.213c-0.109-1.2,0.121-2.358,1.121-3.119c0.962-0.729,2.057-0.463,3.067,0.002
		C138.567,38.459,139.936,40.548,139.942,42.63z"/>
	<path fill="#049A36" d="M103.308,35.801c-0.383-0.033-0.687,0.01-0.935-0.09c-2.625-1.061-3.028-1.857-1.256-3.774
		c1.482-1.603,3.286-2.646,5.545-2.692c1.037-0.022,1.891,0.322,2.346,1.318c0.459,1.004,0.313,1.97-0.392,2.796
		C107.205,35.015,105.294,35.607,103.308,35.801z"/>
	<path fill="#049A36" d="M76.951,35.15c-0.022-2.768,3.537-5.181,6.104-4.137c1.132,0.46,1.972,1.878,1.829,3.088
		c-0.146,1.24-0.862,1.864-2.311,2.167c-0.969,0.203-1.9,0.598-2.872,0.779C77.818,37.4,76.965,36.775,76.951,35.15z"/>
	<path fill="#049A36" d="M78.697,68.096c-0.029,2.285-1.726,4.653-3.577,5.278c-1.377,0.464-2.309-0.119-2.414-1.572
		c-0.14-1.921,0.329-3.727,1.238-5.406c0.491-0.903,1.178-1.69,2.339-1.558c1.169,0.134,1.767,1.011,2.139,2.024
		C78.599,67.344,78.649,67.87,78.697,68.096z"/>
	<path fill="#049A36" d="M94.75,98.914c-2.755-0.011-4.283-1.702-3.622-4.014c0.385-1.341,1.373-2.104,2.747-1.962
		c2.07,0.215,3.656,1.244,4.735,3.046c0.455,0.762,0.296,1.333-0.396,1.843C97.18,98.587,96.029,98.947,94.75,98.914z"/>
	<path fill="#049A36" d="M78.271,46.26c-0.163,1.348-0.706,2.878-1.674,4.236c-0.722,1.012-1.78,1.277-2.967,1.2
		c-0.434-0.026-0.715-0.216-0.964-0.587c-1.097-1.637-0.861-3.349,0.734-4.471c0.748-0.525,0.961-1.344,1.399-2.042
		c0.368-0.586,0.414-1.533,1.563-1.23c1.083,0.282,1.812,0.804,1.905,1.982C78.285,45.548,78.271,45.749,78.271,46.26z"/>
	<path fill="#049A36" d="M144.027,53.077c0.03,0.822-0.177,1.576-0.683,2.237c-0.785,1.029-2.508,1.598-3.65,1.205
		c-1.113-0.38-1.725-1.457-1.702-2.995c0.02-1.248,0.439-2.347,1.288-3.257c1.473-1.581,3.284-1.309,4.259,0.617
		C143.889,51.575,144.067,52.302,144.027,53.077z"/>
	<path fill="#049A36" d="M69.431,63.832c0.817-0.185,1.303,0.269,1.671,1.129c0.749,1.752,0.677,3.383-0.296,5.034
		c-0.506,0.855-1.064,1.15-2.045,0.845c-1.213-0.379-2.158-1.036-2.729-2.168C64.779,66.187,66.358,63.858,69.431,63.832z"/>
	<path fill="#049A36" d="M121.73,93.984c-1.88,0.032-2.846-1.298-2.261-3.094c0.331-1.021,0.969-1.822,1.774-2.492
		c1.344-1.114,2.821-1.054,3.809,0.13c1.111,1.333,0.969,3.382-0.331,4.387C123.846,93.589,122.82,93.886,121.73,93.984z"/>
	<path fill="#049A36" d="M115.391,90.133c-1.721,0.026-2.96-1.005-2.959-2.462c0.001-1.796,1.655-3.642,3.303-3.679
		c1.805-0.043,3.138,1.573,3.211,3.896C118.982,89.048,117.31,90.104,115.391,90.133z"/>
	<path fill="#049A36" d="M99.128,66.835c0.037-0.745,0.242-1.713,1.248-2.146c1.063-0.458,2.026-0.088,2.841,0.688
		c1.665,1.579,1.843,4.222,0.429,5.841c-0.459,0.525-0.916,0.639-1.576,0.395C100.358,70.98,99.107,69.104,99.128,66.835z"/>
	<path fill="#049A36" d="M113.485,96.225c-0.887-0.056-1.936-0.271-2.864-0.872c-0.999-0.643-1.317-1.771-0.762-2.809
		c0.71-1.325,1.971-1.687,3.339-1.678c1.31,0.006,2.42,0.462,2.991,1.775C117.112,94.763,116.082,96.241,113.485,96.225z"/>
	<path fill="#049A36" d="M117.863,31.008c-0.038-1.164,1.14-1.989,2.898-2.032c1.646-0.04,2.918,1.139,2.986,2.771
		c0.073,1.706-1.226,3.271-2.765,3.332C119.203,35.15,117.944,33.508,117.863,31.008z"/>
	<path fill="#049A36" d="M94.331,27.908c0.031,1.348-0.524,2.4-1.635,3.146c-1.272,0.854-2.702,1.149-4.217,1.101
		c-0.414-0.013-0.715-0.068-0.54-0.618c0.561-1.771,1.259-3.458,2.701-4.72c0.268-0.232,0.564-0.479,0.892-0.594
		C93.743,25.448,94.272,25.698,94.331,27.908z"/>
	<path fill="#049A36" d="M96.444,32.68c-1.512-0.018-1.702-0.247-1.296-1.281c0.721-1.841,1.763-3.479,3.337-4.715
		c0.785-0.615,1.689-1.042,2.597-0.262c0.866,0.747,0.574,1.702,0.131,2.515C100.096,30.987,98.494,32.431,96.444,32.68z"/>
	<path fill="#049A36" d="M138.382,72.908c1.782-0.009,2.906,1.091,2.941,2.873c0.028,1.406-1.088,2.391-2.709,2.388
		c-1.92-0.003-3.308-1.21-3.294-2.867C135.332,73.756,136.406,72.916,138.382,72.908z"/>
	<path fill="#049A36" d="M129.817,71.901c0.008-1.849,1.074-3.229,2.494-3.231c1.411-0.002,2.656,1.385,2.679,2.981
		c0.025,1.808-1.223,2.998-3.129,2.991C130.278,74.635,129.809,74.006,129.817,71.901z"/>
	<path fill="#049A36" d="M139.698,68.786c0.004-0.091,0-0.329,0.03-0.565c0.192-1.553,0.775-2.268,1.792-2.212
		c1.751,0.097,2.971,1.173,2.916,2.678c-0.053,1.423-0.67,2.616-1.828,3.463c-0.992,0.728-1.884,0.458-2.436-0.655
		C139.886,70.912,139.692,69.867,139.698,68.786z"/>
	<path fill="#049A36" d="M71.562,59.213c-0.026,1.466-1.185,2.502-2.771,2.479c-1.482-0.021-2.585-1.145-2.527-2.58
		c0.06-1.521,1.475-2.648,3.276-2.615C70.489,56.515,71.583,57.985,71.562,59.213z"/>
	<path fill="#049A36" d="M120.27,77.667c-1.527-0.006-1.935-0.588-1.924-2.745c0.005-1.122,1.472-2.948,2.322-2.895
		c1.049,0.067,2.395,1.583,2.369,2.672C123,76.387,121.8,77.673,120.27,77.667z"/>
	<path fill="#049A36" d="M72.504,83.136c-0.1-0.817,0.826-1.228,1.804-1.538c1-0.316,1.691,0.148,2.15,1.022
		c0.45,0.855,0.728,1.775,0.724,2.739c-0.007,1.668-1.318,2.441-2.785,1.65C73.062,86.292,72.625,85.048,72.504,83.136z"/>
	<path fill="#049A36" d="M143.22,64.406c-1.009,0.208-1.372-0.571-1.634-1.531c-0.212-0.781-0.305-1.565-0.227-2.363
		c0.16-1.634,1.532-2.302,2.959-1.457c1.797,1.065,2.019,3.769,0.455,5.146C144.329,64.592,143.885,64.413,143.22,64.406z"/>
	<path fill="#049A36" d="M115.779,28.944c-0.044,1.063-0.285,2.063-1.066,2.84c-0.541,0.534-1.2,0.877-1.938,0.441
		c-1.222-0.719-1.458-1.975-1.414-3.222c0.038-1.088,0.768-1.804,1.817-2.115C114.745,26.423,115.842,27.3,115.779,28.944z"/>
	<path fill="#049A36" d="M72.563,78.214c-0.058,0.373,0.152,0.853-0.293,0.974c-0.614,0.167-1.352,0.259-1.823-0.224
		c-1.207-1.237-2.03-2.734-2.487-4.403c-0.156-0.57,0.219-1.01,0.708-1.257c0.633-0.32,1.248-0.183,1.763,0.291
		C71.79,74.848,72.368,76.463,72.563,78.214z"/>
	<path fill="#049A36" d="M104.499,79.481c-1.435,0.006-2.041-0.637-2.019-2.144c0.022-1.692,1.086-2.873,2.569-2.858
		c0.967,0.011,1.726,1.19,1.745,2.713C106.814,78.656,105.993,79.475,104.499,79.481z"/>
	<path fill="#049A36" d="M131.292,33.706c0.008,1.57-0.961,2.22-2.348,1.536c-1.062-0.523-1.897-1.316-2.538-2.314
		c-0.232-0.363-0.341-0.672,0.033-1.055c0.737-0.753,2.089-1.072,3.104-0.662C130.591,31.633,131.286,32.625,131.292,33.706z"/>
	<path fill="#049A36" d="M85.661,67.635c-0.002,1.243-1.035,2.233-2.318,2.223c-1.135-0.009-1.949-0.879-1.967-2.103
		c-0.019-1.279,1.133-2.496,2.391-2.524C84.634,65.211,85.663,66.516,85.661,67.635z"/>
	<path fill="#049A36" d="M93.082,54.628c0.009-0.61,1.291-1.96,1.832-1.929c1,0.058,2.235,1.375,2.21,2.354
		c-0.026,1.042-1.478,2.542-2.409,2.491C93.897,57.501,93.062,56.008,93.082,54.628z"/>
	<path fill="#049A36" d="M78.8,42.218c-1.067,0.003-1.452-0.481-1.179-1.483c0.332-1.217,2.601-2.729,3.821-2.571
		c0.661,0.084,0.953,0.355,0.906,1.082C82.239,40.948,80.772,42.211,78.8,42.218z"/>
	<path fill="#049A36" d="M69.747,44.212c-0.009-2.04,1.132-3.354,2.691-3.234c0.269,0.021,0.545,0.001,0.721,0.301
		c0.584,0.998-0.022,3.448-1.039,4.135c-0.554,0.373-1.22,0.612-1.803,0.358C69.634,45.477,69.899,44.659,69.747,44.212z"/>
	<path fill="#049A36" d="M86.346,76.34c-1.131,0.029-1.778-0.672-1.778-1.927c0-1.476,0.993-2.571,2.438-2.335
		c0.978,0.158,1.036,1.267,1.067,2.116C88.133,75.779,87.674,76.306,86.346,76.34z"/>
	<path fill="#049A36" d="M90.317,51.465c-0.069,1.738-1.115,3.042-2.358,2.989c-0.896-0.037-1.781-1.011-1.763-1.936
		c0.024-1.119,1.481-1.934,3.278-1.901C90.137,50.629,90.462,50.815,90.317,51.465z"/>
	<path fill="#049A36" d="M68.392,52.291c-1.438-0.026-2.588-1.416-2.387-2.625c0.082-0.49,0.455-0.523,0.792-0.563
		c1.167-0.13,2.216,0.244,3.093,0.975c0.765,0.636,0.457,1.723-0.517,2.002C68.995,52.188,68.602,52.246,68.392,52.291z"/>
	<path fill="#049A36" d="M106.806,59.149c-1.156,0.318-1.231-0.332-1.142-1.229c0.172-1.725,0.613-2.41,1.756-2.586
		c0.315-0.048,0.64-0.131,0.85,0.215c0.515,0.851,0.691,1.701,0.341,2.707C108.271,59.228,107.577,59.197,106.806,59.149z"/>
	<path fill="#049A36" d="M92.069,47.294c-0.517-0.067-1.203-0.006-1.432-0.58c-0.22-0.549,0.208-1.054,0.592-1.466
		c0.188-0.202,0.407-0.39,0.643-0.528c0.723-0.428,1.544-0.902,2.327-0.563c0.431,0.188,0.057,0.938-0.097,1.413
		C93.789,46.549,93.247,47.277,92.069,47.294z"/>
	<path fill="#049A36" d="M139.084,47.583c-0.082,0.877-0.553,1.391-1.525,1.379c-1.125-0.013-1.711-0.641-1.726-1.798
		c-0.013-1.081,0.696-1.325,1.554-1.365C138.354,45.754,139.096,46.534,139.084,47.583z"/>
	<path fill="#049A36" d="M107.668,28.041c-0.087-0.021-0.293-0.033-0.47-0.109c-0.506-0.22-1.377-0.175-1.289-0.936
		c0.098-0.853,0.632-1.544,1.646-1.592c0.157-0.007,0.329-0.028,0.473,0.021c0.621,0.217,1.543,0.118,1.575,1.063
		C109.631,27.321,108.67,28.051,107.668,28.041z"/>
	<path fill="#049A36" d="M95.445,62.378c0.011,1.35-0.475,2.083-1.383,2.137c-1.043,0.063-1.15-0.664-1.183-1.41
		c-0.033-0.806,0.884-2.243,1.403-2.162C95.044,61.062,95.439,61.59,95.445,62.378z"/>
	<path fill="#049A36" d="M125.812,68.853c-0.155,0.621,0.059,1.52-1.057,1.493c-0.95-0.021-1.532-0.681-1.468-1.791
		c0.07-1.204,1.116-0.692,1.729-0.832C125.952,67.511,125.683,68.341,125.812,68.853z"/>
	<path fill="#049A36" d="M76.191,75.592c0.766,0.104,1.254,0.565,1.285,1.307c0.03,0.736-0.663,0.823-1.188,0.86
		c-0.853,0.061-1.154-0.515-1.229-1.276C74.97,75.58,75.721,75.793,76.191,75.592z"/>
	<path fill="#663401" d="M118.741,55.859c0.146-0.096,0.29-0.19,0.434-0.289c0.059,0.061,0.115,0.119,0.173,0.18
		c-0.117,0.108-0.233,0.22-0.351,0.33C118.912,56.005,118.827,55.932,118.741,55.859z"/>
	<path fill="#663401" d="M80.65,72.473c-0.162,0.035-0.169-0.075-0.167-0.184c0.001-0.029,0.037-0.059,0.057-0.085
		c0.03,0.097,0.061,0.191,0.089,0.29L80.65,72.473z"/>
	<path fill="#663401" d="M126.53,86.354c0.197,0.119,0.224,0.278,0.113,0.473c-0.105-0.091-0.211-0.18-0.317-0.268
		C126.394,86.49,126.462,86.422,126.53,86.354z"/>
	<path fill="#663401" d="M97.875,51.165c-0.056-0.07-0.174-0.185-0.159-0.204c0.129-0.186,0.215-0.027,0.308,0.057
		C97.974,51.067,97.924,51.116,97.875,51.165z"/>
	<path fill="#663401" d="M103.376,54.176c0.079-0.037,0.157-0.073,0.236-0.109c-0.007,0.099-0.014,0.194-0.021,0.292
		C103.52,54.298,103.448,54.237,103.376,54.176z"/>
	<path fill="#663401" d="M119.837,55.259c0.025,0.001,0.051,0.003,0.075,0.005c-0.016,0.045-0.031,0.089-0.046,0.134
		c-0.023-0.022-0.054-0.045-0.067-0.074C119.793,55.31,119.824,55.28,119.837,55.259z"/>
	<path fill="#663401" d="M119.175,55.57c0.117-0.097,0.239-0.201,0.367-0.031c0.011,0.013-0.127,0.138-0.194,0.211
		C119.29,55.688,119.232,55.629,119.175,55.57z"/>
	<path fill="#00C8C9" d="M618.712,205.339c-5.931,0-11.861,0.033-17.793-0.011c-7.918-0.055-13.072-5.12-13.127-12.976
		c-0.058-8.403-0.058-16.806,0.002-25.21c0.058-7.458,5.19-12.819,12.601-12.897c12.422-0.129,24.844-0.059,37.271-0.025
		c3.655,0.012,4.62,1.215,4.61,5.336c-0.008,3.883-1.158,5.229-4.813,5.252c-10.856,0.049-21.714,0.008-32.569,0.021
		c-4.153,0.009-4.486,0.376-4.492,4.732c-0.008,4.978,0.298,5.368,4.574,5.374c11.077,0.02,22.156-0.006,33.236,0.011
		c3.936,0.009,4.059,0.178,4.066,4.658c0.005,4.793-0.175,5.073-4.015,5.085c-10.855,0.024-21.71-0.009-32.565,0.019
		c-4.73,0.011-7.294,4.498-4.964,8.688c0.931,1.679,2.62,1.488,4.167,1.491c10.522,0.011,21.045-0.005,31.559,0.011
		c5.454,0.012,5.889,0.563,5.842,5.983c-0.025,3.1-1.339,4.51-4.456,4.482C631.469,205.293,625.089,205.339,618.712,205.339z"/>
	<path fill="#00C6C7" d="M729.591,183.35c0,5.715,0.022,11.431-0.005,17.146c-0.022,3.657-1.103,4.676-4.858,4.73
		c-4.2,0.056-5.629-1.052-5.655-4.785c-0.065-9.754-0.02-19.5-0.027-29.257c-0.006-4.766-0.232-4.99-4.872-5.004
		c-3.689-0.005-7.389,0.096-11.074-0.027c-2.861-0.097-3.979,0.998-3.94,3.944c0.121,10.197,0.056,20.391,0.045,30.596
		c-0.005,4.268-0.3,4.527-5.001,4.527c-4.669-0.002-4.922-0.224-4.924-4.58c-0.012-9.975,0.008-19.942-0.014-29.923
		c-0.008-4.102-0.409-4.501-4.361-4.537c-3.358-0.024-6.716-0.024-10.076,0c-3.891,0.03-4.364,0.518-4.367,4.559
		c-0.014,9.755,0.005,19.5-0.011,29.255c-0.008,4.552-0.646,5.199-4.892,5.225c-4.67,0.021-5.63-0.864-5.638-5.369
		c-0.02-10.763-0.036-21.523,0.005-32.283c0.033-7.854,4.454-12.696,12.228-13.094c5.137-0.258,10.299-0.117,15.443-0.021
		c2.131,0.037,4.28,0.4,5.728,2.279c0.637,0.824,1.026,0.896,1.656-0.051c1.339-2.019,3.478-2.27,5.654-2.278
		c5.265-0.027,10.524-0.099,15.784,0.014c8.615,0.178,13.162,4.894,13.173,13.46C729.596,173.041,729.591,178.197,729.591,183.35z"
		/>
	<path fill="#00C8C9" d="M334.409,205.339c-6.158,0-12.314,0.02-18.474-0.005c-3.591-0.022-4.732-1.082-4.901-4.409
		c-0.215-4.302,1.001-6.164,4.399-6.612c0.99-0.131,2.011-0.082,3.018-0.082c9.403-0.008,18.809,0.022,28.212-0.019
		c3.721-0.017,4.44-0.915,4.387-4.637c-0.033-2.657-1.141-3.843-3.875-3.811c-7.166,0.088-14.33,0-21.493,0.044
		c-2.378,0.02-4.698-0.264-6.955-0.947c-5.359-1.63-7.642-4.743-7.692-10.385c-0.021-2.577-0.083-5.159,0.022-7.733
		c0.302-7.152,5.313-12.387,12.374-12.475c12.647-0.158,25.295-0.051,37.948-0.049c2.123,0.003,3.957,0.736,4.055,3.08
		c0.108,2.631,1.329,5.755-2.069,7.45c-1.542,0.77-3.212,0.847-4.911,0.841c-9.178-0.027-18.362,0.071-27.537-0.058
		c-3.103-0.049-4.492,0.932-4.503,4.211c-0.009,3.332,1.486,4.22,4.54,4.167c7.721-0.137,15.445-0.068,23.17-0.041
		c6.596,0.027,11.24,4.493,11.443,11.043c0.09,3.021,0.124,6.063-0.082,9.068c-0.442,6.435-5.475,11.214-11.94,11.325
		c-6.378,0.106-12.765,0.027-19.143,0.027C334.409,205.334,334.409,205.336,334.409,205.339z"/>
	<path fill="#00C8C9" d="M468.511,205.339c-6.153,0-12.311,0.017-18.471-0.005c-3.892-0.02-4.786-0.812-4.936-4.268
		c-0.21-4.793,0.992-6.598,4.831-6.803c3.01-0.164,6.04-0.05,9.063-0.05c7.163-0.002,14.324-0.057,21.488,0.03
		c2.986,0.036,4.548-0.859,4.521-4.229c-0.027-3.245-1.298-4.341-4.438-4.274c-7.165,0.137-14.326,0.03-21.489,0.044
		c-2.953,0.006-5.797-0.502-8.466-1.761c-3.537-1.668-5.579-4.356-5.516-8.436c0.049-3.025-0.063-6.057,0.032-9.08
		c0.236-6.99,5.158-12.151,12.136-12.244c12.646-0.169,25.293-0.046,37.942-0.058c2.31-0.006,4.134,0.896,4.296,3.285
		c0.177,2.537,1.142,5.525-2.046,7.166c-1.531,0.789-3.183,0.937-4.887,0.931c-9.291-0.03-18.582,0.065-27.868-0.058
		c-3.014-0.046-4.189,0.978-4.228,4.072c-0.035,3.203,1.077,4.38,4.308,4.312c7.722-0.169,15.445-0.073,23.165-0.052
		c6.789,0.027,11.553,4.765,11.68,11.579c0.048,2.468,0.069,4.937-0.012,7.403c-0.24,7.287-5.398,12.348-12.642,12.494
		c-0.225,0.006-0.448,0.003-0.673,0.003C480.374,205.339,474.44,205.339,468.511,205.339z"/>
	<path fill="#00C8C9" d="M772.033,205.339c-6.151,0-12.31-0.068-18.464,0.03c-2.956,0.047-4.69-0.888-4.824-4.123
		c-0.186-4.617,0.892-6.545,4.37-6.937c1.66-0.18,3.355-0.087,5.031-0.087c8.619-0.009,17.237,0.021,25.856-0.014
		c4.008-0.014,4.532-0.68,4.676-4.351c0.125-3.396-1.59-4.166-4.581-4.112c-7.054,0.117-14.104,0.014-21.152,0.044
		c-2.841,0.011-5.586-0.426-8.188-1.54c-3.847-1.639-6.066-4.446-5.996-8.815c0.049-3.025-0.084-6.057,0.053-9.077
		c0.308-6.849,5.162-11.976,11.952-12.089c12.757-0.191,25.517-0.057,38.278-0.063c2.166-0.002,3.908,0.871,4.109,3.094
		c0.234,2.652,1.228,5.744-2.146,7.42c-1.546,0.762-3.209,0.865-4.903,0.86c-9.176-0.027-18.361,0.082-27.532-0.058
		c-3.15-0.058-4.408,0.967-4.433,4.23c-0.021,3.356,1.419,4.208,4.487,4.15c7.72-0.145,15.446-0.065,23.163-0.044
		c5.999,0.022,10.869,4.17,11.424,10.06c0.313,3.332,0.301,6.74-0.027,10.071c-0.672,6.839-5.755,11.238-12.688,11.346
		c-0.225,0.006-0.449,0.003-0.672,0.003C783.901,205.339,777.968,205.339,772.033,205.339z"/>
	<path fill="#00C6C7" d="M896.396,205.342c-6.043-0.003-12.092,0.049-18.14-0.021c-6.942-0.068-12.187-4.527-12.461-11.482
		c-0.385-9.396-0.371-18.837,0.04-28.233c0.296-6.846,5.614-11.336,12.598-11.379c12.318-0.076,24.64-0.044,36.955-0.012
		c3.716,0.012,4.842,1.284,4.855,5.197c0.018,3.951-1.275,5.396-5.102,5.41c-10.642,0.038-21.281,0.011-31.912,0.017
		c-4.762,0.002-5.087,0.34-5.089,5.234c-0.006,6.723-0.017,13.457,0.006,20.18c0.014,3.905,0.614,4.528,4.465,4.536
		c10.639,0.033,21.281-0.019,31.913,0.03c5.099,0.022,5.908,0.918,5.725,5.898c-0.128,3.463-1.229,4.598-4.7,4.617
		C909.163,205.366,902.783,205.342,896.396,205.342z"/>
	<path fill="#00C8C9" d="M405.338,205.339c-6.268,0-12.542-0.092-18.807,0.041c-2.909,0.058-3.971-1.111-4.015-3.956
		c-0.115-7.303-0.107-7.376,7.024-7.412c3.225-0.021,7.557,1.087,9.393-0.557c2.122-1.902,0.58-6.324,0.651-9.646
		c0.115-5.265-0.044-10.536,0.065-15.802c0.044-1.866-0.437-2.562-2.399-2.478c-3.572,0.15-7.165-0.038-10.744,0.063
		c-2.64,0.073-3.881-0.937-3.984-3.684c-0.292-7.542-0.203-7.701,7.37-7.701c11.19,0,22.386-0.003,33.574,0.003
		c4.597,0.002,5.028,0.438,5.042,4.941c0.002,0.785-0.055,1.58,0.012,2.352c0.251,3.105-1.266,4.209-4.229,4.1
		c-3.463-0.131-6.941,0.065-10.405-0.063c-1.906-0.074-2.49,0.552-2.462,2.458c0.091,7.845,0.115,15.692-0.011,23.533
		c-0.038,2.229,0.887,2.594,2.778,2.525c3.354-0.112,6.716,0.032,10.078-0.05c2.883-0.07,4.288,0.962,4.288,4.107
		c-0.006,7.231,0.101,7.231-7.109,7.231C416.084,205.342,410.709,205.342,405.338,205.339z"/>
	<path fill="#00C8C9" d="M1026.602,182.986c0,5.937,0.027,11.871-0.012,17.813c-0.019,3.544-1.012,4.478-4.634,4.543
		c-4.368,0.076-5.762-0.926-5.87-4.499c-0.102-3.356-0.137-6.719,0.012-10.079c0.1-2.119-0.722-2.642-2.708-2.625
		c-8.277,0.09-16.558,0.09-24.834,0c-1.932-0.022-2.51,0.64-2.448,2.513c0.121,3.47,0.107,6.946,0.009,10.415
		c-0.106,3.752-1.022,4.365-5.847,4.275c-3.608-0.065-4.705-1.043-4.713-4.513c-0.033-11.76-0.074-23.522,0.014-35.285
		c0.052-6.744,5.129-11.905,11.922-12.015c9.056-0.146,18.126-0.146,27.181,0c6.934,0.109,11.844,5.342,11.929,12.327
		c0,0.111,0,0.221,0,0.332C1026.602,171.781,1026.602,177.383,1026.602,182.986z M1000.947,177.707c2.344,0,4.688,0,7.03,0
		c8.379,0,8.31,0,8.118-8.479c-0.057-2.709-1.079-3.821-3.803-3.777c-5.578,0.104-11.154,0.003-16.74,0.036
		c-10.855,0.06-9.272-1.404-9.437,10.158c-0.024,1.611,0.521,2.127,2.107,2.089C992.466,177.647,996.71,177.704,1000.947,177.707z"
		/>
	<path fill="#00C8C9" d="M544.089,154.209c7.495,0,14.989,0.073,22.478-0.032c3.138-0.05,4.634,1.16,4.367,4.363
		c-0.064,0.781-0.006,1.57-0.01,2.352c-0.029,4.115-0.561,4.664-4.638,4.678c-4.479,0.016-8.953,0.147-13.422-0.053
		c-2.438-0.109-2.935,0.757-2.91,3.028c0.114,10.749,0.058,21.505,0.048,32.257c-0.005,4.24-0.306,4.516-4.643,4.54
		c-7.237,0.027-7.237,0.027-7.237-7.314c0-9.856-0.079-19.714,0.06-29.566c0.038-2.402-0.661-3.034-2.991-2.941
		c-4.577,0.178-9.168-0.044-13.754,0.079c-2.967,0.08-4.254-1.016-4.258-4.107c-0.014-7.287-0.109-7.287,7.118-7.287
		C530.89,154.209,537.49,154.209,544.089,154.209z"/>
	<path fill="#00C6C7" d="M946.211,194.729c2.906,0.044,5.23,2.454,5.238,5.425c0.006,3.024-2.228,5.306-5.242,5.331
		c-3.1,0.032-5.621-2.481-5.498-5.494C940.827,197.133,943.392,194.682,946.211,194.729z"/>
	<path fill="#00C6C7" d="M1060.133,200.31c-0.079,2.924-2.493,5.196-5.466,5.172c-3.15-0.03-5.441-2.481-5.274-5.639
		c0.161-2.927,2.687-5.243,5.569-5.104C1057.799,194.876,1060.21,197.475,1060.133,200.31z"/>
	<path fill="#673503" d="M89.735,142.806c-0.917,0.02-1.621-0.638-1.641-1.527c-0.021-0.877,0.696-1.632,1.579-1.583
		c0.9,0.052,1.496,0.494,1.542,1.473C91.261,142.115,90.649,142.789,89.735,142.806z"/>
	<path fill="#673503" d="M84.517,152.976c-0.02,0.912-0.737,1.626-1.621,1.51c-0.896-0.116-1.429-0.693-1.488-1.6
		c-0.054-0.819,0.786-1.601,1.619-1.586C83.901,151.313,84.536,152.029,84.517,152.976z"/>
	<path fill="#673503" d="M75.951,148.083c-0.912,0.011-1.575-0.65-1.573-1.566c0.003-0.912,0.676-1.595,1.585-1.55
		c0.934,0.047,1.459,0.585,1.533,1.502C77.566,147.346,76.839,148.073,75.951,148.083z"/>
	<path fill="#673503" d="M90.761,168.254c-0.911,0.004-1.531-0.653-1.514-1.603c0.02-0.978,0.606-1.428,1.493-1.516
		c0.783-0.077,1.602,0.748,1.632,1.566C92.406,167.544,91.67,168.25,90.761,168.254z"/>
	<path fill="#673503" d="M83.301,184.816c-0.922-0.009-1.51-0.653-1.485-1.617c0.024-0.986,0.631-1.413,1.515-1.489
		c0.793-0.068,1.586,0.76,1.604,1.59C84.95,184.154,84.228,184.826,83.301,184.816z"/>
	<path fill="#673503" d="M98.394,172.363c-0.015,1.055-0.711,1.72-1.633,1.676c-0.95-0.044-1.475-0.555-1.492-1.514
		c-0.018-0.866,0.778-1.692,1.598-1.582C97.734,171.063,98.313,171.573,98.394,172.363z"/>
	<path fill="#673503" d="M109.992,183.638c-0.693-0.053-1.233-0.529-1.264-1.489c-0.026-0.83,0.792-1.639,1.596-1.612
		c0.809,0.022,1.558,0.861,1.517,1.697C111.798,183.089,111.152,183.656,109.992,183.638z"/>
	<path fill="#673503" d="M76.823,172.797c-0.737-0.104-1.251-0.596-1.253-1.556c-0.002-0.926,0.679-1.611,1.588-1.55
		c0.949,0.065,1.428,0.692,1.506,1.565C78.735,172.058,77.845,172.829,76.823,172.797z"/>
	<path fill="#673502" d="M97.32,180.918c0.973,0.013,1.466,0.564,1.533,1.479c0.061,0.827-0.791,1.655-1.585,1.627
		c-0.884-0.029-1.555-0.77-1.518-1.671C95.786,181.475,96.406,180.909,97.32,180.918z"/>
	<path fill="#673502" d="M75.885,160.243c-0.02,0.901-0.738,1.592-1.637,1.5c-0.944-0.099-1.401-0.744-1.452-1.618
		c-0.046-0.81,0.854-1.54,1.697-1.494C75.344,158.678,75.904,159.326,75.885,160.243z"/>
	<path fill="#663401" d="M91.413,157.169c0.049-0.026,0.099-0.055,0.147-0.081c-0.025,0.051-0.052,0.102-0.076,0.153
		C91.485,157.242,91.413,157.169,91.413,157.169z"/>
	<path fill="#673503" d="M120.636,145.435c-0.884,0.004-1.601-0.72-1.581-1.596c0.02-0.889,0.725-1.564,1.643-1.522
		c0.946,0.044,1.452,0.568,1.481,1.519C122.207,144.755,121.544,145.431,120.636,145.435z"/>
	<path fill="#673503" d="M127.396,156.375c0.004-0.985,0.602-1.441,1.485-1.519c0.854-0.071,1.733,0.854,1.619,1.696
		c-0.121,0.89-0.627,1.429-1.602,1.406C127.915,157.938,127.378,157.382,127.396,156.375z"/>
	<path fill="#673503" d="M101.844,163.702c-0.948-0.007-1.569-0.643-1.538-1.573c0.031-0.915,0.734-1.628,1.609-1.536
		c0.898,0.095,1.445,0.646,1.502,1.556C103.476,163.05,102.77,163.707,101.844,163.702z"/>
	<path fill="#673503" d="M108.026,167.148c0.017,0.947-0.606,1.597-1.528,1.586c-0.91-0.008-1.65-0.694-1.587-1.564
		c0.066-0.905,0.619-1.455,1.515-1.548C107.31,165.528,108.009,166.238,108.026,167.148z"/>
	<path fill="#673503" d="M125.941,169.957c-0.919-0.021-1.605-0.725-1.567-1.604c0.034-0.789,0.922-1.609,1.707-1.513
		c0.908,0.114,1.423,0.697,1.491,1.591C127.637,169.284,126.85,169.978,125.941,169.957z"/>
	<path fill="#673503" d="M117.328,162.474c-1.054-0.004-1.709-0.687-1.68-1.622c0.03-0.961,0.548-1.472,1.501-1.497
		c0.877-0.022,1.685,0.747,1.59,1.588C118.64,161.825,118.114,162.384,117.328,162.474z"/>
	<path fill="#673503" d="M121.717,178.054c-0.067,0.883-0.51,1.453-1.482,1.487c-0.938,0.034-1.67-0.655-1.649-1.521
		c0.021-0.828,0.834-1.65,1.647-1.584C121.16,176.516,121.655,177.07,121.717,178.054z"/>
	<path fill="#673503" d="M99.076,151.095c0.032-0.712,0.472-1.285,1.434-1.351c0.891-0.063,1.648,0.639,1.681,1.508
		c0.029,0.785-0.808,1.61-1.625,1.605C99.735,152.855,99.091,152.185,99.076,151.095z"/>
	<path fill="#673502" d="M119.843,157.195c-0.926,0.01-1.581-0.646-1.557-1.585c0.025-0.946,0.518-1.483,1.473-1.525
		c0.829-0.037,1.65,0.771,1.639,1.569C121.385,156.41,120.6,157.188,119.843,157.195z"/>
	<path fill="#070B0B" d="M1000.947,177.707c-4.243-0.003-8.481-0.058-12.724,0.027c-1.586,0.038-2.132-0.478-2.107-2.089
		c0.17-11.563-1.419-10.099,9.437-10.158c5.581-0.033,11.156,0.068,16.74-0.036c2.729-0.049,3.746,1.068,3.803,3.777
		c0.184,8.479,0.261,8.479-8.118,8.479C1005.635,177.707,1003.291,177.707,1000.947,177.707z M1001.215,167.636
		c-3.449,0-6.914,0.126-10.359-0.055c-2.067-0.098-2.881,0.515-2.578,2.601c0.131,0.874,0.136,1.8-0.004,2.67
		c-0.357,2.303,0.703,2.755,2.798,2.714c5.794-0.128,11.594-0.049,17.388-0.049c5.651,0,5.556,0.003,5.449-5.742
		c-0.037-1.849-0.65-2.234-2.326-2.174C1008.131,167.716,1004.674,167.636,1001.215,167.636z"/>
</g>
</svg>
