<?xml version="1.0" encoding="utf-8"?>
<!-- Generator: Adobe Illustrator 16.0.0, SVG Export Plug-In . SVG Version: 6.00 Build 0)  -->
<!DOCTYPE svg PUBLIC "-//W3C//DTD SVG 1.1//EN" "http://www.w3.org/Graphics/SVG/1.1/DTD/svg11.dtd">
<svg version="1.1" id="Capa_1" xmlns="http://www.w3.org/2000/svg" xmlns:xlink="http://www.w3.org/1999/xlink" x="0px" y="0px"
	 width="283.46px" height="283.46px" viewBox="0 0 283.46 283.46" enable-background="new 0 0 283.46 283.46" xml:space="preserve">
<path fill="#2F9888" d="M7.869,139.789c-2.773,1.383-7.801,4.731-7.818,4.256c-0.14-3.983,0.074-8.627,0.363-12.582
	c1.113-15.332,4.316-30.25,10.541-44.317c19.971-45.254,54.072-73.504,102.347-84.42c6.474-1.45,13.052-2.243,19.665-2.601
	c0.363-0.017,0.784,0.116,1.029-0.3c5.01,0,10.006,0,15.006,0c1.713,0.617,3.51,0.4,5.271,0.568
	c57.059,5.36,104.549,43.376,122.24,97.893c1.902,5.835,3.322,11.801,4.48,17.827c0.18,0.907,0.092,1.652-0.637,2.359
	c-2.002,1.973-3.619,4.328-5.877,6.077c-0.924-2.55-1.033-5.258-1.508-7.873c-0.885-4.942-2.094-9.781-3.559-14.564
	c-1.727-5.696-3.82-11.251-6.377-16.626c-2.738-5.774-5.842-11.331-9.303-16.716c-4.023-6.254-8.557-12.117-13.557-17.554
	c-3.826-4.169-7.879-8.155-12.283-11.766c-3.564-2.911-7.17-5.737-10.949-8.354c-6.775-4.679-14.01-8.555-21.496-11.95
	c-5.895-2.675-11.982-4.879-18.209-6.554c-6.207-1.668-12.496-3.095-18.951-3.669c-3.607-0.333-7.219-0.9-10.834-1.101
	c-7.607-0.4-15.193,0.149-22.78,1.101c-6.026,0.751-11.97,1.775-17.819,3.369c-10.751,2.936-20.993,7.145-30.762,12.591
	c-9.379,5.228-17.938,11.524-25.787,18.811c-6.956,6.438-13.145,13.611-18.548,21.439c-8.437,12.252-14.822,25.476-18.837,39.841
	c-1.954,6.994-3.404,14.076-4.189,21.325C8.26,130.914,7.816,135.125,7.869,139.789z"/>
<path fill="#653713" d="M23.379,157.427c7.025-4.216,14.051-8.422,21.471-12.861c-0.793,2.689-1.477,5.025-2.213,7.548
	c3.098-1.136,6.004-2.225,8.945-3.22c12.148-4.113,24.595-5.779,37.375-4.43c11.065,1.153,21.479,4.652,31.523,9.287
	c5.373,2.494,10.588,5.268,15.769,8.106c0.474,0.26,1.157,1.079,1.525-0.047c0.307-0.959,1.626-2.262,0.307-3.006
	c-10.29-5.714-19.862-12.703-30.582-17.625c-8.774-4.03-18.073-4.793-27.575-3.788c-9.432,1.005-18.512,3.509-27.457,6.625
	c-0.565,0.187-1.145,0.643-1.876,0.261c2.318-1.479,4.61-2.913,6.534-4.83c0.596-0.596,1.486-1.229,1.123-2.178
	c-0.387-0.996-1.469-0.754-2.319-0.763c-1.696-0.023-3.321,0.382-4.921,0.949c-15.371,5.342-29.461,13.205-43.135,21.889
	c-2.094,1.34-4.163,2.689-6.416,4.15c-0.762-4.448-1.139-8.739-1.45-13.066c-0.048-0.559,0.162-0.865,0.648-1.145
	c16.329-9.353,33.089-17.654,51.491-22.195c20.441-5.044,39.339-1.74,57,9.651c8.48,5.463,16.65,11.4,25.297,16.649
	c1.42,0.855,2.866,1.693,4.444,2.633c0.188-1.87,0.079-3.471-0.044-5.081c0.078-2.671-0.285-5.313-0.605-7.947
	c-1.139-9.381-3.746-18.25-8.822-26.314c-0.596-0.944-1.327-1.684-2.27-2.266c-4.633-2.885-9.729-3.494-15.032-3.127
	c-1.827,0.121-3.659,0.326-5.965,0.54c2.888-1.824,5.583-2.643,8.651-3.043c-0.535-0.475-0.942-0.81-1.311-1.182
	c-2.646-2.634-4.501-5.677-4.58-9.548l-0.021,0.023c0.596,0.349,0.715,1.038,1.034,1.577c1.288,2.215,2.607,4.383,4.422,6.226
	c1.328,1.349,2.853,2.419,4.777,2.596c2.472,0.214,5.019-0.037,7.538,1.461c-1.578-4.807-2.647-9.334-3.283-13.978
	c-0.188-1.326,0.027-2.718-0.652-3.983c-1.963-3.657-4.795-6.272-8.739-7.65c-1.744-0.605-3.567-0.875-5.75-1.149
	c6.188-0.917,10.909,1,14.687,6.017c0-3.602,0.293-6.719,0.723-9.818c0.176,0.009,0.347,0.009,0.518,0.009
	c-1.064,11.894,2.06,23.177,4.737,26.439c0.03-0.103,0.11-0.187,0.11-0.279c0.029-0.814,0.061-1.62,0.1-2.438
	c0.355-7.008,1.723-13.773,4.729-20.129c1.052-2.252,1.2-4.449,0.99-6.789c-0.228-2.601-1.122-4.935-2.516-7.122
	c0.079-0.058,0.145-0.133,0.197-0.191c2.866,2.159,3.379,5.418,3.958,8.871c1.218-1.624,2.02-3.294,3.309-4.579
	c0.101,0.093,0.201,0.177,0.298,0.261c-0.237,0.418-0.478,0.842-0.714,1.266c-5.158,9.055-7.924,18.715-7.307,29.212
	c0.254,4.225,1.328,8.213,3.766,11.763c0.311,0.428,0.617,0.852,0.933,1.261c0.171,0.033,0.347,0.061,0.518,0.088l-0.013-0.028
	c1.051,2.089,2.041,2.415,3.83,1.256c1.951-1.256,3.125-3.136,4.027-5.184c2.365-5.379,2.686-11.028,2.1-16.77
	c-0.369-3.592-1.385-7.017-2.828-10.339c4.523,4.425,6.299,10.014,6.715,16.593c4.326-7.929,4.877-15.686,1.787-24.034
	c1.416,1,1.473,2.41,2.232,3.476c1.396-2.662,2.875-5.118,5.529-6.533c0.119,0.098,0.229,0.186,0.355,0.298
	c-0.377,0.391-0.762,0.772-1.127,1.182c-2.195,2.471-3.82,5.356-3.689,8.646c0.141,3.267,0.438,6.515,0.127,9.883
	c7.279-5.016,11.299-6.709,15.41-6.431c-11.807,2.941-17.215,11.735-21.09,22.047c2.547-1.275,5.193-1.973,7.941-2.354
	c5.574-0.772,10.68-2.373,13.871-7.557c-1.227,4.551-4.785,7.063-8.564,9.521c3.252,1.27,5.809,3.187,7.346,6.254
	c-0.088,0.102-0.176,0.186-0.275,0.288c-6.455-6.905-15.721-5.732-20.971-1.219c-3.752,3.22-4.891,7.52-2.91,11.814
	c4.76,10.298,8.041,21.028,9.541,32.297c0.346,3.472,2.016,5.547,5.514,6.775c8.584,2.969,17.205,5.603,26.26,6.616
	c10.887,1.229,21.436-0.167,31.818-3.452c16.176-5.128,30.305-13.866,43.168-24.792c6.434-5.463,12.42-11.391,18.074-17.654
	c0.311-0.358,0.648-0.708,1.301-1.424c0.207,2.931,0.387,5.477,0.584,8.036c0.021,0.433-0.258,0.703-0.504,0.982
	c-9.936,11.242-19.805,22.54-31.424,32.153c-0.367,0.308-0.754,0.614-1.121,0.865c-0.092-0.083-0.15-0.102-0.168-0.14
	c-1.199-3.368-1.621-3.518-4.803-1.693c-12.338,7.055-25.494,11.688-39.605,13.504c-13.1,1.703-25.635-0.41-37.621-5.892
	c-3.4-1.554-6.811-3.08-10.186-4.699c-0.949-0.447-1.367-0.587-1.428,0.763c-0.127,2.932-0.197,2.913,2.471,4.244
	c8.854,4.439,17.961,8.18,27.766,9.92c13.604,2.43,26.686,0.494,39.369-4.728c4.82-1.981,9.447-4.346,14.178-7.119
	c-0.465,2.346-0.863,4.495-1.275,6.654c0.631,0.13,0.99-0.261,1.396-0.493c6.027-3.341,11.9-6.924,17.313-11.224
	c0.109-0.093,0.314-0.065,0.469-0.103c-2.125,9.986-5.549,19.525-10.207,28.617c-7.955,15.495-18.723,28.729-32.428,39.496
	c-19.949,15.682-42.639,24.159-67.934,25.518c-12.819,0.708-25.485-0.688-37.857-4.169c-23.842-6.756-43.782-19.627-59.67-38.631
	C35.353,200.469,26.574,180.172,23.379,157.427z M123.526,213.284l0.105,0.083c-0.009,2.476-0.719,4.83-0.991,7.25
	c-0.096,0.912-0.446,1.266-1.306,1.563c-2.046,0.688-3.194,2.531-2.976,4.514c0.219,1.927,1.735,3.536,3.66,3.862
	c1.762,0.288,3.808-0.828,4.562-2.476c0.802-1.806,0.294-4.076-1.341-5.314c-0.701-0.502-0.951-0.884-0.793-1.823
	c0.767-4.365,1.367-8.785,2.129-13.169c0.26-1.479,0.232-3.062,0.986-4.746c0.715,2.001,1.744,3.648,1.802,5.481
	c0.228,6.794,0.28,13.605,0.407,20.391c0.014,0.642-0.166,1.051-0.811,1.386c-1.994,1.099-2.826,2.969-2.314,4.887
	c0.566,2.094,2.174,3.322,4.277,3.285c2.052-0.065,3.629-1.396,4.143-3.509c0.438-1.824-0.496-3.639-2.398-4.682
	c-0.359-0.204-0.941-0.232-0.95-0.781c-0.022-1.517-0.009-3.016-0.009-5.025c4.549,6.365,8.773,12.275,13.037,18.175
	c0.715,0.978,1.109,1.759,0.416,3.025c-0.871,1.619-0.209,3.703,1.148,4.876c1.359,1.163,3.494,1.313,5.027,0.363
	c1.695-1.033,2.49-2.904,1.986-4.719c-0.588-2.094-2.105-3.257-4.322-3.192c-0.986,0.028-1.779,0.075-2.502-0.939
	c-3.59-5.193-7.021-10.525-11.044-15.337c-3.282-3.955-4.624-8.05-4.155-13.066c0.316-3.304,0.066-6.616-1.397-9.725
	c-0.579-1.22-0.911-2.56-1.411-3.825c-0.334-0.819-0.294-1.498,0.171-2.28c1.385-2.271,2.765-4.551,3.992-6.896
	c2.134-4.142,5.142-7.809,6.337-12.434c0.982-3.834,2.144-7.612,3.283-11.428c0.268-0.866,0.228-1.508-0.692-1.815
	c-1.188-0.438-0.886,0.727-1.039,1.154c-0.876,2.792-1.985,5.556-2.41,8.45c-0.645,4.364-2.919,6.691-7.17,7.622
	c-2.433,0.502-4.782,1.526-6.228,3.797c-0.745,1.173-1.596,1.87-3.055,1.079c-0.329-0.177-0.855-0.074-1.279,0.019
	c-2.608,0.55-4.055,2.83-3.432,5.352c0.578,2.336,3.015,3.76,5.275,3.09c2.561-0.744,3.796-3.201,2.818-5.808
	c-0.28-0.744-0.013-1.116,0.347-1.712c2.169-3.518,6.026-3.844,9.4-5.156c-2.599,4.803-5.308,9.512-8.003,14.192
	c-0.28,0.493-0.666,0.651-1.184,0.717c-2.467,0.354-4.934,0.744-7.445,0.643c-3.309-0.14-6.613-0.298-9.927-0.4
	c-0.951-0.037-1.538-0.308-1.954-1.294c-0.842-1.982-2.893-2.903-4.816-2.373c-2.025,0.549-3.34,2.112-3.393,4.058
	c-0.049,1.945,1.209,3.639,3.173,4.244c1.876,0.586,3.761-0.158,4.892-1.945c0.314-0.493,0.446-1.136,1.258-1.015
	c3.194,0.456,6.455,0.149,9.834,0.764c-0.553,0.586-1.017,1.023-1.416,1.517c-0.814,0.986-1.617,1.572-3.055,1.023
	c-0.99-0.362-2.134-0.111-3.094,0.577c-1.832,1.331-2.467,3.788-1.446,5.649c1.083,1.963,3.611,2.838,5.614,1.917
	c2.029-0.922,2.954-3.248,2.218-5.491c-0.136-0.391-0.526-0.781-0.088-1.2c1.985-1.777,3.31-4.551,6.596-4.43
	c0.702,0.019,1.407-0.14,2.1-0.261c1.069-0.224,1.218,0.288,1.069,1.154c-0.456,2.727-0.89,5.453-1.314,8.18
	c-0.158,0.996-0.597,1.638-1.587,2.029c-2.214,0.884-4.356,1.981-6.573,2.866c-3.156,1.266-6.04,3.443-9.818,2.708
	c-1.091-0.214-1.779-0.308-2.291-1.471c-1.351-3.015-5.535-3.313-7.35-0.614c-1.368,2.02-0.881,4.719,1.104,6.05
	c2.038,1.358,4.566,0.865,5.996-1.164c0.35-0.493,0.465-1.266,1.371-1.126c1.018,0.149,2.029,0.233,3.209,0.363
	c-0.908,2.233-1.811,4.355-2.626,6.533c-0.548,1.461-1.069,2.54-2.976,2.856c-2.646,0.447-3.865,3.258-2.854,5.705
	c0.969,2.364,3.629,3.332,5.957,2.169c2.252-1.127,3.177-4.049,1.551-6.105c-1.271-1.592-0.601-2.671,0.136-3.992
	c0.167,0.103,0.298,0.121,0.347,0.204c1.787,2.522,3.335,5.268,5.386,7.548c2.679,2.979,3.024,5.808,0.741,9.111
	c-0.562,0.8-0.873,1.349-1.99,1.451c-1.924,0.195-3.335,1.321-3.839,3.267c-0.456,1.74,0.101,3.258,1.46,4.393
	c1.664,1.396,3.887,1.321,5.513-0.065c1.735-1.498,2.021-3.676,0.731-5.732c-0.402-0.623-0.981-1.145-0.504-2.028
	c0.636-1.201,1.188-2.457,1.696-3.704c0.368-0.94,0.851-0.94,1.595-0.428c2.551,1.768,5.106,3.499,7.688,5.229
	c0.605,0.391,0.851,0.707,0.701,1.555c-0.367,2.094,0.785,3.927,2.718,4.69c1.757,0.679,3.888,0.083,4.97-1.405
	c1.258-1.685,1.196-3.76-0.162-5.38c-1.314-1.582-3.379-2.075-5.285-0.995c-0.881,0.493-1.447,0.354-2.188-0.168
	c-2.152-1.488-4.348-2.875-6.478-4.374c-1.367-0.958-2.796-1.814-3.769-3.275c-2.586-3.899-5.295-7.706-7.955-11.549
	c-0.245-0.363-0.534-0.634-0.324-1.164c1.004-2.466,1.644-5.007,4.848-5.938C117.058,216.383,120.125,214.41,123.526,213.284z
	 M138.34,195.909c1.955,3.452,3.682,6.533,5.436,9.595c0.357,0.633,0.385,1.154,0,1.824c-1.439,2.494-2.828,5.016-4.213,7.528
	c-0.368,0.688-0.719,0.949-1.631,0.903c-2.883-0.187-5.136,2.577-4.452,5.239c0.456,1.814,1.626,2.95,3.432,3.304
	c1.774,0.372,3.217-0.345,4.272-1.74c1.136-1.508,1.083-3.118,0.232-4.746c-0.258-0.512-0.877-0.922-0.508-1.573
	c0.973-1.787,1.977-3.536,2.975-5.286c0,3.676-0.227,7.24-0.424,10.833c-0.039,0.8-0.617,0.875-1.152,1.135
	c-1.728,0.782-2.836,2.765-2.561,4.477c0.347,2.085,1.898,3.639,3.861,3.825c1.924,0.177,3.764-0.996,4.447-2.866
	c0.707-1.908,0.193-3.955-1.635-4.97c-1.336-0.754-1.279-1.573-0.84-2.811c2.826,2.01,5.529,4.011,8.326,5.854
	c1.648,1.107,2.801,2.41,3.414,4.337c0.592,1.917,1.43,3.76,2.223,5.611c0.424,0.949,0.551,1.657-0.281,2.597
	c-1.346,1.536-1.289,3.593-0.18,5.119c1.174,1.609,3.086,2.242,4.883,1.591c1.893-0.651,3.094-2.429,2.971-4.383
	c-0.127-1.834-1.547-3.397-3.41-3.899c-0.691-0.177-1.586,0.093-1.953-0.866c-0.992-2.577-2.029-5.137-3.121-7.919
	c2.051,0.148,3.875,0.251,5.701,0.372c0.377,0.037,0.754,0.103,1.141,0.121c0.705,0.046,0.959,0.53,1.209,1.107
	c0.676,1.572,1.902,2.503,3.607,2.661c2.055,0.205,3.887-1.033,4.514-2.996c0.596-1.88-0.25-4.039-2.004-5.063
	c-1.664-0.969-3.926-0.531-5.355,0.939c-0.473,0.503-0.551,1.535-1.344,1.508c-2.025-0.047-4.037-0.279-6.031-0.438
	c0-0.614,0.307-0.81,0.543-1.005c3.59-3.164,7.191-6.291,10.76-9.475c0.578-0.502,1.029-0.354,1.617-0.111
	c2.104,0.81,4.084,0.177,5.295-1.61c0.98-1.461,0.863-3.666-0.285-5.034c-1.328-1.563-3.402-2.057-5.15-1.238
	c-1.822,0.838-2.865,2.811-2.389,4.868c0.197,0.855,0.197,1.396-0.504,1.991c-3.957,3.369-7.893,6.794-11.803,10.256
	c-0.74,0.642-1.279,0.753-2.111,0.148c-3.16-2.308-6.369-4.541-9.541-6.813c-0.404-0.288-0.85-0.549-0.82-1.126
	c0.219-2.996,0.443-6.002,0.676-9.25c2.756,2.494,5.303,4.812,7.893,7.119c0.553,0.483,0.443,0.959,0.293,1.601
	c-0.48,2.01,0.242,3.751,1.877,4.83c1.459,0.939,3.203,0.894,4.729-0.14c1.48-0.996,2.314-2.895,1.639-4.728
	c-0.518-1.396-0.021-1.582,1.109-1.973c2.033-0.698,3.037-2.941,2.541-5.063c-0.451-1.944-2.678-3.843-4.475-3.173
	c-2.213,0.847-3.15-0.419-4.324-1.629c-0.684-0.707-1.395-1.377-2.082-2.065c-1.236-1.229-2.469-2.476-3.865-3.881
	c2.559-0.717,4.807-1.331,7.037-1.974c0.715-0.195,1.092,0.271,1.5,0.708c1.039,1.098,2.283,1.665,3.795,1.387
	c2.252-0.429,3.83-2.346,3.729-4.468c-0.109-2.121-1.813-3.937-3.904-4.159c-2.129-0.233-3.996,1.163-4.609,3.499
	c-0.229,0.855-0.645,1.219-1.508,1.433c-2.057,0.475-4.098,1.015-6.119,1.676c-1.012,0.325-1.6,0.111-2.121-0.81
	c-0.965-1.629-1.963-3.258-3.063-4.803c-0.666-0.939-0.697-1.749-0.299-2.829c2.029-5.5,3.953-11.037,5.947-16.547
	c0.316-0.847,0.377-1.498-0.635-1.777c-1.039-0.279-0.934,0.68-1.123,1.191c-1.92,5.193-3.664,10.47-5.736,15.579
	c-0.91,2.261-0.875,4.039,0.652,5.928c1.863,2.308,2.934,5.193,5.119,7.296c2.469,2.373,4.865,4.83,7.297,7.241
	c0.482,0.483,0.873,0.902,0.584,1.693c-0.447,1.163-0.416,2.326,0.117,3.49c0.133,0.278,0.369,0.521-0.008,0.837
	c-0.816,0.68-2.508,0.614-3.34-0.14c-1.779-1.591-3.59-3.154-5.33-4.783c-1.682-1.592-3.518-3.016-4.645-5.184
	c-1.6-3.09-3.256-6.151-5.097-9.093c-0.824-1.33-0.829-2.4-0.188-3.74c3.213-6.673,5.381-13.736,7.604-20.781
	c0.268-0.856,0.447-1.657-0.645-2.001c-1.219-0.382-0.934,0.818-1.092,1.293c-1.467,4.421-2.795,8.897-4.553,13.225
	c-2.13,5.258-4.737,10.386-4.917,16.23c-0.048,1.219-0.324,2.085-1.696,2.364c-0.811,0.167-1.398,0.81-1.862,1.507
	c-1.328,2.048-0.815,4.653,1.218,6.05c1.758,1.2,4.444,0.8,5.72-0.875c1.473-1.898,1.175-4.616-0.701-6.114
	c-0.544-0.447-1.228-0.707-1.043-1.619C137.866,198.924,138.055,197.603,138.34,195.909z"/>
<path fill="#E3E4E2" d="M156.623,160.126c-1.502-11.251-4.785-21.972-9.545-32.274c-1.984-4.299-0.838-8.604,2.914-11.828
	c5.256-4.514,14.523-5.687,20.98,1.214c0.131,0.116,0.279,0.237,0.42,0.368c0.148-0.261,0.115-0.484-0.152-0.642
	c-1.547-3.071-4.094-4.979-7.355-6.272c3.787-2.438,7.355-4.951,8.564-9.511c-3.182,5.174-8.287,6.775-13.871,7.557
	c-2.748,0.372-5.395,1.08-7.932,2.345c3.877-10.293,9.281-19.101,21.084-22.047c-4.107-0.27-8.125,1.429-15.404,6.431
	c0.311-3.359,0.004-6.612-0.127-9.883c-0.15-3.285,1.498-6.17,3.689-8.636c0.346-0.409,0.74-0.782,1.117-1.182
	c0.154-0.149,0.32-0.303,0.479-0.452c0.088-0.107,0.275-0.265,0.258-0.293c-0.18-0.224-0.346-0.084-0.504,0.042
	c-0.188,0.144-0.381,0.256-0.588,0.396c-2.664,1.415-4.145,3.867-5.529,6.542c-0.785-1.075-0.824-2.484-2.254-3.476
	c3.094,8.343,2.529,16.104-1.783,24.034c-0.42-6.58-2.205-12.178-6.723-16.593c1.445,3.313,2.467,6.751,2.836,10.339
	c0.592,5.732,0.266,11.391-2.086,16.765c-0.912,2.071-2.1,3.927-4.037,5.188c-1.793,1.163-2.783,0.833-3.844-1.261
	c1.508,0.126,2.297-0.646,2.209-2.075c-0.057-0.926-0.018-2.238-1.328-2.401c-1.117-0.154-2.151,1.214-2.291,2.666
	c-0.01,0.167,0,0.316,0,0.493c-2.438-3.555-3.512-7.547-3.766-11.772c-0.627-10.488,2.139-20.148,7.297-29.212
	c0.237-0.423,0.486-0.847,0.724-1.266c0.009-0.13,0.018-0.261,0.022-0.4c-0.102,0.047-0.211,0.103-0.329,0.149
	c-1.288,1.284-2.095,2.945-3.305,4.569c-0.583-3.462-1.101-6.712-3.953-8.862c-0.122-0.116-0.241-0.335-0.417-0.084
	c-0.021,0.033,0.146,0.184,0.215,0.275c1.398,2.178,2.284,4.521,2.512,7.122c0.206,2.359,0.07,4.556-0.99,6.789
	c-3.016,6.347-4.383,13.141-4.725,20.139c-0.039,0.814-0.074,1.615-0.105,2.429c0,0.102-0.07,0.186-0.118,0.279
	c-2.687-3.253-5.802-14.546-4.741-26.426c0.127-1.345,0.244-2.675,0.377-4.02c-0.584,1.284-0.864,2.62-0.903,4.006
	c-0.425,3.099-0.714,6.226-0.714,9.818c-3.778-5.026-8.508-6.943-14.688-6.021c2.184,0.279,4.006,0.535,5.755,1.154
	c3.936,1.377,6.771,3.993,8.735,7.636c0.691,1.279,0.473,2.662,0.652,3.997c0.636,4.634,1.696,9.162,3.283,13.964
	c-2.521-1.494-5.066-1.233-7.539-1.447c-1.928-0.177-3.439-1.247-4.768-2.597c-1.807-1.843-3.125-4.021-4.422-6.235
	c-0.316-0.535-0.426-1.219-1.039-1.573c-0.039-0.13-0.084-0.261-0.119-0.391c-0.029,0.037-0.074,0.074-0.074,0.121
	c-0.008,0.149,0,0.289,0.22,0.251c0.079,3.872,1.933,6.901,4.575,9.543c0.373,0.377,0.789,0.712,1.324,1.196
	c-3.06,0.4-5.768,1.214-8.656,3.034c2.31-0.209,4.146-0.419,5.974-0.54c5.294-0.363,10.399,0.237,15.032,3.131
	c0.938,0.582,1.666,1.326,2.27,2.266c5.076,8.068,7.684,16.938,8.822,26.317c0.32,2.634,0.684,5.277,0.597,7.948
	c-4.737-2.531-9.134-5.594-13.573-8.599c-6.197-4.188-12.337-8.44-18.88-12.088c-6.079-3.411-12.438-6.086-19.2-7.832
	c-6.942-1.792-14.029-2.257-21.111-1.773c-10.641,0.717-20.875,3.453-30.827,7.236c-3.55,1.35-11.78,4.779-12.416,4.937
	c0.057-6.449,1.288-12.889,2.765-19.125c2.551-10.74,6.544-20.925,11.952-30.558c7.7-13.717,17.719-25.464,30.025-35.206
	c12.057-9.563,25.476-16.584,40.28-20.912c9.002-2.643,18.175-4.169,27.523-4.679c6.1-0.316,12.195-0.049,18.297,0.526
	c6.713,0.651,13.328,1.768,19.791,3.618c33.002,9.507,57.615,29.527,73.896,59.738c5.811,10.791,9.619,22.316,11.662,34.447
	c0.934,5.612,1.508,11.224,1.805,16.886c-2.357,2.708-5.324,4.736-8.143,6.905c-6.732,5.23-13.932,9.771-21.598,13.504
	c-7.973,3.899-16.338,6.653-25.047,8.217c-6.047,1.08-12.174,1.415-18.293,1.006c-10.127-0.67-19.953-2.95-29.416-6.72
	C157.768,160.284,157.229,160.052,156.623,160.126z M188.682,85.336c0-3.466-1.611-7.366-3.887-9.357
	c-2.924-2.559-6.723-1.889-8.436,1.563c-1.531,3.081-1.508,6.268-0.221,9.446c0.141,0.335,0.268,0.717,0.684,0.847
	c1.303,0.437,2.127,1.442,2.967,2.429c1.004,1.182,2.25,1.815,3.857,1.694C186.758,91.734,188.682,89.231,188.682,85.336z
	 M130.951,60.453c0,1.736,0.297,3.644,2.305,4.586c2.1,0.968,3.967,0.202,5.479-1.324c2.945-3.02,4.703-6.622,4.742-10.907
	c0.014-2.769-1.604-3.911-4.282-3.169C134.553,50.931,131.073,55.409,130.951,60.453z M157.645,56.661c0.328,0,0.648,0.023,0.982,0
	c2.887-0.142,3.979-1.726,3.063-4.479c-1.117-3.336-3.41-5.502-6.836-6.37c-4.467-1.119-7.775,1.526-7.797,6.138
	c0,0.875,0.275,1.407,1.029,1.842C151.063,55.477,154.217,56.484,157.645,56.661z M128.859,50.546
	c0.022-1.149-0.1-2.266-0.621-3.317c-1.053-2.101-2.85-2.817-5.001-1.936c-3.958,1.62-6.526,7.231-5.159,11.3
	c0.768,2.269,2.6,3.144,4.892,2.333C126.393,57.703,128.803,54.283,128.859,50.546z M157.768,64.206
	c-0.021-3.686-2.988-7.222-6.01-7.17c-2.943,0.042-6.258,3.411-6.209,6.286c0.057,3.211,3.195,6.028,6.715,6.005
	C155.594,69.308,157.799,67.258,157.768,64.206z M107.39,71.027c-2.209,0.133-4.37,0.565-6.267,1.843
	c-1.434,0.949-2.477,2.215-2.209,4.039c0.275,1.931,1.665,2.973,3.422,3.518c3.13,0.94,8.318-0.716,10.369-3.262
	c1.28-1.596,1.092-3.429-0.534-4.695C110.781,71.376,109.125,71.118,107.39,71.027z M182.682,68.259
	c-0.086-3.001-1.016-5.67-3.396-7.622c-2.471-2.043-6.131-0.784-6.793,2.252c-0.648,3.027,1.299,7.964,3.844,9.721
	c1.994,1.386,4.344,0.865,5.594-1.217C182.508,70.427,182.682,69.369,182.682,68.259z M165.621,54.016
	c0.078,1.852,0.762,4.037,2.568,5.737c1.092,1.01,2.35,1.31,3.746,0.626c2.279-1.084,3.988-4.06,3.797-6.563
	c-0.238-2.976-3.152-5.753-5.947-5.67C167.352,48.22,165.621,50.423,165.621,54.016z M177.033,110.887
	c0.096-1.489,0.438-2.643,0.096-3.862c-0.227-0.852-0.818-1.284-1.611-1.358c-0.666-0.075-1.42-0.317-1.947,0.418
	c-1.037,1.457-1.156,3.071-0.477,4.644c0.564,1.321,1.889,0.763,2.879,0.614c0.969-0.121,0.82,0.344,0.74,0.893
	c-0.174,1.07-0.434,2.131-0.268,3.229c0.242,1.689,1.211,2.382,2.84,1.95c2.043-0.526,3.814-1.568,5.234-3.127
	c0.854-0.963,1.328-2.094,1.34-3.401c0.018-1.503-0.367-3.015-1.547-3.769c-1.201-0.763-2.611,0.009-3.816,0.688
	C179.225,108.542,178.369,109.784,177.033,110.887z M117.325,127.196c0.666,0.023,1.739-0.093,2.77-0.484
	c2.63-1.01,3.331-3.56,1.608-5.77c-2.424-3.123-7.293-3.867-10.535-1.652c-2.42,1.666-2.529,4.286-0.207,6.068
	C112.705,126.703,114.748,127.173,117.325,127.196z M117.693,63.896c0.009-3.001-2.16-5.544-4.769-5.577
	c-3.002-0.035-5.505,2.792-5.53,6.261c-0.022,3.062,1.822,5.405,4.232,5.379C114.779,69.918,117.667,67.033,117.693,63.896z
	 M162.891,71.37c1.498,0,2.857-0.551,4.137-1.268c1.557-0.875,2.617-2.101,2.6-3.995c-0.021-1.968-1.004-3.392-2.66-4.36
	c-1.691-0.984-3.998-0.851-5.475,0.426c-1.963,1.717-2.607,3.944-2.082,6.461C159.787,70.46,161.006,71.37,162.891,71.37z
	 M167.83,82.186c1.734-0.009,3.602-0.693,4.969-2.448c1.557-2.029,1.211-4.932-0.766-6.761c-1.674-1.542-4.195-1.324-6.119,0.535
	c-1.219,1.168-1.832,2.652-2.15,4.276C163.162,80.958,164.17,82.158,167.83,82.186z M189.449,57.484
	c0-2.833-1.857-5.677-4.602-6.938c-1.371-0.642-2.857-0.991-4.164,0c-1.357,1.036-1.664,2.604-1.52,4.237
	c0.117,1.168,0.625,2.178,1.459,3.011c1.752,1.752,3.908,2.468,6.346,2.352C189.139,60.053,189.467,59.646,189.449,57.484z
	 M139.681,48.197c2.687-0.258,5.294-1.075,7.218-3.327c0.959-1.126,1.162-2.436,0.535-3.802c-0.613-1.352-1.783-1.826-3.188-1.793
	c-3.063,0.067-5.512,1.484-7.532,3.66c-2.401,2.61-1.862,3.694,1.704,5.128C138.756,48.204,139.172,48.155,139.681,48.197z
	 M103.879,47.313c0.014,2.21,1.175,3.06,3.738,2.592c1.319-0.249,2.582-0.782,3.9-1.059c1.964-0.417,2.945-1.258,3.135-2.95
	c0.196-1.636-0.943-3.569-2.481-4.195C108.691,40.266,103.844,43.553,103.879,47.313z M106.25,92.125
	c-0.065-0.307-0.136-1.023-0.368-1.675c-0.513-1.386-1.314-2.578-2.914-2.754c-1.578-0.186-2.516,0.884-3.173,2.122
	c-1.24,2.271-1.881,4.732-1.688,7.352c0.141,1.973,1.402,2.764,3.273,2.141C103.91,98.444,106.219,95.224,106.25,92.125z
	 M128.066,134.032c1.736,0.051,3.301-0.438,4.712-1.475c0.933-0.693,1.157-1.475,0.544-2.518c-1.478-2.443-3.621-3.843-6.443-4.137
	c-1.857-0.181-3.213,0.852-3.729,2.667C122.238,131.724,124.32,134.013,128.066,134.032z M105.676,62.421c0-0.7,0.018-0.968,0-1.233
	c-0.131-1.61-1.121-2.311-2.59-2.704c-1.564-0.407-1.626,0.877-2.121,1.678c-0.605,0.942-0.881,2.059-1.911,2.775
	c-2.165,1.526-2.48,3.853-0.985,6.08c0.337,0.509,0.719,0.758,1.311,0.8c1.617,0.1,3.045-0.258,4.027-1.633
	C104.717,66.342,105.448,64.248,105.676,62.421z M195.002,71.695c0.057-1.052-0.188-2.052-0.658-2.978
	c-1.326-2.617-3.795-2.985-5.779-0.833c-1.158,1.233-1.736,2.727-1.762,4.428c-0.014,2.084,0.818,3.56,2.318,4.076
	c1.547,0.526,3.896-0.242,4.965-1.643C194.762,73.847,195.041,72.814,195.002,71.695z M93.668,86.327
	c-4.177,0.037-6.324,3.202-4.624,6.58c0.784,1.554,2.073,2.429,3.712,2.95c1.337,0.419,2.091,0.019,2.783-1.149
	c1.324-2.248,1.42-4.472,0.408-6.854C95.442,86.69,94.781,86.066,93.668,86.327z M164.709,127.34
	c1.486-0.145,2.885-0.544,4.076-1.461c1.762-1.377,1.959-4.151,0.451-5.975c-1.354-1.601-3.361-1.689-5.184-0.172
	c-1.102,0.907-1.965,2.001-2.412,3.383C160.848,125.572,162.15,127.377,164.709,127.34z M156.098,122.091
	c2.611-0.032,4.883-1.475,4.83-3.043c-0.105-3.16-1.912-5.36-4.361-5.295c-2.23,0.051-4.475,2.559-4.475,5.007
	C152.084,120.724,153.762,122.133,156.098,122.091z M134.014,90.394c-0.025,3.099,1.67,5.649,3.997,6.496
	c0.903,0.335,1.517,0.177,2.126-0.531c1.924-2.201,1.683-5.789-0.578-7.948c-1.101-1.051-2.411-1.563-3.866-0.931
	C134.343,88.067,134.058,89.389,134.014,90.394z M153.512,130.383c3.527,0.014,4.926-1.996,3.686-4.872
	c-0.779-1.792-2.287-2.411-4.063-2.42c-1.863,0-3.58,0.484-4.549,2.275c-0.746,1.419-0.311,2.95,1.047,3.83
	C150.883,130.002,152.32,130.3,153.512,130.383z M159.459,41.675c0.109,3.401,1.818,5.637,4.238,5.544
	c2.1-0.091,3.848-2.217,3.746-4.535c-0.092-2.227-1.822-3.82-4.053-3.769C161.006,38.965,159.41,40.1,159.459,41.675z
	 M127.484,37.464c-0.07-3.011-0.798-3.353-3.791-2.292c-0.447,0.158-0.842,0.491-1.21,0.817c-1.954,1.71-2.915,4.001-3.669,6.412
	c-0.236,0.751,0.172,0.826,0.732,0.842c2.064,0.074,4.006-0.333,5.724-1.494C126.77,40.724,127.541,39.3,127.484,37.464z
	 M130.359,43.953c2.787-0.342,4.965-2.303,6.481-5.088c0.597-1.101,0.995-2.408-0.185-3.427c-1.223-1.049-2.453-0.484-3.523,0.358
	c-2.139,1.685-3.559,3.911-4.54,6.421C128.049,43.618,128.313,43.927,130.359,43.953z M187.336,98.667
	c-2.686,0-4.145,1.154-4.162,3.262c-0.014,2.243,1.861,3.885,4.471,3.895c2.207,0.009,3.725-1.326,3.686-3.253
	C191.289,100.156,189.756,98.658,187.336,98.667z M175.705,97.29c-0.008,2.871,0.623,3.723,2.775,3.732
	c2.59,0.009,4.277-1.61,4.246-4.072c-0.021-2.164-1.727-4.053-3.633-4.053C177.152,92.897,175.715,94.792,175.705,97.29z
	 M189.121,93.056c0,1.47,0.25,2.904,0.652,3.676c0.754,1.517,1.955,1.889,3.305,0.893c1.574-1.154,2.41-2.773,2.48-4.7
	c0.074-2.047-1.586-3.508-3.957-3.648c-1.391-0.084-2.166,0.884-2.441,3.006C189.121,92.618,189.129,92.944,189.121,93.056z
	 M96.556,80.041c0.035-1.675-1.46-3.671-2.747-3.694c-2.451-0.051-4.375,1.484-4.445,3.56c-0.078,1.955,1.42,3.49,3.432,3.504
	C94.956,83.442,96.525,82.037,96.556,80.041z M162.732,105.14c2.074,0.004,3.709-1.745,3.752-4.035
	c0.035-1.489-1.789-3.545-3.217-3.639c-1.148-0.083-3.143,2.411-3.143,3.937C160.107,104.34,160.66,105.131,162.732,105.14z
	 M97.84,112.571c0.162,2.605,0.754,4.299,2.568,5.276c1.994,1.084,3.77,0.028,3.782-2.243c0-1.312-0.359-2.568-0.981-3.727
	c-0.627-1.196-1.561-1.829-2.92-1.382C98.962,110.9,97.704,111.478,97.84,112.571z M193.91,87.104
	c0.904,0.004,1.5,0.256,2.113-0.275c2.121-1.88,1.822-5.556-0.617-6.998c-1.943-1.159-3.805-0.242-4.023,1.978
	c-0.109,1.093,0.008,2.154,0.314,3.215C192.043,86.327,192.539,87.388,193.91,87.104z M156.637,38.874
	c0.07-2.236-1.412-3.436-3.533-2.794c-1.438,0.426-2.428,1.394-2.467,2.885c-0.061,1.694,0.268,3.395,1.924,4.369
	c1,0.593,1.885,0.126,2.635-0.6C156.246,41.675,156.566,40.316,156.637,38.874z M97.914,105.889
	c-0.263-2.382-1.051-4.579-2.896-6.287c-0.697-0.642-1.529-0.833-2.393-0.391c-0.671,0.33-1.17,0.926-0.969,1.708
	c0.622,2.262,1.735,4.309,3.379,5.989c0.645,0.647,1.635,0.526,2.472,0.302C98.129,107.034,97.844,106.392,97.914,105.889z
	 M141.303,107.611c2.033-0.009,3.137-1.135,3.115-3.122c-0.031-2.062-1.051-3.671-2.371-3.686c-2.02-0.023-3.467,1.587-3.488,3.885
	C138.528,106.75,139.352,107.615,141.303,107.611z M177.699,45.344c0-1.468-0.955-2.817-2.379-3.395
	c-1.373-0.549-3.209-0.123-4.207,0.91c-0.514,0.526-0.369,0.933-0.049,1.434c0.871,1.352,2.002,2.436,3.449,3.136
	C176.389,48.371,177.717,47.48,177.699,45.344z M115.713,91.492c0-1.517-1.391-3.304-2.578-3.271
	c-1.7,0.032-3.265,1.684-3.247,3.438c0.022,1.657,1.136,2.838,2.669,2.857C114.305,94.535,115.713,93.181,115.713,91.492z
	 M125.797,73.801c-0.031,1.88,1.108,3.909,2.213,3.964c1.267,0.065,3.238-1.968,3.27-3.387c0.039-1.322-1.644-3.108-3.002-3.192
	C127.55,71.135,125.797,72.977,125.797,73.801z M106.391,56.926c2.669,0,4.672-1.733,4.83-4.044c0.057-0.991-0.338-1.358-1.24-1.475
	c-1.648-0.209-4.738,1.85-5.186,3.502C104.418,56.268,104.944,56.936,106.391,56.926z M94.102,59.637
	c0.201,0.6-0.158,1.717,0.768,2.117c0.801,0.351,1.704,0.019,2.449-0.491c1.385-0.926,2.218-4.269,1.416-5.621
	c-0.246-0.407-0.623-0.375-0.982-0.407C95.631,55.077,94.075,56.861,94.102,59.637z M116.641,103.33
	c1.807-0.042,2.424-0.763,2.346-2.918c-0.039-1.158-0.114-2.657-1.442-2.885c-1.964-0.326-3.317,1.177-3.317,3.178
	C114.227,102.422,115.099,103.372,116.641,103.33z M122.036,69.492c0.197-0.875-0.245-1.133-1.147-1.149
	c-2.441-0.042-4.423,1.068-4.444,2.592c-0.026,1.251,1.179,2.587,2.393,2.625C120.529,73.643,121.949,71.86,122.036,69.492z
	 M92.252,70.618c0.285-0.058,0.828-0.133,1.328-0.284c1.328-0.375,1.744-1.859,0.701-2.727c-1.188-0.984-2.616-1.5-4.194-1.324
	c-0.456,0.058-0.96,0.098-1.078,0.766C88.742,68.701,90.307,70.592,92.252,70.618z M144.436,79.952
	c1.051,0.065,1.984,0.103,2.455-1.209c0.473-1.377,0.236-2.531-0.461-3.681c-0.285-0.479-0.723-0.358-1.156-0.303
	c-1.557,0.237-2.152,1.173-2.381,3.513C142.771,79.506,142.871,80.38,144.436,79.952z M124.416,63.822
	c1.608-0.017,2.332-1.01,2.77-2.343c0.207-0.642,0.715-1.659,0.137-1.917c-1.061-0.467-2.184,0.184-3.164,0.766
	c-0.325,0.184-0.614,0.451-0.873,0.719c-0.521,0.549-1.108,1.243-0.802,1.992C122.79,63.822,123.715,63.738,124.416,63.822z
	 M188.287,64.222c0.018-1.426-0.998-2.485-2.309-2.426c-1.162,0.058-2.121,0.384-2.104,1.859c0.018,1.568,0.814,2.426,2.34,2.445
	C187.533,66.116,188.188,65.416,188.287,64.222z M145.605,37.648c1.359,0.017,2.67-0.984,2.629-2.11
	c-0.047-1.284-1.305-1.149-2.143-1.442c-0.188-0.067-0.416-0.042-0.639-0.025c-1.381,0.067-2.104,1.01-2.234,2.168
	c-0.119,1.042,1.063,0.977,1.746,1.277C145.211,37.597,145.492,37.615,145.605,37.648z M129.01,84.345
	c-0.01-1.07-0.544-1.787-1.588-1.954c-0.696-0.107-1.945,1.833-1.901,2.945c0.04,1.019,0.188,2.01,1.612,1.917
	C128.355,87.179,129.018,86.178,129.01,84.345z M170.258,93.149c-0.166-0.698,0.188-1.824-1.078-1.545
	c-0.824,0.195-2.252-0.507-2.34,1.145c-0.092,1.508,0.691,2.401,1.984,2.429C170.336,95.206,170.043,93.991,170.258,93.149z
	 M102.85,102.315c-0.645,0.265-1.666-0.019-1.539,1.214c0.092,1.042,0.509,1.829,1.666,1.736c0.715-0.051,1.647-0.177,1.617-1.177
	C104.555,103.088,103.883,102.464,102.85,102.315z M162.137,74.662c-0.018,0.023-0.066,0.07-0.057,0.084
	c0.025,0.042,0.057,0.079,0.096,0.107c0.021-0.065,0.045-0.121,0.07-0.182C162.215,74.671,162.176,74.671,162.137,74.662z"/>
<path fill="#E3E4E2" d="M7.869,139.789c-0.053-4.667,0.391-8.875,0.895-13.5c0.775-7.24,2.23-14.327,4.186-21.33
	c4.018-14.369,10.395-27.593,18.84-39.843c5.396-7.832,11.574-14.993,18.535-21.439c7.836-7.287,16.403-13.576,25.773-18.804
	c9.773-5.437,20.007-9.662,30.766-12.598c5.842-1.594,11.785-2.62,17.82-3.369c7.586-0.942,15.164-1.51,22.779-1.101
	c3.617,0.2,7.211,0.775,10.83,1.101c6.451,0.584,12.75,2.017,18.951,3.676c6.232,1.668,12.314,3.878,18.205,6.556
	c7.504,3.392,14.721,7.271,21.496,11.957c3.77,2.61,7.389,5.437,10.949,8.354c4.412,3.611,8.467,7.596,12.283,11.766
	c5,5.446,9.523,11.3,13.547,17.554c3.48,5.386,6.564,10.946,9.309,16.716c2.543,5.379,4.654,10.949,6.377,16.635
	c1.459,4.774,2.66,9.623,3.551,14.555c0.486,2.625,0.586,5.342,1.506,7.873c-2.594,2.987-5.553,5.63-8.287,8.483
	c-0.455-7.254-1.586-14.411-3.322-21.456c-2.77-11.289-7.082-21.972-12.84-32.079c-7.219-12.664-16.461-23.662-27.496-33.135
	c-8.678-7.445-18.268-13.515-28.641-18.327c-13.934-6.463-28.58-10.123-43.861-11.175c-9.944-0.675-19.832-0.142-29.68,1.559
	c-16.794,2.894-32.356,8.922-46.691,18.145c-6.022,3.878-11.605,8.329-16.908,13.117c-4.138,3.718-7.981,7.796-11.475,12.149
	c-5.176,6.436-9.855,13.208-13.722,20.546c-4.146,7.887-7.656,16.035-10.019,24.648c-1.385,5.016-2.507,10.065-3.34,15.202
	c-0.705,4.369-0.981,8.957-1.398,13.359c-0.03,0.307-0.17-0.093,0,0C13.663,137.084,11.003,138.271,7.869,139.789z"/>
<path fill="#643713" d="M10.025,165.356c2.727-1.601,5.452-3.239,8.182-4.858c0.475,2.671,0.834,5.36,1.438,8.004
	c6.693,29.147,21.664,53.12,45.146,71.631c20.291,15.97,43.484,24.643,69.215,26.281c13.787,0.884,27.43-0.466,40.783-4.216
	c25.375-7.119,46.482-20.865,63.32-41.172c11.021-13.289,18.881-28.328,23.627-44.959c1.311-4.597,2.559-9.203,2.998-13.987
	c3.369-2.866,6.723-5.723,10.084-8.571c-0.346,6.04-1.342,11.978-2.717,17.841c-6.863,29.287-21.668,53.763-44.764,73.008
	c-26.107,21.74-56.287,31.986-90.277,31.046c-8.218-0.232-16.33-1.256-24.333-3.033c-25.468-5.687-47.411-17.868-65.862-36.286
	c-11.574-11.567-20.686-24.875-27.343-39.831C15.101,186.352,11.896,176.067,10.025,165.356z"/>
<path fill="#309888" d="M10.025,165.356c1.871,10.711,5.075,20.995,9.497,30.915c6.657,14.965,15.769,28.273,27.343,39.822
	c18.442,18.427,40.395,30.59,65.862,36.285c8.021,1.787,16.124,2.802,24.341,3.034c33.975,0.949,64.152-9.288,90.281-31.056
	c23.084-19.217,37.91-43.712,44.752-72.999c1.385-5.862,2.371-11.81,2.717-17.85c2.717-2.624,5.443-5.258,8.488-8.217
	c-0.131,2.727-0.162,5.025-0.35,7.306c-0.959,11.14-3.055,22.056-6.465,32.729c-14.834,46.309-53.688,82.511-100.809,93.967
	c-12.127,2.95-24.416,4.467-36.875,4.122c-32.12-0.874-60.91-11.177-85.965-31.399c-22.986-18.565-38.637-42.12-47.092-70.477
	c-1.043-3.509-1.937-7.984-2.84-11.53C3.213,170.01,7.961,166.548,10.025,165.356z"/>
<path fill="#319989" d="M16.805,135.535c0.43-4.397,0.688-8.799,1.398-13.159c0.833-5.142,1.963-10.19,3.336-15.202
	c2.366-8.618,5.881-16.761,10.022-24.652c3.856-7.343,8.546-14.104,13.722-20.548c3.484-4.353,7.332-8.422,11.465-12.159
	c5.308-4.777,10.891-9.23,16.918-13.115c14.34-9.223,29.897-15.244,46.688-18.138c9.834-1.691,19.73-2.227,29.666-1.549
	c15.281,1.042,29.938,4.711,43.869,11.172c10.383,4.811,19.963,10.891,28.633,18.329c11.053,9.472,20.277,20.488,27.504,33.143
	c5.754,10.097,10.066,20.771,12.842,32.069c1.734,7.063,2.883,14.211,3.322,21.47c-1.785,1.536-3.283,3.388-5.373,4.569
	c-0.299-5.677-0.863-11.293-1.807-16.891c-2.041-12.136-5.859-23.662-11.67-34.443c-16.273-30.22-40.895-50.24-73.896-59.73
	c-6.445-1.868-13.068-2.976-19.791-3.618c-6.092-0.593-12.188-0.858-18.289-0.535c-9.339,0.5-18.512,2.036-27.527,4.669
	c-14.804,4.336-28.228,11.358-40.289,20.914c-12.293,9.749-22.32,21.498-30.016,35.206c-5.404,9.627-9.401,19.808-11.947,30.548
	c-1.477,6.217-2.7,12.508-2.757,18.948C21.004,134.115,16.937,135.25,16.805,135.535z"/>
<path fill="#2E9686" d="M264.734,162.09c-0.447,4.783-1.688,9.399-2.998,13.987c-4.738,16.621-12.6,31.67-23.627,44.968
	c-16.813,20.298-37.945,34.053-63.32,41.172c-13.354,3.741-26.996,5.091-40.783,4.216c-25.723-1.657-48.924-10.321-69.215-26.291
	c-23.482-18.51-38.453-42.483-45.137-71.621c-0.605-2.634-0.965-5.342-1.447-8.013c1.627-1.182,3.35-2.225,5.177-3.063
	c3.19,22.745,11.969,43.033,26.673,60.65c15.887,19.003,35.836,31.874,59.674,38.621c12.376,3.499,25.037,4.886,37.852,4.188
	c25.287-1.358,47.977-9.827,67.926-25.518c13.713-10.777,24.49-24.001,32.428-39.515c4.668-9.083,8.082-18.613,10.225-28.599
	C260.221,165.356,262.48,163.746,264.734,162.09z"/>
<path fill="#C69430" d="M123.526,213.284c-3.401,1.126-6.478,3.099-9.896,4.095c-3.195,0.931-3.84,3.48-4.844,5.938
	c-0.223,0.53,0.08,0.818,0.32,1.182c2.665,3.825,5.365,7.631,7.955,11.53c0.981,1.471,2.406,2.317,3.773,3.285
	c2.125,1.499,4.325,2.895,6.477,4.384c0.732,0.512,1.303,0.633,2.184,0.148c1.91-1.061,3.975-0.596,5.276,0.996
	c1.358,1.629,1.425,3.694,0.167,5.397c-1.083,1.489-3.222,2.075-4.979,1.387c-1.941-0.763-3.085-2.587-2.718-4.681
	c0.15-0.838-0.096-1.164-0.701-1.573c-2.572-1.693-5.136-3.452-7.678-5.202c-0.745-0.521-1.209-0.521-1.586,0.419
	c-0.514,1.266-1.061,2.513-1.697,3.713c-0.486,0.875,0.102,1.396,0.496,2.038c1.279,2.029,0.986,4.226-0.732,5.705
	c-1.625,1.405-3.856,1.471-5.514,0.065c-1.357-1.146-1.914-2.634-1.467-4.384c0.508-1.945,1.914-3.071,3.848-3.257
	c1.121-0.121,1.438-0.661,1.984-1.471c2.297-3.294,1.941-6.104-0.736-9.093c-2.051-2.289-3.598-5.025-5.381-7.547
	c-0.053-0.093-0.18-0.121-0.347-0.214c-0.728,1.321-1.394,2.392-0.132,3.992c1.627,2.057,0.701,4.988-1.556,6.104
	c-2.323,1.183-4.991,0.205-5.96-2.168c-1.004-2.438,0.205-5.258,2.857-5.705c1.92-0.307,2.428-1.387,2.98-2.848
	c0.814-2.178,1.727-4.309,2.621-6.542c-1.171-0.131-2.184-0.214-3.195-0.363c-0.93-0.148-1.03,0.643-1.377,1.136
	c-1.438,2.02-3.957,2.531-6,1.163c-1.972-1.321-2.471-4.011-1.107-6.049c1.822-2.699,5.999-2.392,7.357,0.614
	c0.514,1.163,1.205,1.256,2.297,1.479c3.77,0.726,6.652-1.461,9.816-2.708c2.205-0.885,4.344-1.982,6.566-2.866
	c0.99-0.373,1.428-1.052,1.586-2.029c0.425-2.736,0.854-5.463,1.311-8.18c0.148-0.875,0-1.396-1.061-1.173
	c-0.684,0.148-1.398,0.288-2.096,0.261c-3.282-0.121-4.609,2.671-6.6,4.438c-0.447,0.41-0.044,0.81,0.078,1.201
	c0.75,2.252-0.18,4.569-2.203,5.5c-1.994,0.912-4.541,0.046-5.623-1.927c-1.021-1.852-0.377-4.318,1.441-5.64
	c0.96-0.698,2.107-0.939,3.104-0.586c1.438,0.53,2.248-0.037,3.055-1.024c0.402-0.493,0.867-0.931,1.406-1.507
	c-3.383-0.633-6.635-0.326-9.83-0.764c-0.82-0.121-0.942,0.521-1.258,1.005c-1.14,1.787-3.024,2.541-4.9,1.937
	c-1.959-0.596-3.221-2.28-3.168-4.234c0.065-1.945,1.367-3.519,3.4-4.058c1.92-0.521,3.967,0.399,4.816,2.363
	c0.426,1.005,1.004,1.257,1.955,1.303c3.309,0.103,6.622,0.261,9.927,0.41c2.516,0.102,4.974-0.308,7.437-0.651
	c0.518-0.075,0.912-0.224,1.188-0.717c2.687-4.7,5.403-9.381,8.003-14.192c-3.379,1.303-7.24,1.629-9.401,5.146
	c-0.368,0.604-0.631,0.977-0.347,1.73c0.982,2.606-0.258,5.044-2.817,5.808c-2.271,0.651-4.698-0.764-5.272-3.099
	c-0.635-2.513,0.82-4.793,3.428-5.352c0.407-0.074,0.934-0.195,1.271-0.028c1.46,0.81,2.31,0.112,3.046-1.07
	c1.446-2.279,3.795-3.304,6.219-3.806c4.26-0.912,6.535-3.248,7.18-7.612c0.424-2.876,1.524-5.659,2.41-8.46
	c0.145-0.419-0.149-1.563,1.029-1.145c0.93,0.316,0.96,0.949,0.701,1.824c-1.148,3.797-2.318,7.584-3.3,11.428
	c-1.188,4.625-4.194,8.283-6.329,12.415c-1.227,2.345-2.615,4.635-3.992,6.914c-0.469,0.772-0.508,1.471-0.171,2.28
	c0.505,1.257,0.842,2.605,1.411,3.815c1.473,3.118,1.723,6.431,1.398,9.716c-0.479,5.025,0.859,9.12,4.15,13.066
	c4.027,4.839,7.459,10.162,11.049,15.337c0.705,1.033,1.506,0.978,2.506,0.949c2.223-0.065,3.73,1.098,4.309,3.192
	c0.504,1.833-0.289,3.703-1.986,4.728c-1.529,0.931-3.668,0.791-5.025-0.372c-1.359-1.173-2.018-3.258-1.141-4.887
	c0.693-1.266,0.299-2.038-0.42-3.006c-4.273-5.899-8.498-11.818-13.039-18.166c0,1.974-0.025,3.49,0.01,5.017
	c0.004,0.54,0.587,0.559,0.946,0.763c1.902,1.052,2.835,2.857,2.397,4.69c-0.504,2.104-2.091,3.443-4.133,3.499
	c-2.104,0.057-3.713-1.172-4.277-3.275c-0.518-1.908,0.32-3.778,2.31-4.877c0.644-0.335,0.815-0.734,0.815-1.396
	c-0.132-6.784-0.18-13.597-0.408-20.381c-0.07-1.833-1.082-3.49-1.805-5.491c-0.75,1.703-0.732,3.285-0.991,4.747
	c-0.763,4.393-1.358,8.813-2.13,13.159c-0.158,0.939,0.096,1.34,0.785,1.861c1.634,1.2,2.151,3.489,1.345,5.285
	c-0.745,1.657-2.796,2.773-4.563,2.476c-1.924-0.325-3.44-1.926-3.659-3.862c-0.224-1.991,0.925-3.824,2.967-4.513
	c0.851-0.279,1.21-0.652,1.307-1.573c0.263-2.42,0.973-4.774,0.986-7.231c0.029-0.083,0.069-0.148,0.104-0.214
	C123.662,213.2,123.597,213.237,123.526,213.284z M121.252,193.731c1.244-0.019,2.077-0.931,2.008-2.233
	c-0.063-1.322-0.864-1.927-2.096-2.001c-1.196-0.074-2.17,0.949-2.139,2.141C119.043,192.856,120.003,193.759,121.252,193.731z
	 M114.156,207.569c0.026-1.303-0.832-2.271-2.016-2.298c-1.131-0.01-2.271,1.051-2.2,2.159c0.087,1.237,0.811,2.028,2.024,2.177
	C113.152,209.766,114.135,208.798,114.156,207.569z M102.521,200.906c1.21-0.027,2.196-0.995,2.104-2.196
	c-0.101-1.247-0.819-1.982-2.081-2.047c-1.232-0.057-2.152,0.865-2.152,2.112C100.382,200.031,101.285,200.925,102.521,200.906z
	 M122.641,228.342c1.24-0.01,2.231-0.959,2.191-2.104c-0.048-1.107-1.156-2.252-2.217-2.141c-1.21,0.131-2.004,0.735-2.017,2.075
	C120.568,227.457,121.405,228.342,122.641,228.342z M112.508,250.863c1.268,0.027,2.249-0.894,2.223-2.057
	c-0.021-1.127-1.1-2.253-2.183-2.169c-1.2,0.103-2.021,0.68-2.06,2.02C110.457,249.97,111.26,250.863,112.508,250.863z
	 M133.015,233.935c-0.109-1.079-0.903-1.777-2.081-1.936c-1.109-0.149-2.191,0.986-2.17,2.159c0.035,1.313,0.74,1.991,2.038,2.057
	C132.051,236.262,132.992,235.368,133.015,233.935z M148.762,249.262c1.586,0.028,2.457-0.744,2.51-1.898
	c0.066-1.135-0.955-2.289-2.055-2.326c-1.1-0.019-2.209,1.07-2.178,2.206C147.096,248.555,147.828,249.197,148.762,249.262z
	 M103.703,234.521c1.391,0.047,2.6-1.014,2.508-2.084c-0.102-1.191-0.754-2.057-2.051-2.131c-1.223-0.094-2.152,0.855-2.152,2.094
	C102.008,233.711,102.709,234.382,103.703,234.521z M131.555,245.577c-1.248-0.028-2.09,0.744-2.129,1.944
	c-0.049,1.21,0.854,2.243,2.064,2.271c1.068,0.037,2.23-1.099,2.146-2.215C133.549,246.331,132.879,245.586,131.555,245.577z
	 M102.441,217.443c0.021-1.247-0.74-2.14-1.893-2.187c-1.148-0.074-2.367,0.931-2.301,2.028c0.069,1.191,0.688,2.076,1.963,2.196
	C101.43,219.603,102.411,218.663,102.441,217.443z"/>
<path fill="#C69430" d="M138.34,195.909c-0.285,1.693-0.474,3.015-0.732,4.337c-0.18,0.931,0.504,1.19,1.048,1.628
	c1.884,1.499,2.183,4.216,0.696,6.114c-1.271,1.657-3.948,2.057-5.715,0.866c-2.02-1.396-2.555-3.993-1.218-6.04
	c0.46-0.707,1.052-1.331,1.858-1.508c1.367-0.288,1.652-1.163,1.691-2.354c0.188-5.854,2.787-10.973,4.922-16.23
	c1.762-4.346,3.09-8.813,4.549-13.225c0.166-0.502-0.119-1.684,1.1-1.312c1.074,0.344,0.912,1.153,0.635,2.001
	c-2.213,7.045-4.381,14.108-7.594,20.78c-0.645,1.341-0.636,2.411,0.188,3.741c1.836,2.941,3.497,6.003,5.097,9.102
	c1.117,2.159,2.953,3.602,4.633,5.185c1.744,1.638,3.559,3.183,5.342,4.783c0.824,0.754,2.529,0.828,3.34,0.148
	c0.377-0.316,0.141-0.567,0.004-0.855c-0.525-1.146-0.578-2.309-0.123-3.481c0.281-0.772-0.105-1.219-0.592-1.703
	c-2.428-2.41-4.803-4.857-7.279-7.24c-2.191-2.094-3.26-4.97-5.119-7.296c-1.541-1.889-1.563-3.667-0.652-5.928
	c2.072-5.109,3.826-10.377,5.732-15.579c0.188-0.512,0.078-1.471,1.121-1.182c1.018,0.279,0.939,0.931,0.633,1.777
	c-1.994,5.5-3.924,11.037-5.957,16.547c-0.398,1.079-0.367,1.889,0.299,2.819c1.1,1.555,2.098,3.183,3.059,4.812
	c0.529,0.894,1.104,1.126,2.125,0.801c2.012-0.652,4.063-1.21,6.119-1.676c0.854-0.195,1.279-0.577,1.498-1.433
	c0.605-2.336,2.49-3.723,4.611-3.5c2.1,0.233,3.803,2.038,3.912,4.17c0.102,2.112-1.484,4.039-3.729,4.457
	c-1.516,0.289-2.766-0.297-3.805-1.377c-0.416-0.446-0.775-0.894-1.498-0.707c-2.23,0.633-4.479,1.266-7.043,1.973
	c1.393,1.396,2.629,2.644,3.879,3.871c0.688,0.708,1.389,1.368,2.072,2.076c1.18,1.219,2.113,2.484,4.334,1.638
	c1.797-0.68,4.023,1.219,4.471,3.164c0.496,2.122-0.512,4.355-2.537,5.063c-1.141,0.391-1.627,0.567-1.117,1.964
	c0.678,1.843-0.162,3.731-1.641,4.736c-1.516,1.033-3.26,1.07-4.729,0.131c-1.625-1.07-2.34-2.82-1.867-4.83
	c0.15-0.633,0.25-1.107-0.301-1.601c-2.564-2.289-5.129-4.635-7.885-7.119c-0.232,3.257-0.461,6.254-0.676,9.25
	c-0.039,0.596,0.408,0.847,0.82,1.145c3.186,2.253,6.389,4.495,9.541,6.804c0.824,0.586,1.371,0.502,2.121-0.158
	c3.9-3.453,7.836-6.878,11.793-10.247c0.701-0.604,0.693-1.153,0.504-2.001c-0.477-2.057,0.584-4.02,2.389-4.867
	c1.744-0.818,3.822-0.316,5.145,1.247c1.154,1.35,1.281,3.564,0.281,5.025c-1.209,1.806-3.182,2.43-5.285,1.61
	c-0.596-0.242-1.043-0.391-1.617,0.111c-3.576,3.192-7.188,6.319-10.76,9.475c-0.236,0.204-0.535,0.391-0.535,1.014
	c1.986,0.158,4.006,0.392,6.023,0.429c0.801,0.027,0.871-0.996,1.357-1.499c1.438-1.479,3.686-1.907,5.342-0.949
	c1.758,1.024,2.627,3.192,2.012,5.072c-0.635,1.954-2.457,3.211-4.51,2.997c-1.717-0.168-2.936-1.107-3.611-2.671
	c-0.254-0.587-0.494-1.052-1.209-1.099c-0.385-0.019-0.762-0.093-1.139-0.111c-1.824-0.14-3.65-0.232-5.703-0.391
	c1.102,2.782,2.131,5.36,3.117,7.919c0.385,0.949,1.275,0.689,1.949,0.875c1.867,0.493,3.275,2.048,3.41,3.891
	c0.131,1.944-1.061,3.722-2.963,4.393c-1.814,0.633-3.707,0-4.891-1.602c-1.117-1.525-1.166-3.602,0.189-5.127
	c0.822-0.931,0.688-1.629,0.271-2.588c-0.799-1.843-1.631-3.685-2.223-5.603c-0.605-1.926-1.758-3.247-3.41-4.327
	c-2.809-1.852-5.504-3.871-8.34-5.882c-0.43,1.257-0.486,2.057,0.85,2.811c1.828,1.033,2.332,3.063,1.635,4.979
	c-0.691,1.861-2.527,3.052-4.451,2.856c-1.959-0.186-3.52-1.74-3.865-3.815c-0.277-1.712,0.823-3.694,2.559-4.477
	c0.535-0.241,1.119-0.325,1.158-1.145c0.188-3.583,0.41-7.138,0.41-10.832c-0.984,1.768-1.993,3.499-2.967,5.286
	c-0.359,0.679,0.26,1.079,0.518,1.572c0.851,1.629,0.903,3.276-0.232,4.746c-1.061,1.405-2.506,2.122-4.272,1.75
	c-1.806-0.354-2.972-1.508-3.432-3.304c-0.684-2.671,1.569-5.436,4.462-5.249c0.902,0.056,1.253-0.205,1.63-0.894
	c1.385-2.521,2.774-5.034,4.212-7.528c0.377-0.671,0.346-1.201,0-1.834C142.021,202.442,140.295,199.361,138.34,195.909z
	 M163.219,197.305c1.232,0,2.135-0.921,2.096-2.168c-0.039-1.294-0.719-2.011-2.004-2.075c-1.252-0.057-2.195,0.865-2.225,2.075
	C161.051,196.328,162.031,197.323,163.219,197.305z M172.422,212.177c-0.039,1.377,0.703,2.149,2.029,2.159
	c1.32,0.037,2.008-0.689,2.174-1.899c0.15-1.153-1.043-2.41-2.209-2.298C173.225,210.222,172.422,210.846,172.422,212.177z
	 M137.695,222.152c1.258,0,2.213-0.884,2.143-2.112c-0.087-1.247-0.823-1.991-2.041-2.122c-1.193-0.12-2.135,0.848-2.191,2.095
	C135.565,221.278,136.406,222.144,137.695,222.152z M146.092,226.834c-0.025-1.229-0.969-2.196-2.17-2.066
	c-1.217,0.121-1.962,0.866-2.055,2.104c-0.087,1.182,0.916,2.131,2.156,2.131C145.273,229.002,146.123,228.118,146.092,226.834z
	 M170.438,230.659c1.223,0.027,2.301-0.912,2.213-2.057c-0.1-1.22-0.793-2.02-2.033-2.169c-1.061-0.13-2.279,0.986-2.318,2.057
	C168.26,229.672,169.188,230.641,170.438,230.659z M158.736,220.487c1.064-0.131,1.783-0.875,1.924-2.075
	c0.123-1.146-0.982-2.196-2.16-2.169c-1.303,0.028-2.004,0.726-2.043,2.029C156.408,219.547,157.307,220.478,158.736,220.487z
	 M164.688,241.668c-0.088-1.321-0.754-2.084-2.012-2.196c-1.1-0.103-2.205,1.033-2.23,2.15c-0.031,1.172,0.969,2.121,2.23,2.084
	C164.004,243.642,164.596,242.869,164.688,241.668z M133.936,205.011c0.013,1.47,0.902,2.382,2.016,2.4
	c1.117,0.01,2.252-1.107,2.213-2.205c-0.043-1.173-1.064-2.122-2.292-2.038C134.58,203.252,133.979,204.043,133.936,205.011z
	 M162.141,213.312c1.031-0.009,2.1-1.07,2.117-2.094c0.021-1.089-1.096-2.187-2.227-2.131c-1.293,0.037-1.963,0.781-2.002,2.065
	C159.998,212.409,160.896,213.312,162.141,213.312z"/>
<path fill="#079939" d="M135.824,115.698c0-0.168-0.014-0.335,0-0.494c0.136-1.461,1.17-2.82,2.297-2.671
	c1.318,0.177,1.288,1.471,1.332,2.401c0.078,1.428-0.697,2.196-2.195,2.08l0.021,0.033c-0.109-0.391-0.299-0.326-0.509-0.102
	C136.446,116.521,136.14,116.107,135.824,115.698z"/>
<path fill="#C69430" d="M123.614,79.408c0.03-1.391,0.329-2.727,0.903-4.006c-0.133,1.345-0.25,2.68-0.377,4.021
	C123.969,79.413,123.794,79.408,123.614,79.408z"/>
<path fill="#E3E4E2" d="M136.753,116.945c0.21-0.224,0.407-0.289,0.509,0.102C137.1,117.015,136.933,116.982,136.753,116.945z"/>
<path fill="#079939" d="M188.682,85.336c0,3.886-1.932,6.398-5.035,6.631c-1.607,0.121-2.836-0.521-3.857-1.694
	c-0.84-0.996-1.664-1.991-2.967-2.438c-0.416-0.13-0.543-0.512-0.684-0.847c-1.287-3.178-1.311-6.356,0.221-9.446
	c1.713-3.443,5.504-4.104,8.436-1.554C187.07,77.97,188.682,81.87,188.682,85.336z"/>
<path fill="#079939" d="M130.951,60.453c0.117-5.06,3.594-9.522,8.243-10.814c2.687-0.742,4.304,0.384,4.282,3.16
	c-0.039,4.286-1.797,7.889-4.742,10.907c-1.504,1.536-3.389,2.294-5.479,1.333C131.248,64.097,130.955,62.189,130.951,60.453z"/>
<path fill="#079939" d="M157.645,56.661c-3.428-0.177-6.574-1.193-9.559-2.869c-0.754-0.426-1.029-0.968-1.029-1.842
	c0.021-4.621,3.322-7.257,7.797-6.138c3.426,0.858,5.709,3.018,6.828,6.361c0.924,2.752-0.176,4.337-3.064,4.479
	C158.293,56.684,157.965,56.661,157.645,56.661z"/>
<path fill="#079939" d="M128.859,50.546c-0.057,3.737-2.458,7.157-5.881,8.374c-2.292,0.817-4.124-0.067-4.896-2.336
	c-1.372-4.06,1.196-9.671,5.163-11.298c2.143-0.875,3.957-0.167,5,1.934C128.75,48.288,128.882,49.397,128.859,50.546z"/>
<path fill="#079939" d="M157.768,64.206c0.031,3.06-2.166,5.102-5.496,5.121c-3.52,0.017-6.666-2.794-6.715-6.005
	c-0.047-2.875,3.275-6.254,6.211-6.286C154.779,56.978,157.736,60.528,157.768,64.206z"/>
<path fill="#079939" d="M107.39,71.027c1.739,0.107,3.392,0.349,4.781,1.434c1.626,1.275,1.832,3.099,0.534,4.704
	c-2.059,2.545-7.248,4.202-10.369,3.262c-1.757-0.535-3.146-1.577-3.422-3.513c-0.268-1.829,0.784-3.095,2.209-4.044
	C103.016,71.586,105.181,71.16,107.39,71.027z"/>
<path fill="#079939" d="M182.682,68.259c0,1.11-0.174,2.168-0.762,3.134c-1.248,2.082-3.598,2.594-5.592,1.207
	c-2.555-1.747-4.492-6.677-3.84-9.72c0.658-3.027,4.316-4.286,6.793-2.25C181.666,62.589,182.596,65.258,182.682,68.259z"/>
<path fill="#079939" d="M165.621,54.016c0-3.592,1.73-5.795,4.154-5.87c2.797-0.083,5.711,2.694,5.947,5.67
	c0.197,2.494-1.516,5.47-3.795,6.563c-1.389,0.675-2.652,0.384-3.742-0.626C166.375,58.052,165.699,55.877,165.621,54.016z"/>
<path fill="#079939" d="M177.033,110.887c1.336-1.103,2.191-2.345,3.471-3.081c1.201-0.679,2.617-1.442,3.818-0.688
	c1.178,0.749,1.568,2.275,1.547,3.769c-0.014,1.308-0.486,2.438-1.342,3.401c-1.424,1.568-3.189,2.601-5.232,3.132
	c-1.635,0.437-2.6-0.256-2.844-1.945c-0.162-1.098,0.096-2.168,0.268-3.229c0.086-0.559,0.227-1.024-0.736-0.894
	c-0.982,0.14-2.318,0.698-2.885-0.624c-0.676-1.563-0.557-3.178,0.482-4.635c0.525-0.735,1.279-0.493,1.945-0.428
	c0.803,0.083,1.377,0.516,1.609,1.368C177.471,108.234,177.121,109.407,177.033,110.887z"/>
<path fill="#079939" d="M117.325,127.196c-2.586-0.023-4.62-0.498-6.372-1.838c-2.332-1.782-2.214-4.393,0.197-6.058
	c3.252-2.234,8.121-1.471,10.539,1.643c1.728,2.219,1.031,4.76-1.607,5.77C119.064,127.117,118,127.219,117.325,127.196z"/>
<path fill="#079939" d="M117.693,63.896c-0.018,3.136-2.906,6.031-6.066,6.072c-2.41,0.023-4.255-2.326-4.232-5.388
	c0.018-3.476,2.523-6.303,5.53-6.261C115.533,58.353,117.702,60.896,117.693,63.896z"/>
<path fill="#079939" d="M162.891,71.37c-1.902,0-3.104-0.91-3.48-2.752c-0.525-2.527,0.109-4.744,2.082-6.454
	c1.477-1.275,3.777-1.41,5.475-0.426c1.656,0.968,2.629,2.394,2.66,4.353c0.018,1.91-1.043,3.127-2.607,4.002
	C165.748,70.811,164.398,71.37,162.891,71.37z"/>
<path fill="#079939" d="M167.83,82.186c-3.66-0.038-4.672-1.238-4.066-4.397c0.318-1.615,0.941-3.094,2.15-4.276
	c1.916-1.852,4.436-2.078,6.119-0.535c1.967,1.819,2.322,4.732,0.766,6.761C171.441,81.493,169.557,82.177,167.83,82.186z"/>
<path fill="#079939" d="M189.449,57.484c0.01,2.162-0.32,2.569-2.488,2.678c-2.434,0.116-4.594-0.601-6.348-2.359
	c-0.832-0.842-1.34-1.845-1.459-3.02c-0.141-1.626,0.166-3.201,1.525-4.237c1.311-0.991,2.797-0.633,4.158,0
	C187.592,51.808,189.449,54.658,189.449,57.484z"/>
<path fill="#079939" d="M139.681,48.197c-0.517-0.042-0.934,0.007-1.271-0.125c-3.568-1.452-4.107-2.527-1.714-5.128
	c2.021-2.185,4.47-3.602,7.532-3.662c1.398-0.023,2.561,0.442,3.184,1.794c0.625,1.368,0.428,2.678-0.527,3.802
	C144.992,47.129,142.394,47.929,139.681,48.197z"/>
<path fill="#079939" d="M103.879,47.313c-0.025-3.76,4.804-7.047,8.292-5.621c1.53,0.626,2.669,2.56,2.481,4.195
	c-0.197,1.692-1.162,2.534-3.135,2.953c-1.318,0.274-2.576,0.817-3.9,1.059C105.063,50.372,103.9,49.523,103.879,47.313z"/>
<path fill="#079939" d="M106.25,92.125c-0.031,3.099-2.34,6.319-4.86,7.17c-1.862,0.624-3.134-0.167-3.278-2.145
	c-0.188-2.605,0.447-5.063,1.691-7.352c0.658-1.219,1.592-2.294,3.165-2.122c1.595,0.186,2.401,1.377,2.905,2.754
	C106.114,91.097,106.185,91.818,106.25,92.125z"/>
<path fill="#079939" d="M128.066,134.032c-3.746-0.019-5.82-2.299-4.917-5.444c0.517-1.824,1.862-2.866,3.726-2.671
	c2.818,0.289,4.961,1.694,6.43,4.141c0.621,1.033,0.402,1.815-0.535,2.513C131.358,133.594,129.793,134.083,128.066,134.032z"/>
<path fill="#079939" d="M105.676,62.421c-0.228,1.827-0.959,3.911-2.279,5.763c-0.98,1.375-2.418,1.733-4.035,1.633
	c-0.579-0.042-0.965-0.291-1.311-0.8c-1.478-2.236-1.162-4.553,0.99-6.086c1.029-0.719,1.311-1.827,1.897-2.778
	c0.513-0.801,0.574-2.092,2.13-1.675c1.477,0.375,2.459,1.091,2.586,2.701C105.693,61.454,105.676,61.721,105.676,62.421z"/>
<path fill="#079939" d="M195.002,71.695c0.039,1.119-0.24,2.152-0.924,3.045c-1.07,1.396-3.42,2.173-4.967,1.629
	c-1.508-0.521-2.348-1.982-2.314-4.074c0.031-1.694,0.605-3.188,1.758-4.43c1.986-2.15,4.453-1.785,5.781,0.842
	C194.814,69.65,195.059,70.644,195.002,71.695z"/>
<path fill="#079939" d="M93.668,86.327c1.108-0.261,1.774,0.368,2.27,1.536c1.013,2.382,0.926,4.602-0.398,6.854
	c-0.692,1.159-1.446,1.568-2.783,1.149c-1.639-0.521-2.918-1.405-3.707-2.95C87.344,89.519,89.496,86.364,93.668,86.327z"/>
<path fill="#079939" d="M164.709,127.34c-2.559,0.028-3.852-1.777-3.068-4.225c0.439-1.387,1.32-2.476,2.412-3.383
	c1.822-1.526,3.83-1.438,5.184,0.172c1.508,1.815,1.311,4.598-0.451,5.975C167.584,126.796,166.195,127.196,164.709,127.34z"/>
<path fill="#079939" d="M156.098,122.091c-2.336,0.042-4.023-1.368-4.014-3.341c0-2.438,2.238-4.96,4.475-5.016
	c2.449-0.056,4.264,2.145,4.359,5.305C160.98,120.616,158.709,122.059,156.098,122.091z"/>
<path fill="#079939" d="M134.014,90.394c0.044-1.005,0.329-2.327,1.696-2.903c1.438-0.628,2.748-0.13,3.849,0.921
	c2.27,2.159,2.502,5.747,0.578,7.957c-0.618,0.717-1.231,0.856-2.135,0.531C135.684,96.043,133.979,93.493,134.014,90.394z"/>
<path fill="#079939" d="M153.512,130.383c-1.201-0.083-2.629-0.381-3.896-1.196c-1.35-0.87-1.783-2.41-1.033-3.83
	c0.963-1.796,2.686-2.28,4.535-2.266c1.783,0.009,3.291,0.628,4.072,2.411C158.438,128.387,157.039,130.397,153.512,130.383z"/>
<path fill="#079939" d="M159.459,41.675c-0.057-1.575,1.547-2.71,3.928-2.759c2.234-0.051,3.965,1.542,4.057,3.769
	c0.102,2.317-1.664,4.453-3.756,4.535C161.277,47.313,159.568,45.077,159.459,41.675z"/>
<path fill="#079939" d="M127.484,37.464c0.048,1.826-0.706,3.259-2.214,4.278c-1.735,1.159-3.677,1.568-5.732,1.492
	c-0.557-0.017-0.968-0.091-0.731-0.842c0.762-2.408,1.723-4.702,3.668-6.419c0.368-0.316,0.763-0.661,1.209-0.81
	C126.691,34.121,127.414,34.454,127.484,37.464z"/>
<path fill="#079939" d="M130.359,43.953c-2.047-0.026-2.311-0.342-1.758-1.745c0.981-2.501,2.393-4.728,4.541-6.412
	c1.061-0.842,2.291-1.407,3.523-0.358c1.178,1.019,0.784,2.319,0.18,3.427C135.324,41.65,133.146,43.611,130.359,43.953z"/>
<path fill="#079939" d="M187.336,98.667c2.43-0.014,3.953,1.489,3.998,3.904c0.035,1.913-1.482,3.262-3.682,3.253
	c-2.6,0-4.492-1.643-4.471-3.895C183.191,99.812,184.646,98.667,187.336,98.667z"/>
<path fill="#079939" d="M175.705,97.29c0.01-2.513,1.455-4.383,3.379-4.383c1.916,0,3.611,1.894,3.639,4.053
	c0.029,2.462-1.662,4.072-4.26,4.063C176.318,101.022,175.691,100.161,175.705,97.29z"/>
<path fill="#079939" d="M189.121,93.056c0.008-0.121,0-0.438,0.047-0.763c0.26-2.112,1.053-3.08,2.441-3.006
	c2.371,0.13,4.027,1.587,3.949,3.639c-0.07,1.936-0.906,3.564-2.473,4.709c-1.357,0.978-2.559,0.619-3.313-0.893
	C189.371,95.95,189.104,94.535,189.121,93.056z"/>
<path fill="#079939" d="M96.556,80.041c-0.03,1.997-1.608,3.402-3.761,3.369c-2.012-0.023-3.51-1.549-3.432-3.504
	c0.088-2.075,1.994-3.611,4.445-3.56C95.096,76.37,96.596,78.366,96.556,80.041z"/>
<path fill="#079939" d="M162.732,105.14c-2.082-0.009-2.629-0.81-2.615-3.737c0-1.526,1.994-4.011,3.141-3.937
	c1.422,0.093,3.262,2.15,3.223,3.639C166.441,103.395,164.807,105.145,162.732,105.14z"/>
<path fill="#079939" d="M97.84,112.571c-0.136-1.103,1.122-1.671,2.454-2.085c1.354-0.447,2.297,0.196,2.923,1.382
	c0.614,1.168,0.982,2.419,0.982,3.736c-0.009,2.261-1.788,3.313-3.787,2.243C98.594,116.871,98.002,115.177,97.84,112.571z"/>
<path fill="#079939" d="M193.91,87.104c-1.379,0.284-1.861-0.777-2.213-2.08c-0.293-1.061-0.416-2.122-0.314-3.215
	c0.227-2.22,2.09-3.136,4.023-1.978c2.449,1.442,2.738,5.118,0.617,6.998C195.41,87.351,194.814,87.109,193.91,87.104z"/>
<path fill="#079939" d="M156.637,38.874c-0.07,1.442-0.391,2.801-1.459,3.86c-0.732,0.717-1.635,1.201-2.625,0.6
	c-1.658-0.975-1.986-2.685-1.924-4.369c0.039-1.484,1.037-2.459,2.457-2.885C155.225,35.438,156.703,36.638,156.637,38.874z"/>
<path fill="#079939" d="M97.914,105.889c-0.074,0.512,0.207,1.163-0.39,1.321c-0.841,0.224-1.837,0.354-2.48-0.302
	c-1.635-1.685-2.766-3.718-3.37-5.989c-0.215-0.782,0.298-1.377,0.955-1.708c0.859-0.442,1.701-0.251,2.406,0.391
	C96.863,101.311,97.651,103.507,97.914,105.889z"/>
<path fill="#079939" d="M141.303,107.611c-1.959,0-2.774-0.87-2.744-2.922c0.031-2.289,1.477-3.909,3.488-3.885
	c1.32,0.009,2.34,1.619,2.371,3.686C144.449,106.485,143.336,107.602,141.303,107.611z"/>
<path fill="#079939" d="M177.699,45.344c0.01,2.136-1.301,3.027-3.186,2.085c-1.455-0.71-2.586-1.792-3.449-3.136
	c-0.328-0.498-0.465-0.917,0.039-1.434c1-1.026,2.844-1.458,4.217-0.91C176.752,42.527,177.695,43.876,177.699,45.344z"/>
<path fill="#079939" d="M115.713,91.492c0,1.689-1.398,3.024-3.147,3.024c-1.542-0.019-2.647-1.209-2.673-2.866
	c-0.022-1.736,1.547-3.388,3.252-3.429C114.322,88.198,115.713,89.98,115.713,91.492z"/>
<path fill="#079939" d="M125.797,73.801c0-0.828,1.753-2.666,2.489-2.625c1.358,0.084,3.032,1.88,3.002,3.202
	c-0.03,1.419-2.003,3.453-3.27,3.387C126.905,77.709,125.775,75.681,125.797,73.801z"/>
<path fill="#079939" d="M106.391,56.926c-1.446,0.009-1.973-0.659-1.604-2.017c0.465-1.652,3.537-3.711,5.194-3.495
	c0.902,0.116,1.301,0.477,1.24,1.477C111.063,55.2,109.068,56.919,106.391,56.926z"/>
<path fill="#079939" d="M94.102,59.637c-0.018-2.776,1.529-4.56,3.65-4.395c0.359,0.025,0.736,0,0.982,0.41
	c0.793,1.349-0.031,4.695-1.416,5.628c-0.754,0.509-1.648,0.842-2.449,0.484C93.943,61.354,94.303,60.246,94.102,59.637z"/>
<path fill="#079939" d="M116.641,103.33c-1.542,0.042-2.428-0.908-2.428-2.615c0-2.01,1.35-3.504,3.322-3.183
	c1.319,0.223,1.407,1.731,1.446,2.885C119.064,102.562,118.455,103.288,116.641,103.33z"/>
<path fill="#079939" d="M122.036,69.492c-0.097,2.368-1.507,4.146-3.204,4.076c-1.218-0.047-2.418-1.375-2.396-2.625
	c0.03-1.526,2.012-2.636,4.443-2.594C121.791,68.368,122.233,68.617,122.036,69.492z"/>
<path fill="#079939" d="M92.252,70.618c-1.945-0.026-3.51-1.917-3.243-3.56c0.118-0.668,0.622-0.71,1.078-0.768
	c1.587-0.174,3.016,0.333,4.194,1.326c1.043,0.868,0.618,2.343-0.701,2.727C93.08,70.485,92.537,70.56,92.252,70.618z"/>
<path fill="#079939" d="M144.436,79.952c-1.564,0.428-1.664-0.456-1.551-1.67c0.236-2.35,0.828-3.285,2.389-3.522
	c0.434-0.065,0.871-0.172,1.156,0.303c0.697,1.159,0.941,2.303,0.461,3.681C146.43,80.055,145.486,80.018,144.436,79.952z"/>
<path fill="#079939" d="M124.416,63.822c-0.701-0.091-1.635,0-1.95-0.784c-0.298-0.749,0.284-1.426,0.802-1.992
	c0.259-0.277,0.557-0.535,0.881-0.719c0.982-0.582,2.096-1.217,3.156-0.766c0.592,0.258,0.088,1.275-0.132,1.917
	C126.748,62.815,126.024,63.806,124.416,63.822z"/>
<path fill="#079939" d="M188.287,64.222c-0.109,1.201-0.754,1.894-2.08,1.878c-1.521-0.019-2.314-0.868-2.342-2.445
	c-0.012-1.475,0.943-1.808,2.121-1.859C187.289,61.73,188.305,62.789,188.287,64.222z"/>
<path fill="#079939" d="M145.605,37.648c-0.119-0.033-0.395-0.051-0.641-0.149c-0.684-0.302-1.865-0.242-1.746-1.277
	c0.131-1.159,0.861-2.091,2.234-2.168c0.213-0.016,0.451-0.032,0.639,0.026c0.838,0.3,2.096,0.151,2.143,1.442
	C148.283,36.664,146.977,37.665,145.605,37.648z"/>
<path fill="#079939" d="M129.01,84.345c0.018,1.843-0.645,2.834-1.877,2.918c-1.415,0.083-1.564-0.908-1.612-1.922
	c-0.044-1.098,1.196-3.048,1.901-2.941C128.466,82.558,129,83.275,129.01,84.345z"/>
<path fill="#079939" d="M170.258,93.149c-0.215,0.852,0.078,2.066-1.438,2.029c-1.297-0.028-2.09-0.931-1.99-2.429
	c0.088-1.643,1.508-0.94,2.342-1.145C170.445,91.334,170.092,92.451,170.258,93.149z"/>
<path fill="#079939" d="M102.85,102.315c1.033,0.14,1.705,0.763,1.735,1.782c0.039,0.991-0.894,1.117-1.608,1.177
	c-1.157,0.084-1.574-0.703-1.674-1.745C101.184,102.297,102.205,102.585,102.85,102.315z"/>
<path fill="#653713" d="M160.66,75.471c0.188-0.125,0.391-0.247,0.588-0.391c0.078,0.088,0.156,0.163,0.236,0.237
	c-0.158,0.153-0.316,0.312-0.479,0.465C160.879,75.681,160.76,75.569,160.66,75.471z"/>
<path fill="#653713" d="M108.906,98.077c-0.224,0.051-0.229-0.107-0.224-0.247c0-0.037,0.048-0.083,0.079-0.121
	c0.03,0.14,0.078,0.26,0.118,0.391L108.906,98.077z"/>
<path fill="#653713" d="M171.23,116.955c0.268,0.167,0.311,0.381,0.158,0.642c-0.145-0.13-0.293-0.242-0.434-0.363
	C171.055,117.141,171.143,117.047,171.23,116.955z"/>
<path fill="#653713" d="M132.309,69.101c-0.078-0.1-0.236-0.258-0.223-0.284c0.176-0.258,0.293-0.042,0.416,0.074
	C132.441,68.959,132.371,69.027,132.309,69.101z"/>
<path fill="#653713" d="M139.786,73.187c0.109-0.046,0.21-0.102,0.319-0.158c0,0.13-0.013,0.27-0.021,0.4
	C139.975,73.354,139.887,73.271,139.786,73.187z"/>
<path fill="#653713" d="M162.137,74.662c0.039,0,0.07,0,0.109,0.009c-0.018,0.061-0.049,0.116-0.07,0.182
	c-0.035-0.023-0.07-0.065-0.096-0.107C162.08,74.731,162.119,74.685,162.137,74.662z"/>
<path fill="#653713" d="M161.238,75.081c0.158-0.125,0.324-0.265,0.496-0.033c0.025,0.014-0.162,0.182-0.26,0.289
	C161.396,75.243,161.316,75.169,161.238,75.081z"/>
<path fill="#663813" d="M121.252,193.731c-1.249,0.046-2.209-0.865-2.23-2.075c-0.035-1.191,0.941-2.215,2.134-2.159
	c1.231,0.084,2.034,0.679,2.095,2.01C123.324,192.801,122.492,193.713,121.252,193.731z"/>
<path fill="#663813" d="M114.156,207.569c-0.021,1.229-0.994,2.196-2.195,2.038c-1.219-0.158-1.959-0.931-2.029-2.177
	c-0.07-1.117,1.069-2.169,2.2-2.159C113.324,205.309,114.183,206.285,114.156,207.569z"/>
<path fill="#663813" d="M102.521,200.906c-1.235,0.019-2.13-0.875-2.13-2.122s0.92-2.178,2.152-2.112
	c1.271,0.065,1.972,0.791,2.081,2.048C104.717,199.911,103.73,200.888,102.521,200.906z"/>
<path fill="#663813" d="M122.641,228.342c-1.24,0-2.081-0.885-2.059-2.196c0.025-1.321,0.818-1.927,2.028-2.048
	c1.056-0.111,2.174,1.015,2.214,2.122C124.877,227.383,123.873,228.332,122.641,228.342z"/>
<path fill="#663813" d="M112.508,250.863c-1.258,0-2.051-0.875-2.011-2.215c0.03-1.331,0.858-1.908,2.06-2.011
	c1.082-0.093,2.16,1.042,2.183,2.159C114.757,249.97,113.766,250.891,112.508,250.863z"/>
<path fill="#663813" d="M133.015,233.935c-0.022,1.434-0.964,2.346-2.213,2.271c-1.288-0.064-2.003-0.744-2.038-2.047
	c-0.014-1.173,1.061-2.309,2.17-2.159C132.111,232.157,132.905,232.855,133.015,233.935z"/>
<path fill="#663813" d="M148.762,249.262c-0.934-0.074-1.666-0.707-1.715-2.028c-0.039-1.126,1.078-2.225,2.17-2.196
	c1.1,0.037,2.113,1.182,2.055,2.317C151.219,248.527,150.348,249.29,148.762,249.262z"/>
<path fill="#663813" d="M103.703,234.521c-0.994-0.139-1.695-0.818-1.704-2.121c0-1.257,0.929-2.188,2.151-2.094
	c1.298,0.074,1.951,0.93,2.052,2.131C106.299,233.507,105.094,234.549,103.703,234.521z"/>
<path fill="#663813" d="M131.555,245.577c1.32,0.009,1.986,0.763,2.082,2.01c0.092,1.107-1.078,2.252-2.146,2.215
	c-1.21-0.037-2.121-1.061-2.064-2.28C129.474,246.321,130.307,245.549,131.555,245.577z"/>
<path fill="#663813" d="M102.441,217.443c-0.025,1.22-1.008,2.169-2.23,2.038c-1.279-0.12-1.902-1.005-1.973-2.196
	c-0.057-1.098,1.162-2.094,2.301-2.028C101.701,215.304,102.463,216.196,102.441,217.443z"/>
<path fill="#653713" d="M123.526,213.284c0.07-0.047,0.136-0.094,0.197-0.131c-0.03,0.065-0.07,0.149-0.101,0.214L123.526,213.284z"
	/>
<path fill="#663813" d="M163.219,197.305c-1.201,0.019-2.168-0.968-2.133-2.159c0.021-1.219,0.98-2.141,2.225-2.075
	c1.285,0.056,1.965,0.782,2.004,2.066C165.363,196.374,164.459,197.305,163.219,197.305z"/>
<path fill="#663813" d="M172.41,212.177c0.004-1.331,0.814-1.945,2.016-2.048c1.162-0.103,2.35,1.154,2.199,2.299
	c-0.156,1.219-0.85,1.936-2.168,1.908C173.115,214.326,172.375,213.554,172.41,212.177z"/>
<path fill="#663813" d="M137.695,222.152c-1.289-0.009-2.13-0.874-2.095-2.131c0.044-1.266,0.995-2.233,2.187-2.104
	c1.219,0.131,1.959,0.866,2.038,2.122C139.918,221.269,138.953,222.152,137.695,222.152z"/>
<path fill="#663813" d="M146.092,226.834c0.031,1.284-0.818,2.178-2.068,2.168c-1.24-0.019-2.234-0.949-2.156-2.131
	c0.093-1.237,0.838-1.982,2.055-2.104C145.123,224.638,146.074,225.605,146.092,226.834z"/>
<path fill="#663813" d="M170.438,230.659c-1.24-0.019-2.178-0.978-2.131-2.169c0.041-1.089,1.258-2.196,2.318-2.057
	c1.242,0.149,1.934,0.94,2.035,2.169C172.73,229.737,171.66,230.687,170.438,230.659z"/>
<path fill="#663813" d="M158.736,220.487c-1.43-0.01-2.318-0.94-2.289-2.225c0.041-1.294,0.75-1.991,2.035-2.02
	c1.195-0.047,2.295,1.015,2.178,2.159C160.512,219.594,159.797,220.348,158.736,220.487z"/>
<path fill="#663813" d="M164.688,241.668c-0.088,1.21-0.693,1.974-2.012,2.038c-1.271,0.037-2.262-0.902-2.23-2.084
	c0.025-1.117,1.131-2.243,2.23-2.141C163.943,239.584,164.609,240.338,164.688,241.668z"/>
<path fill="#663813" d="M133.936,205.011c0.043-0.968,0.645-1.759,1.954-1.861c1.21-0.065,2.239,0.884,2.284,2.047
	c0.039,1.089-1.101,2.215-2.205,2.206C134.829,207.402,133.948,206.48,133.936,205.011z"/>
<path fill="#663813" d="M162.141,213.312c-1.252,0-2.133-0.865-2.117-2.159c0.031-1.284,0.707-2.028,2.004-2.065
	c1.131-0.056,2.244,1.042,2.223,2.131C164.25,212.241,163.18,213.303,162.141,213.312z"/>
<path fill="#FAF6F3" d="M274.48,124.543c2.061-2.326,5.404-4.927,6.584-7.905c0.822,1.908,1.459,8.938,1.686,9.558
	c-1.822,3.229-15.846,15.988-19.375,19.078c-6.158,4.783-18.219,16.36-43.168,24.792c-15.129,4.82-24.088,3.908-31.818,3.452
	c-8.84-0.847-19.209-4.132-26.695-6.747c-3.809-1.34-4.701-3.285-5.07-6.653c2.424-0.121,9.869,5.388,31.148,7.119
	c8.848,0.158,9.563,0.354,18.287-1.015c11.281-1.964,20.385-5.621,30.184-10.981c8.893-4.877,16.791-11.298,24.6-17.645
	c1.846-1.661,3.406-2.727,5.369-4.569C268.709,130.281,271.852,127.503,274.48,124.543z"/>
<path fill="#FAF6F3" d="M258.139,167.255c2.428-1.489,4.383-3.034,6.592-4.803c3.373-2.959,6.705-5.983,10.084-8.934
	c3.164-2.531,5.596-5.732,8.48-8.227c-0.027-1.024,0.516-7.845,0.029-10.59c-9.943,11.809-21.338,23.516-33.211,33.428
	c-1.744-3.583-1.762-3.462-4.816-1.694c-12.508,7.24-25.279,11.661-39.605,13.494c-7.568,0.717-12.346,0.968-20.178-0.409
	c-8.512-2.085-9.234-1.814-17.518-5.519c-0.867-0.391-8.611-3.853-10.102-4.663c-1.268-0.67-1.367-0.102-1.43,0.754
	c-0.205,2.783-0.068,2.987,1.648,3.825c11.098,5.426,16.965,7.976,28.588,10.349c18,3.127,29.24-1.303,39.369-4.728
	c6.285-2.206,8.131-3.536,14.17-7.119c-0.119,1.293-1.281,6.645-1.281,6.645s0.088-0.14,0.904-0.177l10.557-6.319"/>
<path fill="#FAF6F3" d="M10.025,165.356c-2.095,1.191-7.113,4.653-7.113,4.653s-1.297-4.086-1.455-6.506
	c2.698-2.093,28.693-19.159,49.551-26.048c2.252-0.875,3.304-0.986,4.921-0.931c1.057-0.125,1.854-0.13,2.319,0.754
	c0.434,0.847-0.465,1.601-1.123,2.177c-1.108,0.959-5.009,3.862-6.534,4.839c0.28,0.996,11.465-4.094,16.688-4.671
	c17.781-4.123,31.691-4.309,49.516,6.43c7.017,4.226,14.163,8.711,21.286,12.75c1.319,0.853-0.395,3.899-1.069,3.536
	c-7.822-4.197-16.627-9.027-24.973-12.154c-10.479-3.918-20.654-6.226-31.896-6.096c-21.492,0.629-32.487,6.392-37.506,8.013
	c0.508-2.131,1.144-4.746,2.213-7.547c-7.179,4.271-14.458,8.674-21.471,12.861c-1.665,0.996-3.497,2.066-5.172,3.062
	C15.438,161.987,12.689,163.988,10.025,165.356z"/>
<line fill="none" x1="1.615" y1="164.221" x2="1.238" y2="164.23"/>
<path fill="#FAF6F3" d="M11.787,167.013"/>
<path fill="#653713" d="M186.613,184.797"/>
<path fill="#FAF7F4" d="M0.051,144.045c1.832-1.759,25.494-12.861,34.675-15.951c7.495-2.518,17.343-6.603,31.362-7.427
	c7.906-0.651,12.42-0.177,21.106,1.778c7.446,1.926,12.719,4.309,19.204,7.827c7.004,4.202,8.766,5.263,18.881,12.098
	c4.584,3.108,11.842,7.911,13.564,8.589c0.298,1.545,0.078,3.983,0.053,5.072c-1.938-0.717-19.984-12.787-29.75-19.292
	c-25.992-16.938-49.65-11.596-57-9.651c-10.075,2.652-51.641,22.894-52.127,22.968C0.012,148.67,0.051,145.44,0.051,144.045z"/>
</svg>
