<?xml version="1.0" encoding="utf-8"?>
<!-- Generator: Adobe Illustrator 16.0.0, SVG Export Plug-In . SVG Version: 6.00 Build 0)  -->
<!DOCTYPE svg PUBLIC "-//W3C//DTD SVG 1.1//EN" "http://www.w3.org/Graphics/SVG/1.1/DTD/svg11.dtd">
<svg version="1.1" id="Capa_1" xmlns="http://www.w3.org/2000/svg" xmlns:xlink="http://www.w3.org/1999/xlink" x="0px" y="0px"
	 width="2586.43px" height="566.178px" viewBox="0 2015.844 2586.43 566.178" enable-background="new 0 2015.844 2586.43 566.178"
	 xml:space="preserve">
<g>
	<path fill="#0C5E0A" d="M2586.432,2400.806c-2.828-0.219-5.656-0.633-8.483-0.633c-857.728-0.031-1715.452-0.031-2573.177-0.008
		c-1.527,0-3.055,0.414-4.578,0.641c0-1.28,0-2.563,0-3.844c3.773-8.797,0.898-18.039,1.805-27.022c3.5-0.164,7-0.478,10.504-0.478
		c853.904-0.017,1707.805-0.017,2561.711-0.008c3.518,0,7.023,0.227,10.531,0.344c1.305,9.008-1.758,18.289,1.688,27.164
		C2586.432,2398.243,2586.432,2399.523,2586.432,2400.806z"/>
	<path fill="#6E9F6D" d="M2586.432,2396.962c-3.445-8.875-0.383-18.156-1.688-27.164c0.563,0.094,1.125,0.188,1.688,0.289
		C2586.432,2379.048,2586.432,2388.001,2586.432,2396.962z"/>
	<path fill="#6E9F6D" d="M1.997,2369.938c-0.906,8.984,1.969,18.229-1.805,27.023c0-8.961,0-17.914,0-26.875
		C0.793,2370.032,1.391,2369.985,1.997,2369.938z"/>
	<path fill="#673402" d="M1281.938,2221.469c8.596-41.117,17.2-82.232,25.778-123.358c5.219-25,10.508-49.984,15.523-75.023
		c1.055-5.266,3.133-7.375,8.852-7.211c15.023,0.438,30.07,0.397,45.094,0.022c6.234-0.147,7.267,1.313,5.945,7.563
		c-17.375,81.813-34.414,163.688-51.531,245.555c-3.586,17.188-7.391,34.336-10.53,51.61c-1.164,6.431-4.039,8.031-10.22,7.836
		c-14.375-0.461-28.797-0.586-43.165,0.048c-6.746,0.298-9.391-2.353-11.711-8.173c-25.293-63.392-50.844-126.68-76.336-189.993
		c-1.133-2.813-2.398-5.569-4.762-11.03c-4.754,22.603-8.949,42.407-13.086,62.22c-9.725,46.555-19.465,93.107-29.053,139.696
		c-1.059,5.146-2.908,7.444-8.75,7.25c-14.693-0.5-29.43-0.453-44.129-0.039c-6.676,0.194-8.5-0.813-6.91-8.281
		c19.896-93.68,39.32-187.454,58.996-281.173c4.828-23.009,5.039-22.962,28.379-22.962c9.277,0,18.596,0.522,27.813-0.181
		c6.742-0.508,9.492,2.306,11.824,8.109c25.452,63.328,51.141,126.563,76.766,189.82c1.066,2.625,2.176,5.233,3.266,7.853
		C1280.641,2221.571,1281.289,2221.523,1281.938,2221.469z"/>
	<path fill="#673402" d="M1805.424,2188.907c-17.594,0-35.195,0.241-52.781-0.143c-5.602-0.116-7.852,1.72-8.953,7.104
		c-8.28,40.672-16.961,81.266-25.125,121.961c-1.516,7.569-3.788,11.297-12.633,10.741c-14.977-0.938-30.078-0.772-45.078-0.056
		c-8.28,0.393-8.641-2.719-7.227-9.336c13.234-62.147,26.313-124.329,39.359-186.517c7.469-35.625,15.028-71.234,22-106.961
		c1.516-7.781,4.364-10.346,12.391-9.945c15,0.742,30.078,0.688,45.086,0.023c8.07-0.359,8.852,2.451,7.367,9.313
		c-7.367,34.018-14.172,68.156-21.711,102.125c-1.586,7.133-0.953,9.305,7.016,9.211c34.867-0.414,69.742-0.393,104.609,0.008
		c6.614,0.078,8.646-2.344,9.828-8.204c7.016-34.741,14.45-69.396,21.396-104.146c1.203-6.023,3.234-8.509,9.828-8.289
		c15.977,0.531,31.992,0.422,47.977,0.055c6.339-0.146,8.269,1.104,6.814,7.961c-20.931,98.703-41.656,197.454-62.133,296.251
		c-1.273,6.148-3.023,8.596-9.617,8.406c-16.306-0.477-32.633-0.375-48.939-0.047c-6.016,0.125-7.422-0.93-6.008-7.43
		c9-41.5,17.269-83.165,26.242-124.665c1.383-6.359,0.194-7.648-5.961-7.539C1841.26,2189.118,1823.346,2188.907,1805.424,2188.907z
		"/>
	<path fill="#673402" d="M2067.331,2016.023c8.32,0,16.647,0.287,24.953-0.104c5.977-0.271,6.727,1.617,5.477,7.229
		c-14.827,66.703-29.289,133.491-44.063,200.211c-7.189,32.443,5.133,51.086,38.03,56c11.103,1.654,22.414,1.602,33.517-0.01
		c26.594-3.857,45.055-18.039,54.539-43.654c11.93-32.234,17.233-66.057,24.438-99.414c8.102-37.455,15.733-75.01,23.43-112.549
		c1.094-5.318,2.852-8.115,9.242-7.896c15.977,0.563,32,0.477,47.983,0.047c6.922-0.18,8.742,1.484,7.211,8.609
		c-11.375,52.758-22.483,105.568-33.438,158.414c-4.549,21.923-10.241,43.478-17.768,64.569
		c-19.594,54.923-60.469,81.018-116.68,85.884c-18.164,1.569-36.484,1.353-54.5-2.298c-60.781-12.28-90.609-57.547-77.586-118.944
		c13.391-63.096,27.664-126,41.358-189.032c1.164-5.345,3.242-7.509,8.898-7.188
		C2050.667,2016.375,2059.01,2016.023,2067.331,2016.023z"/>
	<path fill="#673402" d="M2527.198,2106.422c-2.234,0.104-4.479,0.229-6.711,0.297c-6.711,0.195-13.961,2.039-20,0.109
		c-7.259-2.305-3.992-11.641-7.25-17.328c-3.703-6.453-7.398-12.646-13.306-17.305c-16.702-13.188-57.375-14.938-75.018-3.219
		c-18.031,11.977-18.742,36.492-1.156,49.422c12.424,9.125,26.635,15.055,40.609,21.313c17.469,7.82,35.022,15.471,51.633,25.063
		c42.518,24.563,55.109,72.953,29.797,115.406c-12.356,20.732-29.865,36.008-52.688,43.946
		c-43.703,15.188-87.461,14.352-129.883-4.328c-39.281-17.305-50.5-49.422-51.884-86.643c-0.155-4.318,1.695-5.365,5.603-5.555
		c16.608-0.813,33.203-1.781,49.797-2.906c3.859-0.266,6.189,0.393,6.148,4.828c-0.023,1.896,0.516,3.797,0.741,5.695
		c3.523,29.211,13.492,40,42.406,44.008c15.228,2.107,30.656,1.969,45.789-1.563c22.625-5.267,36.172-23.767,31.68-42.798
		c-2.305-9.766-8.741-16.077-16.952-20.977c-13.478-8.018-28.031-13.789-42.203-20.384c-13.297-6.188-26.578-12.431-39.617-19.142
		c-31.195-16.078-46.969-41.805-45.094-76.938c1.953-36.555,20.141-63.443,54.156-76.818c39.944-15.703,81-15.086,120.43,2.039
		c32.858,14.271,49.922,41.391,54.516,76.711c0.695,5.375-1.594,5.836-5.688,5.789c-8.617-0.117-17.242-0.039-25.859-0.039
		C2527.198,2105.547,2527.198,2105.984,2527.198,2106.422z"/>
	<path fill="#673402" d="M27.993,2328.313c3.281-5.93,5.68-10.344,8.148-14.719c54.437-96.43,108.941-192.829,163.171-289.376
		c3.414-6.078,6.969-8.578,14.051-8.375c18.531,0.531,37.094,0.445,55.633,0.023c6.074-0.143,8.359,1.905,9.273,7.688
		c8.281,52.354,16.754,104.673,25.191,157.009c7.418,46.022,14.734,92.063,22.434,138.039c1.188,7.086,0.896,10.346-7.758,9.914
		c-14.672-0.732-29.414-0.477-44.113-0.068c-6.004,0.164-8.285-1.523-9.023-7.75c-2.141-18.071-5.273-36.018-7.582-54.071
		c-0.715-5.608-2.859-7.406-8.523-7.367c-36.773,0.229-73.547,0.25-110.316-0.021c-5.547-0.048-7.77,2.547-10.059,6.805
		c-10.105,18.844-20.508,37.522-30.73,56.297c-1.898,3.484-3.629,6.173-8.523,6.104
		C69.465,2328.134,49.653,2328.313,27.993,2328.313z M229.813,2081.531c-23.656,43.146-45.984,83.875-68.797,125.492
		c28.07,0,54.617-0.188,81.156,0.142c5.828,0.063,6.125-2.313,5.441-6.813C241.75,2161.579,235.98,2122.797,229.813,2081.531z"/>
	<path fill="#673402" d="M731.031,2328.313c8.27-14.672,15.736-27.944,23.227-41.211c49.425-87.563,98.913-175.094,148.137-262.772
		c3.371-6,6.795-8.719,13.975-8.5c18.531,0.57,37.098,0.469,55.641,0.047c6.605-0.146,8.48,2.203,9.488,8.508
		c15.551,97.462,31.383,194.868,47.207,292.282c1.895,11.664,2.051,11.643-9.367,11.648c-14.074,0.008-28.16-0.385-42.211,0.172
		c-6.344,0.242-8.246-2.258-9.004-7.906c-2.422-18.04-5.512-36-7.648-54.079c-0.703-5.952-2.977-7.258-8.439-7.227
		c-36.781,0.194-73.568,0.202-110.347-0.031c-4.973-0.022-7.408,1.897-9.594,5.961c-10.275,19.117-20.848,38.078-31.172,57.172
		c-1.918,3.539-3.609,6.134-8.479,6.056C772.629,2328.134,752.809,2328.313,731.031,2328.313z M864.188,2207.016
		c28.32,0,55.117-0.154,81.914,0.109c7.023,0.063,4.824-4.313,4.363-7.602c-3.195-22.768-6.527-45.518-9.918-68.26
		c-2.354-15.818-4.863-31.607-7.637-49.576C909.422,2124.523,887.102,2165.227,864.188,2207.016z"/>
	<path fill="#673402" d="M1419.34,2068.445c3.234-16.383,6.508-31.969,9.313-47.643c1.18-6.555,5.897-4.701,9.641-4.719
		c34.211-0.107,68.43-0.063,102.641-0.063c41.892,0,83.779,0.266,125.662-0.221c8.82-0.102,9.07,3.32,7.578,9.992
		c-2.646,11.836-5.317,23.688-7.18,35.664c-0.898,5.797-3.32,7.148-8.759,7.094c-24.616-0.258-49.25,0.148-73.866-0.281
		c-6.931-0.125-9.742,1.703-11.203,8.807c-16.584,80.647-33.662,161.195-50.201,241.859c-1.531,7.444-4.125,9.853-11.672,9.556
		c-15.648-0.604-31.336-0.438-46.992-0.056c-6.146,0.155-7.688-1.431-6.383-7.563c13.078-61.493,25.93-123.04,38.852-184.563
		c4.136-19.673,7.867-39.453,12.644-58.97c2.039-8.357-0.859-9.133-7.969-9.039
		C1474.293,2068.648,1447.137,2068.445,1419.34,2068.445z"/>
	<path fill="#673402" d="M564.793,2276.086c53.105,0,105.781,0,158.922,0c-3.281,16.117-6.5,31.407-9.449,46.75
		c-0.832,4.328-2.99,5.555-7.223,5.547c-70.363-0.102-140.723-0.107-211.086,0.008c-5.098,0.01-6.473-0.99-5.313-6.482
		c21.025-99.625,41.869-199.298,62.572-298.993c1.156-5.547,3.582-7.125,9.023-7.008c16.305,0.328,32.629,0.414,48.93-0.023
		c7.061-0.193,7.574,1.984,6.23,8.313c-17.402,82.125-34.5,164.32-51.668,246.493
		C565.418,2272.211,565.195,2273.758,564.793,2276.086z"/>
	<path fill="#673402" d="M395.777,2328.313c-8,0-16.035-0.49-23.984,0.143c-7.277,0.586-7.703-2.586-6.48-8.336
		c9.238-43.407,18.35-86.854,27.475-130.29c11.223-53.43,22.293-106.897,33.695-160.297c3.504-16.406-0.359-13.181,16.729-13.469
		c13.434-0.221,26.914,0.577,40.301-0.25c9.207-0.57,9.5,3.133,7.965,10.365c-12.387,58.414-24.547,116.876-36.783,175.321
		c-8.182,39.063-16.535,78.094-24.424,117.219c-1.408,6.979-3.447,10.664-11.477,9.773
		C411.207,2327.648,403.457,2328.313,395.777,2328.313z"/>
	<path fill="#0F1718" d="M1217.934,2514.11c-0.004-14.711-0.098-29.423,0.021-44.134c0.188-23.228,13.926-39.858,36.832-40.866
		c20.469-0.898,41.476-4.688,61.522,3.625c1.273,0.521,2.228,0.53,3.539,0.063c23.634-8.53,48-5.021,71.892-2.805
		c18.133,1.688,30.703,18.508,30.866,37.305c0.289,31.656,0.181,63.32,0.039,94.984c-0.055,12.961-6.164,18.25-20.28,18.336
		c-14.337,0.086-21.228-5.634-21.328-18.578c-0.211-26.858-0.289-53.733,0.086-80.594c0.094-6.604-1.445-9-8.344-8.492
		c-8.595,0.625-17.289,0.563-25.892,0.017c-6.563-0.414-8.68,1.431-8.578,8.319c0.414,27.5,0.203,55.009,0.156,82.518
		c-0.016,12.68-3.883,16.547-16.522,16.805c-1.923,0.039-3.845,0.031-5.759,0.008c-13.491-0.18-17.241-3.758-17.289-17.086
		c-0.086-26.866-0.336-53.741,0.164-80.594c0.156-7.983-1.991-10.772-10.047-9.983c-7.285,0.702-14.723,0.517-22.047,0.03
		c-5.84-0.391-7.582,1.367-7.504,7.384c0.348,26.22,0.184,52.444,0.137,78.672c-0.031,19.211-16.699,28.75-33.602,19.289
		c-6.375-3.563-8.091-9.461-8.074-16.241C1217.953,2546.095,1217.934,2530.104,1217.934,2514.11z M1318.489,2443.979
		c-3.922-5.875-8.914-8.892-15.394-8.892c-16.304,0.008-32.632-0.5-48.904,0.267c-15.906,0.75-29.057,13.53-29.313,28.858
		c-0.559,33.25-0.242,66.508-0.289,99.767c-0.008,4.164,1.402,7.5,5.445,9.259c13.473,5.852,23.332-0.484,23.354-15.104
		c0.053-26.857,0.164-53.719-0.072-80.577c-0.07-7.767,3.107-11.194,10.766-11.069c8.953,0.141,17.906-0.018,26.863,0.039
		c12.792,0.063,14.425,1.625,14.457,14.319c0.063,27.181,0,54.358,0.03,81.539c0.023,11.353,0.431,11.664,13.07,11.681
		c13.273,0.008,13.828-0.423,13.844-12.104c0.039-28.141,0.228-56.28-0.116-84.414c-0.103-8.021,3.305-11.047,10.719-11.021
		c10.555,0.021,21.102-0.07,31.656,0.008c10.952,0.078,12.897,1.961,12.93,12.853c0.07,26.858-0.039,53.728,0.055,80.586
		c0.039,11.655,2.597,14.063,14.164,14.086c12.097,0.022,14.367-1.978,14.398-13.642c0.078-30.375,0.172-60.758-0.031-91.133
		c-0.141-21.031-13.039-33.898-34.195-34.273c-15.021-0.266-30.063,0.104-45.086-0.133
		C1329.333,2434.759,1322.848,2436.204,1318.489,2443.979z"/>
	<path fill="#0F1718" d="M1111.023,2581.188c-16.639,0-33.277,0.135-49.914-0.029c-24.66-0.234-41.578-16.924-41.855-41.549
		c-0.258-23.352-0.25-46.719-0.004-70.068c0.258-24.664,17.133-41.57,41.676-41.711c33.918-0.203,67.836-0.117,101.754-0.023
		c13.436,0.049,18.844,5.773,19.031,19.523c0.207,15-5.32,21.891-18.809,22.016c-29.117,0.26-58.238,0.148-87.355,0.031
		c-5.742-0.031-10.141-0.586-9.938,8.031c0.189,8.029,4.164,7.563,9.615,7.539c29.756-0.117,59.514-0.086,89.271-0.039
		c14.566,0.021,17.227,3.146,17.219,19.75c-0.008,16.305-2.754,19.414-17.555,19.43c-29.758,0.047-59.518,0.133-89.271-0.078
		c-5.986-0.039-9.115,0.578-9.258,8.07c-0.152,8.172,4.078,7.531,9.473,7.518c28.156-0.117,56.316,0.211,84.471-0.135
		c22.854-0.279,24.77,11.117,20.828,31.453c-1.475,7.607-8.799,10.328-16.582,10.297
		C1146.223,2581.143,1128.625,2581.188,1111.023,2581.188z M1110.871,2575.001c16.637,0,33.27,0.063,49.906-0.022
		c11.969-0.063,14.59-2.789,14.621-14.681c0.033-12.633-1.307-14.063-14.531-14.102c-28.793-0.086-57.586-0.009-86.375-0.039
		c-13.219-0.018-14.621-1.398-14.625-13.923c-0.004-13.108,1.09-14.28,14.18-14.298c29.754-0.039,59.504,0.009,89.258-0.021
		c11.605-0.018,12.063-0.556,12.096-12.806c0.033-13.767-0.131-14.022-11.799-14.039c-30.715-0.039-61.426-0.017-92.137-0.017
		c-3.824,0-8.457,0.688-10.141-3.586c-2.621-6.656-2.785-14.022-0.129-20.531c2.141-5.241,8.121-4.077,12.852-4.077
		c29.432-0.039,58.863,0.077,88.293-0.086c10.438-0.056,13.061-3.233,13.061-14.345c-0.005-11.03-2.652-14.327-12.984-14.383
		c-33.91-0.164-67.828-0.43-101.729,0.086c-21.996,0.336-35.178,14.703-35.26,36.897c-0.082,22.077-0.064,44.147-0.008,66.228
		c0.066,23.742,13.547,37.392,37.465,37.695C1078.875,2575.157,1094.875,2574.993,1110.871,2575.001z"/>
	<path fill="#0F1718" d="M717.891,2427.773c16.953,0,33.914-0.063,50.871,0.022c11.768,0.055,17.878,4.767,19.146,14.414
		c2.176,16.617-1.375,24.008-13.306,27.805c-4.327,1.375-8.758,1.595-13.266,1.578c-24.633-0.055-49.27-0.063-73.906,0.017
		c-3.176,0.017-7.104-1.438-7.314,4.586c-0.216,6.077,3.219,5.741,7.27,5.733c21.117-0.055,42.234-0.094,63.35-0.008
		c21.154,0.094,36.765,15.444,37.347,36.711c0.199,7.357,0.219,14.727-0.031,22.077c-0.809,23.556-17.53,40.233-41.063,40.414
		c-34.23,0.259-68.467,0.116-102.703,0.039c-10.996-0.03-17.273-4.983-18.492-14.056c-2.109-15.711,2.07-24.944,13.215-28.125
		c3.617-1.039,7.566-1.219,11.371-1.232c25.914-0.104,51.832-0.048,77.746-0.063c3.723,0,7.563,1.039,7.504-5.357
		c-0.059-6.729-4.396-4.854-7.789-4.969c-22.996-0.768-46.098,1.805-68.992-1.484c-23.547-3.383-33.203-15.031-33.242-38.75
		c-0.012-6.398-0.129-12.805,0.061-19.195c0.68-22.875,17.438-39.664,40.402-40.086
		C683.328,2427.523,700.613,2427.782,717.891,2427.773z M695.621,2574.985c16.953,0,33.914,0.313,50.859-0.078
		c21.521-0.508,35.05-14.522,35.304-35.897c0.074-6.397,0.074-12.798,0-19.188c-0.23-18.875-12.472-31.203-31.155-31.271
		c-21.43-0.07-42.867-0.156-64.297,0.047c-8.129,0.078-12.34-2.367-12.445-11.508c-0.117-9.51,3.98-12.242,12.725-12.143
		c24.629,0.289,49.262,0.146,73.895,0.047c4.133-0.016,8.402-0.107,12.363-1.125c8.309-2.125,10.382-7.547,8.899-20.279
		c-0.854-7.359-5.636-9.563-12.015-9.578c-34.547-0.055-69.102-0.438-103.641,0.156c-20.832,0.352-34.078,14.977-34.285,35.914
		c-0.074,7.357,0.133,14.719-0.043,22.068c-0.293,12.143,5.848,19.768,16.52,24.445c9.023,3.961,18.617,4.393,28.207,4.469
		c18.234,0.156,36.469,0.039,54.703,0.057c4.234,0.008,9.207-0.135,9.867,5.266c1.617,13.289,0.902,18.305-12.801,18.07
		c-27.5-0.469-55.021-0.289-82.527-0.031c-10.762,0.094-14.121,4.656-13.941,17.055c0.152,10.469,3.045,13.414,13.906,13.484
		C662.352,2575.087,678.984,2575.001,695.621,2574.985z"/>
	<path fill="#0F1718" d="M348.809,2427.773c16.957,0,33.914-0.069,50.875,0.022c11.021,0.063,17.563,4.875,19.027,13.656
		c2.646,15.844-1.156,24.452-12.637,28.357c-4.59,1.556-9.355,1.813-14.195,1.798c-24.316-0.086-48.633-0.095-72.949,0.022
		c-3.285,0.017-7.732-2.022-7.918,4.781c-0.193,7.336,4.557,5.43,8.271,5.444c20.797,0.086,41.594-0.048,62.391,0.069
		c21.008,0.109,36.867,15.914,37.172,36.898c0.105,7.039,0.104,14.077,0,21.116c-0.34,23.767-17.396,41.017-41.328,41.181
		c-34.232,0.241-68.473,0.125-102.707,0.03c-11.188-0.03-17.336-5.202-18.715-15.147c-2.008-14.492,2.625-24.008,13.691-27.031
		c3.934-1.069,8.211-1.211,12.332-1.227c25.598-0.109,51.193-0.07,76.789-0.031c3.977,0,7.504,0.422,7.41-5.633
		c-0.092-5.914-3.828-4.643-7.117-4.75c-23.313-0.759-46.734,1.875-69.949-1.5c-23.219-3.367-33.25-15.484-33.289-38.97
		c-0.012-6.077-0.184-12.173,0.055-18.233c0.953-23.969,17.918-40.547,41.922-40.82
		C314.891,2427.618,331.852,2427.773,348.809,2427.773z M326.785,2574.993c16.633,0,33.266,0.227,49.891-0.056
		c21.785-0.366,35.789-14.655,36.09-36.375c0.092-6.397,0.135-12.798-0.012-19.188c-0.41-17.875-13.25-30.733-30.875-30.82
		c-21.43-0.102-42.859-0.241-64.285,0.078c-8.688,0.133-12.75-2.438-12.813-12.008c-0.063-9.961,4.758-11.742,13.082-11.664
		c24.625,0.241,49.254,0.155,73.879,0.016c4.43-0.021,9.051-0.289,13.232-1.586c10.105-3.125,7.949-11.857,7.648-19.28
		c-0.285-7.03-4.953-10.086-11.578-10.095c-34.863-0.055-69.732-0.491-104.582,0.195c-20.602,0.406-33.355,14.57-33.863,35.267
		c-0.125,5.116-0.031,10.233-0.031,15.358c0.012,23.805,7.941,33.008,31.652,35.358c22.316,2.202,44.742,0.694,67.113,0.789
		c8.355,0.03,11.223,3.405,11.324,11.491c0.107,8.781-3.621,11.979-12.082,11.914c-27.824-0.202-55.648-0.211-83.473,0
		c-11.273,0.086-14.672,4.313-14.531,16.531c0.129,11.297,2.742,13.978,14.316,14.047
		C293.523,2575.071,310.152,2574.993,326.785,2574.993z"/>
	<path fill="#0F1718" d="M1533.355,2581.188c-16.643,0.01-33.272,0.039-49.914-0.008c-14.229-0.039-20.182-5.305-20.51-18
		c-0.43-16.875,5.523-24.789,20.07-25.357c12.772-0.492,25.586-0.117,38.383-0.125c14.398,0,28.797,0.068,43.193-0.039
		c3.719-0.031,8.453,1.865,8.281-5.461c-0.164-6.789-4.578-4.781-7.884-4.807c-17.912-0.133-35.826-0.076-53.739-0.063
		c-7.712,0.008-15.306-0.773-22.695-3.078c-18.039-5.633-25.492-15.641-25.603-34.438c-0.047-7.359-0.133-14.719,0.048-22.078
		c0.538-21.859,16.844-39.352,38.672-39.742c35.5-0.625,71.021-0.25,106.528-0.172c8.587,0.023,14.728,3.828,16.813,12.672
		c3.063,13.008,0.297,22.768-7.906,27.344c-5.43,3.039-11.391,3.799-17.586,3.773c-24.633-0.102-49.264-0.102-73.895,0.039
		c-3.261,0.016-7.898-2.086-8.089,4.68c-0.192,7.117,4.523,5.523,8.339,5.539c20.786,0.078,41.584-0.031,62.381,0.055
		c19.739,0.096,35.578,14.328,37.106,33.992c0.722,9.211,0.648,18.578-0.125,27.789c-1.828,21.729-18.231,36.768-40.055,37.469
		c-0.633,0.023-1.273,0.018-1.914,0.018C1566.62,2581.188,1549.989,2581.188,1533.355,2581.188z M1532.942,2574.985
		c16.952,0,33.901,0.305,50.85-0.078c21.57-0.492,34.984-14.353,35.297-35.858c0.103-7.03,0.195-14.069-0.031-21.103
		c-0.538-16.978-13.108-29.289-30.086-29.383c-21.741-0.117-43.498-0.173-65.239,0.039c-8.125,0.077-12.414-2.398-12.556-11.479
		c-0.156-9.5,4.117-12.25,12.789-12.164c24.625,0.25,49.256,0.134,73.881,0.031c4.133-0.017,8.406-0.078,12.367-1.094
		c8.266-2.125,10.358-7.681,8.852-20.336c-0.875-7.367-5.647-9.539-12.022-9.556c-34.539-0.056-69.092-0.444-103.623,0.155
		c-20.789,0.359-34.141,15.095-34.336,35.931c-0.07,7.353,0.086,14.711-0.031,22.069c-0.188,11.604,5.469,19.268,15.703,24.056
		c8.953,4.181,18.539,4.728,28.125,4.827c18.547,0.195,37.102,0.048,55.646,0.078c4.203,0.008,8.406-0.094,10,5.233
		c3.539,11.813-0.75,17.914-12.938,17.938c-27.506,0.055-55.015-0.143-82.521,0.133c-10.733,0.104-14.188,4.789-14,17.063
		c0.164,10.396,3.134,13.396,13.978,13.477C1499.676,2575.087,1516.309,2575.001,1532.942,2574.985z"/>
	<path fill="#0F1718" d="M1876.651,2581.188c-16.314,0-32.636,0.104-48.945-0.021c-25.297-0.188-42.117-16.789-42.359-42.018
		c-0.211-23.029-0.202-46.068-0.008-69.107c0.219-25.297,16.978-42.104,42.142-42.229c33.594-0.154,67.188-0.094,100.772-0.016
		c14.039,0.031,19.445,5.68,19.586,19.961c0.133,14.875-5.453,21.492-19.258,21.602c-29.109,0.221-58.234,0.359-87.336-0.125
		c-7.729-0.133-9.604,2.164-9.367,9.578c0.547,17.258,0.539,34.555,0,51.82c-0.219,7.078,1.522,9.219,8.883,9.094
		c28.148-0.461,56.306,0.078,84.453-0.266c23.056-0.289,25.172,10.352,21.453,31.008c-1.469,8.133-9.078,10.805-17.228,10.758
		C1911.846,2581.118,1894.252,2581.188,1876.651,2581.188z M1877.073,2574.993c16.942,0,33.883-0.039,50.828,0.021
		c5.375,0.023,10.469-0.646,12.891-6.219c5.695-13.094-0.547-22.586-14.805-22.617c-29.406-0.055-58.814-0.116-88.222,0.039
		c-8.438,0.048-12.114-3.227-11.93-12.008c0.398-19.172,0.104-38.358,0.133-57.539c0.019-12.188,1.564-13.797,13.734-13.82
		c29.727-0.047,59.453,0.086,89.18-0.086c9.808-0.063,12.539-3.405,12.609-13.797c0.086-11.353-2.516-14.875-12.398-14.922
		c-34.201-0.173-68.403-0.461-102.602,0.102c-21.563,0.359-34.853,14.703-34.969,36.173c-0.117,22.056-0.056,44.108-0.017,66.164
		c0.047,24.892,13.453,38.306,38.578,38.491C1845.752,2575.095,1861.409,2574.993,1877.073,2574.993z"/>
	<path fill="#0F1718" d="M522.629,2581.196c-17.59,0-35.184,0.086-52.77-0.039c-11.984-0.078-16.582-4.884-16.742-16.992
		c-0.047-3.517-0.07-7.039,0.008-10.555c0.234-10.931,4.879-15.854,15.703-16.164c8.629-0.242,17.271-0.22,25.902,0.021
		c4.082,0.109,5.564-1.141,5.521-5.391c-0.195-18.229-0.223-36.461,0.018-54.688c0.059-4.646-1.441-6.076-5.996-5.904
		c-8.307,0.305-16.635,0.232-24.945,0.047c-11.41-0.258-16.008-5.086-16.215-16.617c-0.023-1.281-0.004-2.563-0.004-3.844
		c-0.027-20.555,2.68-23.297,22.965-23.297c32.625,0,65.246-0.031,97.867,0.016c13.789,0.016,18.121,4.461,18.246,18.406
		c0.025,3.203,0.094,6.406-0.021,9.594c-0.371,10.797-5.086,15.492-16.125,15.742c-8.309,0.188-16.637,0.271-24.941-0.055
		c-4.586-0.182-6.008,1.266-5.943,5.896c0.242,18.229,0.215,36.461,0.012,54.688c-0.047,4.211,1.258,5.556,5.441,5.414
		c8.309-0.28,16.633-0.194,24.943-0.048c11.6,0.203,16.277,4.867,16.635,16.22c0.787,25.452-1.213,27.548-26.385,27.548
		C551.414,2581.196,537.02,2581.196,522.629,2581.196z M523.363,2433.97c-17.264,0-34.527,0.22-51.785-0.094
		c-8.91-0.156-13.297,3.195-12.414,12.438c0.242,2.529,0.199,5.115,0.008,7.664c-0.621,8.357,3.566,11.529,11.5,11.383
		c9.902-0.18,19.816,0.078,29.729-0.086c4.314-0.07,6.396,1.227,6.365,5.961c-0.15,22.055-0.189,44.117,0.023,66.172
		c0.051,5.352-2.371,6.469-7,6.336c-7.664-0.219-15.344-0.055-23.016-0.055c-17.313,0.008-17.656,0.352-17.574,17.68
		c0.063,12.18,1.473,13.609,13.961,13.617c31.645,0.031,63.293,0.016,94.939,0.016c17.928,0,17.928-0.008,17.811-18.25
		c0-0.641-0.055-1.289,0.008-1.914c0.875-8.555-3.617-11.367-11.465-11.195c-9.586,0.211-19.186-0.141-28.768,0.117
		c-4.84,0.125-6.814-1.357-6.766-6.492c0.207-21.732,0.258-43.477-0.031-65.211c-0.072-5.813,2.384-6.938,7.436-6.805
		c9.9,0.258,19.814,0.078,29.727,0.047c6.527-0.016,10.289-2.779,9.887-9.857c-0.184-3.188-0.275-6.414,0.021-9.586
		c0.824-8.771-3.238-12.094-11.766-11.961C557.25,2434.165,540.305,2433.97,523.363,2433.97z"/>
	<path fill="#0F1718" d="M2241.299,2514.063c0.008,16.307,0.125,32.604-0.022,48.906c-0.134,13.383-5.992,18.313-21.095,18.229
		c-13.5-0.086-19.688-5.906-19.952-18.773c-0.009-0.318,0.022-0.641,0-0.961c-0.703-9.125,4.102-21.633-1.914-26.482
		c-5.688-4.578-17.681-1.414-26.906-1.492c-11.82-0.094-23.656,0.219-35.478-0.133c-5.03-0.148-6.68,1.289-6.444,6.396
		c0.391,8.609,0.358,17.268-0.039,25.875c-0.5,10.992-6.063,15.432-18.57,15.57c-14.945,0.164-22.106-4.063-22.219-15.021
		c-0.328-35.479-0.617-70.971,0.383-106.422c0.508-18.211,17.625-33.328,36.844-33.789c25.875-0.617,51.789-0.643,77.664-0.018
		c21.558,0.521,37.367,17.453,37.703,39.211C2241.495,2481.454,2241.299,2497.759,2241.299,2514.063z M2094.721,2512.485
		c0,16.616-0.086,33.232,0.031,49.852c0.07,9.711,3.195,12.47,13.648,12.656c11.771,0.211,14.771-2.039,15.039-12.094
		c0.25-9.586,0.231-19.181,0-28.759c-0.117-4.563,0.641-6.923,6.125-6.858c23.641,0.272,47.297,0.219,70.942,0.022
		c4.648-0.03,6.058,1.548,5.925,6.063c-0.273,9.258-0.164,18.531-0.058,27.797c0.117,10.586,3.761,13.914,14.8,13.836
		c10.797-0.086,13.891-2.951,13.914-13.391c0.055-31.643,0.086-63.281-0.011-94.914c-0.063-19.914-13.133-34.125-33.172-34.656
		c-24.586-0.646-49.219-0.633-73.813-0.008c-20.452,0.516-33.25,14.68-33.358,35.391
		C2094.659,2482.446,2094.721,2497.462,2094.721,2512.485z"/>
	<path fill="#0F1718" d="M904.902,2427.773c20.766,0,41.533-0.063,62.305,0.022c13.012,0.055,17.652,4.858,17.789,18.07
		c0.035,3.194,0.098,6.396-0.012,9.586c-0.371,10.758-5.221,15.819-15.975,16.055c-11.496,0.25-23.02,0.422-34.5-0.086
		c-5.996-0.267-7.465,1.539-7.396,7.43c0.318,27.798,0.164,55.595,0.137,83.398c-0.021,14.961-3.887,18.883-18.504,18.944
		c-25.579,0.103-26.637-0.938-26.637-26.116c0-25.25-0.207-50.492,0.145-75.734c0.09-6.25-1.595-8.211-7.907-7.922
		c-11.159,0.517-22.361,0.297-33.542,0.103c-11.323-0.202-16.133-5.147-16.504-16.539c-0.125-3.836-0.172-7.681,0.017-11.5
		c0.513-10.647,5.5-15.586,16.358-15.664C862.081,2427.665,883.492,2427.773,904.902,2427.773z M904.793,2433.97
		c-20.785,0-41.571,0.156-62.349-0.069c-7.966-0.086-12.186,2.819-11.57,11.211c0.141,1.914,0.012,3.836,0.016,5.759
		c0.043,13.266,1.1,14.391,14.014,14.438c11.189,0.056,22.429,0.634,33.558-0.18c8.865-0.647,10.587,2.695,10.436,10.844
		c-0.495,26.523-0.188,53.07-0.185,79.609c0,19.555,0,19.555,19.16,19.422c11.844-0.086,13.064-1.267,13.082-13.289
		c0.039-29.422,0.15-58.836-0.1-88.25c-0.051-6.063,1.5-8.563,7.984-8.267c10.531,0.478,21.098,0.125,31.648,0.125
		c17.926-0.009,18.5-0.577,18.297-18.108c-0.129-11.272-2.039-13.203-13.563-13.228
		C945.078,2433.938,924.938,2433.97,904.793,2433.97z"/>
	<path fill="#0F1718" d="M2012.698,2581.438c-11.479-0.297-20.308-9.49-20.234-21.063c0.07-11.719,10.017-21.438,21.484-21.008
		c11.664,0.445,20.758,10.453,20.211,22.25C2033.627,2573.11,2024.292,2581.735,2012.698,2581.438z M2027.885,2560.407
		c-0.047-8.289-6.203-14.461-14.477-14.509c-8.258-0.048-14.539,6.103-14.656,14.336c-0.125,8.539,6.617,15.353,14.969,15.116
		C2021.721,2575.126,2027.939,2568.563,2027.885,2560.407z"/>
	<path fill="#0F1718" d="M2333.581,2560.931c-0.188,11.518-9.281,20.492-20.789,20.523c-11.853,0.039-21.203-9.492-20.969-21.354
		c0.219-11.305,9.68-20.727,20.844-20.758C2324.284,2539.313,2333.768,2549.104,2333.581,2560.931z M2312.564,2545.915
		c-8.299,0.094-14.375,6.25-14.375,14.586c-0.018,8.147,6.25,14.68,14.25,14.853c8.336,0.181,15.056-6.673,14.892-15.202
		C2327.167,2551.962,2320.807,2545.829,2312.564,2545.915z"/>
	<path fill="#00C7C8" d="M1318.489,2443.979c4.356-7.772,10.844-9.22,18.352-9.103c15.023,0.233,30.063-0.133,45.086,0.133
		c21.156,0.375,34.056,13.242,34.195,34.273c0.203,30.375,0.108,60.758,0.031,91.133c-0.031,11.664-2.308,13.664-14.398,13.642
		c-11.569-0.022-14.125-2.431-14.164-14.086c-0.094-26.858,0.017-53.728-0.055-80.586c-0.031-10.892-1.979-12.772-12.931-12.853
		c-10.557-0.078-21.104,0.017-31.655-0.008c-7.414-0.023-10.82,3-10.72,11.021c0.345,28.134,0.154,56.273,0.115,84.414
		c-0.016,11.681-0.567,12.109-13.844,12.104c-12.641-0.018-13.047-0.328-13.07-11.681c-0.028-27.181,0.031-54.358-0.028-81.539
		c-0.031-12.694-1.664-14.259-14.458-14.319c-8.957-0.056-17.91,0.102-26.863-0.039c-7.656-0.125-10.836,3.305-10.766,11.069
		c0.236,26.858,0.125,53.72,0.072,80.578c-0.021,14.616-9.883,20.952-23.354,15.103c-4.043-1.758-5.453-5.094-5.445-9.258
		c0.047-33.259-0.27-66.518,0.289-99.768c0.258-15.327,13.406-28.107,29.313-28.857c16.273-0.768,32.604-0.259,48.907-0.268
		C1309.575,2435.087,1314.567,2438.104,1318.489,2443.979z"/>
	<path fill="#00C7C8" d="M1110.871,2574.993c-15.996,0-31.996,0.164-47.988-0.039c-23.918-0.306-37.396-13.953-37.465-37.695
		c-0.059-22.078-0.074-44.147,0.008-66.228c0.082-22.194,13.262-36.563,35.258-36.897c33.902-0.517,67.82-0.25,101.73-0.086
		c10.332,0.055,12.98,3.353,12.984,14.383c0,11.109-2.621,14.289-13.061,14.345c-29.43,0.164-58.861,0.048-88.293,0.086
		c-4.729,0-10.711-1.164-12.852,4.077c-2.656,6.509-2.492,13.875,0.129,20.531c1.684,4.272,6.314,3.586,10.141,3.586
		c30.711,0,61.422-0.022,92.139,0.017c11.668,0.017,11.832,0.272,11.797,14.039c-0.031,12.25-0.488,12.789-12.096,12.806
		c-29.754,0.03-59.504-0.018-89.258,0.021c-13.09,0.018-14.184,1.188-14.18,14.298c0.004,12.522,1.404,13.905,14.625,13.923
		c28.789,0.03,57.582-0.048,86.375,0.039c13.227,0.039,14.564,1.469,14.529,14.102c-0.029,11.893-2.65,14.617-14.619,14.681
		C1144.141,2575.063,1127.508,2575.001,1110.871,2574.993z"/>
	<path fill="#00C7C8" d="M695.621,2574.993c-16.637,0.008-33.271,0.094-49.902-0.031c-10.861-0.07-13.754-3.017-13.906-13.483
		c-0.18-12.397,3.182-16.961,13.941-17.056c27.508-0.258,55.027-0.438,82.527,0.031c13.703,0.233,14.418-4.781,12.801-18.07
		c-0.66-5.396-5.633-5.258-9.867-5.266c-18.234-0.018-36.469,0.102-54.703-0.056c-9.59-0.077-19.184-0.509-28.207-4.47
		c-10.672-4.68-16.813-12.305-16.52-24.444c0.176-7.353-0.031-14.711,0.043-22.069c0.207-20.938,13.453-35.563,34.285-35.914
		c34.539-0.595,69.094-0.211,103.641-0.156c6.379,0.017,11.16,2.219,12.015,9.578c1.48,12.732-0.593,18.155-8.899,20.28
		c-3.961,1.017-8.23,1.108-12.363,1.125c-24.633,0.103-49.266,0.241-73.895-0.048c-8.742-0.102-12.842,2.634-12.725,12.143
		c0.105,9.141,4.316,11.586,12.445,11.508c21.43-0.203,42.867-0.117,64.297-0.047c18.684,0.069,30.925,12.396,31.155,31.271
		c0.073,6.393,0.073,12.789,0,19.188c-0.254,21.375-13.78,35.391-35.306,35.896C729.535,2575.298,712.574,2574.985,695.621,2574.993
		z"/>
	<path fill="#00C7C8" d="M326.785,2574.993c-16.633,0-33.262,0.077-49.895-0.023c-11.574-0.069-14.188-2.75-14.316-14.047
		c-0.141-12.219,3.258-16.445,14.531-16.531c27.824-0.211,55.648-0.202,83.473,0c8.461,0.063,12.189-3.133,12.082-11.914
		c-0.104-8.086-2.969-11.461-11.324-11.491c-22.371-0.095-44.797,1.414-67.113-0.789c-23.711-2.353-31.641-11.556-31.652-35.358
		c0-5.125-0.094-10.242,0.031-15.358c0.508-20.694,13.262-34.858,33.863-35.267c34.848-0.688,69.719-0.25,104.582-0.195
		c6.625,0.009,11.293,3.063,11.578,10.095c0.301,7.423,2.457,16.155-7.648,19.28c-4.184,1.298-8.805,1.563-13.232,1.586
		c-24.625,0.143-49.254,0.229-73.879-0.016c-8.324-0.078-13.146,1.702-13.082,11.664c0.063,9.569,4.125,12.141,12.813,12.008
		c21.426-0.32,42.855-0.18,64.285-0.078c17.625,0.086,30.465,12.945,30.875,30.82c0.146,6.392,0.104,12.789,0.012,19.188
		c-0.301,21.72-14.305,36.009-36.09,36.375C360.051,2575.22,343.418,2574.993,326.785,2574.993z"/>
	<path fill="#00C7C8" d="M1532.942,2574.993c-16.636,0.008-33.269,0.094-49.898-0.023c-10.844-0.077-13.813-3.077-13.977-13.477
		c-0.189-12.273,3.266-16.961,14-17.063c27.508-0.271,55.016-0.078,82.52-0.133c12.189-0.023,16.479-6.125,12.939-17.938
		c-1.597-5.328-5.798-5.229-10-5.234c-18.546-0.031-37.103,0.117-55.646-0.078c-9.586-0.102-19.172-0.646-28.125-4.828
		c-10.233-4.789-15.891-12.451-15.703-24.055c0.117-7.357-0.039-14.719,0.031-22.07c0.195-20.836,13.547-35.568,34.336-35.93
		c34.531-0.602,69.084-0.211,103.623-0.156c6.375,0.018,11.147,2.188,12.022,9.557c1.509,12.654-0.588,18.211-8.854,20.336
		c-3.961,1.016-8.234,1.076-12.367,1.094c-24.625,0.104-49.256,0.219-73.881-0.031c-8.672-0.086-12.943,2.664-12.789,12.164
		c0.144,9.078,4.433,11.557,12.558,11.479c21.739-0.211,43.498-0.156,65.237-0.039c16.979,0.094,29.549,12.406,30.088,29.383
		c0.228,7.031,0.134,14.07,0.029,21.102c-0.313,21.51-13.727,35.367-35.297,35.859
		C1566.846,2575.29,1549.895,2574.985,1532.942,2574.993z"/>
	<path fill="#00C7C8" d="M1877.073,2574.993c-15.664,0-31.32,0.102-46.984-0.018c-25.125-0.188-38.531-13.602-38.578-38.491
		c-0.039-22.056-0.102-44.108,0.017-66.164c0.116-21.47,13.405-35.813,34.969-36.173c34.195-0.563,68.397-0.271,102.602-0.102
		c9.886,0.047,12.484,3.569,12.398,14.922c-0.07,10.392-2.805,13.733-12.609,13.797c-29.727,0.173-59.453,0.039-89.18,0.086
		c-12.172,0.023-13.719,1.634-13.734,13.82c-0.029,19.18,0.269,38.367-0.133,57.539c-0.188,8.781,3.492,12.055,11.93,12.008
		c29.406-0.155,58.814-0.094,88.222-0.039c14.258,0.031,20.5,9.523,14.805,22.617c-2.422,5.57-7.516,6.242-12.891,6.219
		C1910.956,2574.954,1894.018,2574.993,1877.073,2574.993z"/>
	<path fill="#00C7C8" d="M523.363,2433.97c16.939,0,33.887,0.195,50.828-0.077c8.525-0.134,12.59,3.188,11.766,11.961
		c-0.297,3.173-0.203,6.397-0.021,9.586c0.402,7.077-3.357,9.845-9.887,9.858c-9.91,0.031-19.824,0.211-29.727-0.047
		c-5.053-0.134-7.51,0.991-7.436,6.805c0.289,21.733,0.238,43.478,0.031,65.211c-0.051,5.133,1.926,6.617,6.766,6.492
		c9.582-0.259,19.182,0.094,28.768-0.117c7.848-0.172,12.34,2.642,11.465,11.195c-0.063,0.625-0.008,1.271-0.008,1.914
		c0.117,18.241,0.117,18.25-17.811,18.25c-31.646,0-63.297,0.016-94.939-0.018c-12.488-0.008-13.898-1.438-13.961-13.616
		c-0.082-17.327,0.262-17.673,17.572-17.681c7.674,0,15.354-0.164,23.018,0.056c4.629,0.134,7.051-0.983,7-6.336
		c-0.215-22.056-0.176-44.116-0.023-66.172c0.031-4.733-2.051-6.03-6.366-5.961c-9.909,0.164-19.823-0.095-29.728,0.086
		c-7.934,0.147-12.121-3.022-11.5-11.384c0.191-2.547,0.234-5.133-0.008-7.664c-0.883-9.241,3.504-12.594,12.414-12.438
		C488.836,2434.188,506.102,2433.97,523.363,2433.97z"/>
	<path fill="#00C7C8" d="M2094.721,2512.485c0-15.023-0.063-30.039,0.017-45.063c0.108-20.711,12.905-34.875,33.358-35.391
		c24.594-0.625,49.228-0.643,73.813,0.008c20.039,0.531,33.108,14.742,33.172,34.656c0.094,31.633,0.063,63.271,0.008,94.914
		c-0.021,10.438-3.114,13.305-13.914,13.391c-11.039,0.078-14.68-3.25-14.797-13.836c-0.106-9.266-0.219-18.539,0.055-27.797
		c0.136-4.516-1.271-6.094-5.922-6.063c-23.646,0.193-47.305,0.25-70.945-0.023c-5.481-0.063-6.239,2.297-6.125,6.859
		c0.234,9.576,0.25,19.172,0,28.758c-0.266,10.055-3.266,12.305-15.039,12.094c-10.45-0.188-13.575-2.945-13.646-12.656
		C2094.635,2545.72,2094.721,2529.104,2094.721,2512.485z M2164.198,2498.759c6.391,0,12.789,0,19.18,0
		c24.392,0,24.228,0.009,23.07-24.357c-0.328-6.984-3.634-9.813-10.125-9.82c-21.095-0.022-42.195-0.039-63.289,0.022
		c-6.695,0.017-9.867,3.392-9.57,10.233c0.25,5.742,0.406,11.539-0.055,17.25c-0.47,5.797,2.086,6.914,7.227,6.767
		C2141.814,2498.532,2153.01,2498.759,2164.198,2498.759z"/>
	<path fill="#00C7C8" d="M904.793,2433.97c20.146,0,40.285-0.03,60.43,0.018c11.523,0.021,13.436,1.952,13.563,13.227
		c0.203,17.531-0.371,18.104-18.297,18.109c-10.552,0-21.117,0.352-31.648-0.125c-6.482-0.298-8.035,2.202-7.982,8.266
		c0.25,29.414,0.137,58.828,0.098,88.25c-0.016,12.023-1.238,13.203-13.082,13.289c-19.16,0.134-19.16,0.134-19.16-19.422
		c-0.004-26.539-0.313-53.086,0.186-79.608c0.15-8.147-1.57-11.491-10.437-10.845c-11.129,0.813-22.367,0.234-33.558,0.181
		c-12.914-0.048-13.969-1.173-14.012-14.438c-0.006-1.922,0.125-3.844-0.018-5.758c-0.613-8.393,3.605-11.298,11.57-11.211
		C863.222,2434.126,884.008,2433.97,904.793,2433.97z"/>
	<path fill="#00C7C8" d="M2027.885,2560.407c0.056,8.155-6.164,14.719-14.164,14.944c-8.352,0.233-15.094-6.577-14.969-15.116
		c0.117-8.234,6.398-14.384,14.656-14.336C2021.682,2545.946,2027.838,2552.118,2027.885,2560.407z"/>
	<path fill="#00C7C8" d="M2312.564,2545.915c8.24-0.086,14.603,6.047,14.767,14.233c0.164,8.53-6.555,15.384-14.892,15.202
		c-8-0.172-14.268-6.702-14.25-14.852C2298.189,2552.165,2304.268,2546.009,2312.564,2545.915z"/>
	<path fill="#0F1718" d="M2164.198,2498.759c-11.189,0-22.384-0.227-33.564,0.095c-5.141,0.147-7.692-0.97-7.227-6.767
		c0.461-5.711,0.305-11.508,0.055-17.25c-0.297-6.844,2.875-10.219,9.57-10.233c21.094-0.063,42.194-0.048,63.289-0.022
		c6.491,0.008,9.797,2.836,10.125,9.82c1.155,24.366,1.319,24.357-23.07,24.357
		C2176.987,2498.759,2170.588,2498.759,2164.198,2498.759z M2164.893,2471.134c-9.577,0-19.155,0.188-28.727-0.086
		c-4.719-0.133-7.266,0.953-6.641,6.298c0.375,3.147,0.227,6.384,0.028,9.563c-0.227,3.767,0.558,5.828,5.109,5.781
		c20.108-0.203,40.219-0.188,60.327-0.009c4.367,0.039,5.556-1.759,5.281-5.694c-0.219-3.181-0.336-6.414,0.017-9.563
		c0.594-5.313-1.931-6.49-6.673-6.365C2184.049,2471.306,2174.471,2471.126,2164.893,2471.134z"/>
</g>
</svg>
